<svg width="179" height="34" viewBox="0 0 179 34" fill="none" xmlns="http://www.w3.org/2000/svg">
<g id="logo">
<path id="Fill 1" fill-rule="evenodd" clip-rule="evenodd" d="M50.403 24.5411C50.3485 24.6883 50.2476 24.8165 50.115 24.9085C49.9818 25.0006 49.8227 25.0514 49.6592 25.0551H46.6349C46.5355 25.0558 46.4397 25.019 46.3683 24.9534C46.2969 24.8872 46.2564 24.7966 46.2549 24.7016C46.2527 24.6662 46.2578 24.6309 46.2711 24.597L50.2233 12.3803C50.2741 12.2293 50.3743 12.0982 50.509 12.0062C50.6438 11.9134 50.8058 11.8641 50.9715 11.8663H53.9833C54.0835 11.8648 54.1799 11.9016 54.2513 11.9686C54.3228 12.0349 54.3633 12.1255 54.3648 12.2212C54.3648 12.2558 54.3544 12.2868 54.35 12.328L50.403 24.5411Z" fill="#DEDEDE"/>
<path id="Fill 3" fill-rule="evenodd" clip-rule="evenodd" d="M53.1646 10.5948C53.4864 10.5926 53.8075 10.5661 54.1256 10.5175C54.3502 10.4755 54.5623 10.3842 54.7442 10.2502C54.9253 10.1162 55.0711 9.94385 55.1698 9.7465C55.2862 9.52852 55.3812 9.30172 55.4526 9.06681L55.7656 8.09403C55.8267 7.91288 55.8723 7.72731 55.9003 7.53953C55.9143 7.47178 55.9143 7.4033 55.8996 7.33555C55.8856 7.26854 55.8569 7.20447 55.8164 7.14851C55.7759 7.0918 55.7243 7.04394 55.6639 7.00638C55.6036 6.96956 55.5358 6.94379 55.4651 6.93201H55.4393C55.1971 6.88856 54.9504 6.86573 54.7037 6.86426H53.7604C53.4386 6.86573 53.1175 6.89371 52.8009 6.94747C52.5748 6.9865 52.362 7.0756 52.1793 7.20742C51.9967 7.33997 51.8487 7.51155 51.7493 7.7089C51.641 7.92908 51.5512 8.15663 51.4798 8.3908L51.1617 9.36799C51.105 9.5786 51.0622 9.75386 51.0365 9.91955C51.0085 10.0528 51.0365 10.1905 51.1145 10.3032C51.1926 10.4166 51.3141 10.4961 51.4533 10.5241H51.4974C51.739 10.569 51.9842 10.5897 52.2302 10.586L53.1646 10.5948Z" fill="#DEDEDE"/>
<path id="Fill 5" fill-rule="evenodd" clip-rule="evenodd" d="M78.089 18.5377C78.0905 18.5207 78.0905 18.5038 78.089 18.4869C78.0912 18.4471 78.0787 18.4081 78.0544 18.3757C78.0294 18.344 77.994 18.3212 77.9543 18.3116C77.9543 18.3116 74.508 18.0465 73.4107 18.9059C72.2428 19.8197 72.0631 21.7874 72.1051 21.9501C72.1051 21.9501 71.8827 23.3065 74.4233 22.9781C74.6376 22.9575 74.8496 22.9207 75.058 22.8691C76.1295 22.6401 76.8732 22.1769 77.2304 21.1769L78.089 18.5377ZM72.6427 16.5613C75.3386 16.037 78.6561 16.3713 78.6561 16.3713C78.6973 16.3713 78.7371 16.3588 78.7695 16.3352C78.8019 16.3124 78.8262 16.28 78.8387 16.2424L79.1148 15.386C79.6009 13.9044 77.8829 13.7733 77.8829 13.7733C77.5699 13.7468 77.2658 13.7203 76.98 13.71C75.3615 13.6643 73.7414 13.7578 72.1405 13.9891L71.5698 14.0951L71.4542 14.1143C71.2001 14.1776 71.1471 14.009 71.1854 13.7858C71.2863 13.3536 71.4836 12.9471 71.7627 12.5929C71.9719 12.3175 72.1817 12.0789 72.8717 11.9588C75.2989 11.573 77.7695 11.5001 80.2172 11.7423C80.2172 11.7423 84.3064 12.0737 83.1562 15.5922L80.2577 24.5511C80.2062 24.7021 80.1068 24.8332 79.9735 24.9267C79.8395 25.0202 79.6782 25.071 79.5125 25.0725H76.7451C76.6281 25.0725 76.5147 25.0276 76.4322 24.9481C76.349 24.8693 76.3018 24.761 76.3018 24.6491V24.5659L76.3652 24.272V24.2603C76.3659 24.2507 76.3637 24.2404 76.36 24.2301C76.3563 24.2212 76.3504 24.2124 76.3431 24.205C76.3357 24.1977 76.3269 24.1918 76.3173 24.1874C76.307 24.1837 76.2967 24.1807 76.2856 24.1807C76.2709 24.1807 76.2562 24.1859 76.2444 24.1955C75.0964 24.6992 73.871 25.021 72.6147 25.1484C68.231 25.571 67.8385 23.7875 67.7862 23.0909C67.6875 21.6873 68.4085 18.9096 70.0963 17.5606C70.7605 17.037 71.6051 16.7734 72.6331 16.5782L72.6427 16.5613Z" fill="#DEDEDE"/>
<path id="Fill 7" fill-rule="evenodd" clip-rule="evenodd" d="M68.5108 15.5031C68.8451 14.3455 68.7317 13.6408 68.1927 12.9633C67.6043 12.2107 66.161 11.6017 64.4017 11.6017C62.9569 11.5929 61.5482 12.0325 60.3884 12.8536L60.5622 12.3226C60.5622 12.2829 60.5769 12.2505 60.5769 12.2173C60.5755 12.1223 60.5342 12.0317 60.4628 11.9647C60.3914 11.8977 60.2956 11.8609 60.1955 11.8609H57.1807C57.015 11.8594 56.8537 11.9088 56.7197 12.0016C56.5857 12.0943 56.4855 12.2247 56.4355 12.3756L52.484 24.5924C52.4678 24.6248 52.4612 24.6616 52.4649 24.6962C52.4656 24.7919 52.5054 24.8825 52.5753 24.9503C52.646 25.018 52.741 25.0563 52.8412 25.057H55.8611C56.0268 25.0548 56.188 25.0026 56.3213 24.909C56.4554 24.8162 56.5555 24.6859 56.6078 24.5364L58.9097 17.417L58.9208 17.4C59.4908 15.6651 61.0475 13.928 63.0512 13.928C63.7493 13.928 64.2361 14.0561 64.457 14.2777C64.5358 14.3536 64.5903 14.4501 64.6138 14.5546C64.6381 14.6592 64.63 14.7682 64.5917 14.8691C64.5225 15.2034 64.2685 15.984 64.2685 15.984L61.4842 24.6005C61.4716 24.6336 61.4665 24.669 61.4665 24.7043C61.4687 24.7986 61.5085 24.8891 61.5777 24.9562C61.6476 25.0232 61.7426 25.0607 61.8413 25.0629H64.8657C65.0291 25.0615 65.1882 25.0114 65.32 24.9186C65.4526 24.8266 65.5512 24.697 65.6028 24.5489L67.2685 19.3905L68.2685 16.3043C68.2737 16.2741 68.281 16.2446 68.2914 16.2152L68.3709 15.9788L68.5108 15.5031Z" fill="#DEDEDE"/>
<path id="Fill 9" fill-rule="evenodd" clip-rule="evenodd" d="M17.6725 21.4173C17.3382 22.5749 17.4501 23.2796 17.9847 23.9571C18.5753 24.7097 20.0186 25.3216 21.7801 25.3216C23.2249 25.329 24.6321 24.8893 25.7934 24.0705L25.6211 24.6044C25.6101 24.6382 25.6027 24.6736 25.5983 24.7097C25.6005 24.8047 25.641 24.8952 25.7124 24.9608C25.7838 25.0271 25.8803 25.0639 25.9797 25.0631H29.0041C29.1705 25.0639 29.3318 25.0138 29.4665 24.9203C29.6005 24.826 29.7 24.6935 29.7493 24.5425L33.7022 12.325C33.7162 12.2904 33.7229 12.2536 33.7206 12.216C33.7184 12.1218 33.6779 12.0319 33.6072 11.9657C33.5366 11.8994 33.4423 11.8618 33.3436 11.8611H30.3126C30.1492 11.864 29.9901 11.9149 29.8583 12.0069C29.7257 12.099 29.6263 12.2278 29.574 12.3758L27.2684 19.4953V19.5196C26.6977 21.2501 25.1373 22.9917 23.1373 22.9917C22.4392 22.9917 21.9472 22.8738 21.7374 22.6419C21.6019 22.5042 21.5386 22.3841 21.6019 22.0498C21.6659 21.7155 21.9222 20.9393 21.9222 20.9393L24.7117 12.3228C24.7227 12.2867 24.7279 12.2499 24.7264 12.2124C24.7242 12.1188 24.6844 12.0297 24.6152 11.9635C24.5452 11.8972 24.4524 11.8596 24.3545 11.8574H21.3221C21.1578 11.8574 20.998 11.9075 20.8648 11.9995C20.7322 12.0923 20.6335 12.2227 20.5835 12.3714L18.9111 17.5232L17.9126 20.6124C17.9 20.6418 17.8934 20.6713 17.8831 20.7008L17.8102 20.9416C17.8102 20.9416 17.7005 21.3274 17.6725 21.4173Z" fill="#DEDEDE"/>
<path id="Fill 11" fill-rule="evenodd" clip-rule="evenodd" d="M37.7907 25.1649C35.7185 25.1649 33.9526 24.6767 33.2332 24.0471C32.5668 23.4661 32.203 22.6163 32.5668 21.1369C32.8179 20.1803 33.9269 16.7649 34.2501 15.8091C34.7568 14.3738 35.812 13.1728 37.206 12.4467C38.5993 11.7545 40.2098 11.6006 42.6671 11.6006C45.1237 11.6006 46.5847 12.189 47.1627 12.9607C47.7924 13.7958 47.8432 14.485 47.1156 16.6235C47.0825 16.6979 47.0265 16.7612 46.9536 16.8039C46.8807 16.8459 46.796 16.8651 46.7113 16.8584H43.4241C43.3652 16.8584 43.3077 16.8437 43.2569 16.8165C43.2061 16.7885 43.1627 16.7494 43.1317 16.7016C43.0993 16.6537 43.0795 16.5992 43.0728 16.5425C43.0662 16.4851 43.0743 16.4276 43.0957 16.3739C43.1774 16.1088 43.2938 15.7384 43.4079 15.3812C43.5802 14.8562 43.6899 14.5903 43.4771 14.3341C43.2356 14.0447 42.7503 13.9268 41.9513 13.9268C40.8129 13.9268 39.6788 14.6691 39.0978 15.3415C38.5175 16.0138 38.1088 16.6596 37.4446 18.7546C36.8393 20.6575 36.5418 21.3983 36.5794 21.9167C36.5794 22.1045 36.6199 23.0471 38.3003 23.0471C39.5374 23.0471 40.0743 22.835 40.3106 22.6671C40.5485 22.5007 41.3497 21.9867 42.025 19.7267C42.0588 19.6442 42.117 19.5728 42.1936 19.5227C42.2702 19.4726 42.36 19.4454 42.4528 19.4446H45.6966C45.7555 19.4454 45.8137 19.4594 45.866 19.4859C45.9182 19.5131 45.9624 19.5514 45.9956 19.5978C46.067 19.6891 46.1053 19.7694 46.0309 19.9918L45.581 21.3379C44.4676 24.8409 41.3217 25.1649 37.7856 25.1649" fill="#DEDEDE"/>
<g id="Group 15">
<mask id="mask0_1042_372" style="mask-type:luminance" maskUnits="userSpaceOnUse" x="0" y="8" width="19" height="18">
<path id="Clip 14" fill-rule="evenodd" clip-rule="evenodd" d="M0.399902 8.17285H18.94V25.1651H0.399902V8.17285Z" fill="white"/>
</mask>
<g mask="url(#mask0_1042_372)">
<path id="Fill 13" fill-rule="evenodd" clip-rule="evenodd" d="M6.58588 25.1651C3.98495 25.1651 2.30967 24.5554 1.41348 23.7652C0.580622 23.0391 0.11375 21.9773 0.590931 20.1215C0.898742 18.9242 2.29199 14.6391 2.6948 13.4454C3.3303 11.6464 4.65286 10.142 6.40031 9.23178C8.14261 8.36652 9.62128 8.17285 12.7075 8.17285C15.7436 8.17285 17.6074 8.91145 18.3357 9.87834C19.1119 10.9365 19.1914 11.7834 18.2731 14.4697C18.2319 14.5633 18.1605 14.6421 18.0691 14.6951C17.9778 14.7474 17.8718 14.7709 17.765 14.7614H14.396C14.3195 14.7606 14.2443 14.7429 14.1773 14.7091C14.1096 14.6752 14.0514 14.6266 14.008 14.5669C13.9719 14.5043 13.9498 14.4359 13.9439 14.3644C13.938 14.293 13.9476 14.2216 13.9726 14.1546C14.0764 13.8202 14.396 12.8467 14.547 12.4108C14.7694 11.751 14.4579 11.427 14.0197 11.1412C13.5816 10.8555 12.9858 10.7554 11.9983 10.7554C10.0027 10.7554 8.77443 11.5109 8.04541 12.3438C7.31638 13.1774 6.62344 14.5043 5.79868 17.1274C5.04167 19.5184 4.67053 20.6135 4.70588 21.2571C4.72355 21.4949 5.11016 22.8403 7.22507 22.8403C8.76486 22.8403 9.77224 22.5546 10.097 22.3705C10.4725 22.1584 11.6169 21.6827 12.4726 18.8535C12.5131 18.7482 12.586 18.6583 12.6832 18.595C12.7797 18.5317 12.8945 18.4993 13.0116 18.5022H16.3055C16.3799 18.5015 16.4535 18.5192 16.5198 18.5523C16.5853 18.5847 16.6413 18.634 16.6825 18.6929C16.776 18.8034 16.818 18.905 16.7341 19.1841C16.6501 19.4632 16.3637 20.3668 16.3637 20.3668C14.9535 24.7623 11.0197 25.1651 6.58956 25.1651" fill="#DEDEDE"/>
</g>
</g>
<path id="Fill 16" fill-rule="evenodd" clip-rule="evenodd" d="M140.353 12.1039C141.263 11.8145 142.793 11.5612 145.205 11.7748C145.507 11.7991 145.804 11.858 146.091 11.95C146.091 11.95 146.477 12.087 146.345 12.5848C146.345 12.5848 146.161 13.2085 146.037 13.4847C145.932 13.7144 145.759 13.889 145.546 13.8286C145.111 13.7284 144.664 13.6828 144.216 13.6923C143.784 13.6909 143.354 13.7439 142.937 13.8492C142.664 13.9177 142.413 14.051 142.207 14.2358C142.001 14.4206 141.846 14.6511 141.758 14.9074L138.657 24.5306C138.607 24.68 138.508 24.8089 138.375 24.9017C138.244 24.9937 138.083 25.0446 137.919 25.0453H134.866C134.766 25.0431 134.671 25.0041 134.601 24.937C134.532 24.8693 134.492 24.7795 134.49 24.6845C134.49 24.6491 134.5 24.6138 134.516 24.5821L137.572 15.1246C138.126 13.4648 139.096 12.5119 140.327 12.0951L140.353 12.1039Z" fill="#DEDEDE"/>
<path id="Fill 18" fill-rule="evenodd" clip-rule="evenodd" d="M130.259 18.5417C130.262 18.5248 130.262 18.5071 130.259 18.4901C130.26 18.4504 130.247 18.4121 130.223 18.3804C130.198 18.3488 130.163 18.3259 130.124 18.3149C130.124 18.3149 126.691 18.0498 125.59 18.9091C124.418 19.823 124.243 21.7906 124.281 21.9534C124.281 21.9534 124.072 23.3098 126.608 22.9814C126.818 22.96 127.026 22.924 127.231 22.8724H127.241C128.307 22.6434 129.058 22.1802 129.409 21.1802L130.259 18.5417ZM124.8 16.5614C127.494 16.0371 130.816 16.3714 130.816 16.3714C130.857 16.3707 130.897 16.3582 130.93 16.3346C130.963 16.3118 130.988 16.2794 131.002 16.2426L131.271 15.3862C131.756 13.9045 130.045 13.7735 130.045 13.7735C129.735 13.7462 129.422 13.7212 129.138 13.7101C127.522 13.6645 125.908 13.758 124.31 13.9892L123.731 14.0945L123.626 14.1144C123.368 14.177 123.31 14.0091 123.357 13.7867C123.459 13.3544 123.653 12.948 123.93 12.593C124.15 12.3176 124.351 12.079 125.038 11.959C127.462 11.5761 129.93 11.5046 132.373 11.7469C132.373 11.7469 136.468 12.0775 135.31 15.596L132.411 24.5557C132.361 24.7059 132.263 24.8377 132.129 24.9313C131.996 25.0248 131.835 25.0756 131.67 25.0763H128.916C128.798 25.0763 128.684 25.0321 128.601 24.9519C128.519 24.8731 128.472 24.7648 128.472 24.6529C128.469 24.6257 128.469 24.5977 128.472 24.5697L128.536 24.2759V24.2648C128.535 24.2442 128.526 24.2243 128.512 24.2096C128.496 24.1956 128.475 24.186 128.455 24.1846C128.438 24.1875 128.424 24.1927 128.41 24.1993C127.265 24.703 126.041 25.0248 124.787 25.1522C120.395 25.5756 120.008 23.7913 119.953 23.0947C119.865 21.6911 120.58 18.9135 122.263 17.5644C122.915 17.0408 123.777 16.7779 124.798 16.5821L124.8 16.5614Z" fill="#DEDEDE"/>
<g id="Group 22">
<mask id="mask1_1042_372" style="mask-type:luminance" maskUnits="userSpaceOnUse" x="163" y="11" width="16" height="15">
<path id="Clip 21" fill-rule="evenodd" clip-rule="evenodd" d="M163.023 11.6064H178.6V25.2125H163.023V11.6064Z" fill="white"/>
</mask>
<g mask="url(#mask1_1042_372)">
<path id="Fill 20" fill-rule="evenodd" clip-rule="evenodd" d="M173.333 18.5374C173.343 18.522 173.348 18.5043 173.348 18.4866C173.348 18.4454 173.331 18.4063 173.304 18.3747C173.278 18.343 173.241 18.3209 173.2 18.3106C173.2 18.3106 169.76 18.0462 168.663 18.9056C167.492 19.8195 167.316 21.7871 167.353 21.9491C167.353 21.9491 167.145 23.3063 169.673 22.9779C169.887 22.9558 170.099 22.919 170.309 22.8689C171.375 22.6399 172.124 22.1767 172.474 21.1766L173.333 18.5374ZM167.892 16.5614C170.587 16.0371 173.909 16.3714 173.909 16.3714C173.949 16.3692 173.988 16.356 174.02 16.3332C174.054 16.3103 174.078 16.2787 174.092 16.2426L174.361 15.3862C174.847 13.9045 173.149 13.7735 173.149 13.7735C172.823 13.7462 172.532 13.7204 172.242 13.7101C170.622 13.6637 169.002 13.7573 167.4 13.9892L166.829 14.0945L166.719 14.1144C166.459 14.177 166.4 14.0091 166.442 13.786C166.55 13.3552 166.749 12.9494 167.026 12.593C167.235 12.3176 167.43 12.079 168.135 11.959C170.554 11.5761 173.014 11.5046 175.451 11.7469C175.451 11.7469 179.543 12.0775 178.398 15.5953L175.5 24.5513C175.448 24.7008 175.35 24.8311 175.218 24.9246C175.085 25.0174 174.925 25.069 174.76 25.0719H172.008C171.891 25.0719 171.779 25.0277 171.695 24.9482C171.612 24.8687 171.566 24.7612 171.565 24.6492C171.562 24.6212 171.562 24.5933 171.565 24.566L171.626 24.2722V24.2604C171.626 24.2398 171.616 24.2206 171.601 24.2059C171.586 24.1912 171.567 24.1824 171.545 24.1809C171.528 24.1794 171.512 24.1846 171.499 24.1956C170.347 24.6978 169.119 25.0204 167.86 25.1485C163.468 25.5712 163.082 23.7876 163.031 23.091C162.939 21.6875 163.659 18.9098 165.342 17.5607C166.007 17.0371 166.867 16.7735 167.886 16.5784L167.892 16.5614Z" fill="#DEDEDE"/>
</g>
</g>
<path id="Fill 23" fill-rule="evenodd" clip-rule="evenodd" d="M147.506 24.5413C147.455 24.6908 147.355 24.8211 147.221 24.9132C147.089 25.006 146.928 25.0553 146.763 25.0553H143.739C143.64 25.0538 143.545 25.0163 143.475 24.9493C143.405 24.8823 143.366 24.7917 143.364 24.6967C143.364 24.6613 143.37 24.626 143.381 24.5921L147.329 12.3754C147.382 12.2251 147.483 12.0948 147.617 12.0028C147.752 11.9107 147.914 11.8606 148.079 11.8614H151.107C151.156 11.8606 151.204 11.8695 151.25 11.8871C151.295 11.9048 151.336 11.9313 151.372 11.9637C151.407 11.9969 151.435 12.0366 151.454 12.0793C151.473 12.1228 151.482 12.1692 151.482 12.2163C151.479 12.2524 151.473 12.2877 151.465 12.3231L147.506 24.5413Z" fill="#DEDEDE"/>
<path id="Fill 25" fill-rule="evenodd" clip-rule="evenodd" d="M150.278 10.5943C150.6 10.5914 150.923 10.5656 151.241 10.517C151.468 10.4765 151.682 10.3852 151.864 10.2519C152.048 10.1179 152.195 9.9441 152.294 9.74602C152.403 9.5251 152.498 9.29829 152.576 9.06633L152.882 8.09355C152.94 7.91166 152.985 7.72609 153.017 7.53905C153.042 7.40208 153.01 7.26069 152.926 7.14655C152.843 7.03315 152.716 6.95509 152.572 6.93005H152.557H152.545C152.303 6.88661 152.059 6.86378 151.813 6.8623H150.87C150.547 6.86304 150.225 6.89102 149.907 6.94552C149.68 6.98381 149.467 7.07218 149.284 7.20473C149.101 7.33728 148.953 7.50959 148.853 7.70768C148.743 7.92639 148.652 8.15467 148.584 8.38885L148.265 9.36604C148.205 9.54645 148.163 9.73129 148.138 9.91833C148.11 10.0501 148.138 10.1879 148.215 10.3005C148.291 10.4139 148.412 10.4935 148.551 10.5222H148.598C148.839 10.5671 149.085 10.5877 149.331 10.584L150.278 10.5943Z" fill="#DEDEDE"/>
<path id="Fill 27" fill-rule="evenodd" clip-rule="evenodd" d="M158.038 6.91677H156.109C155.944 6.9153 155.782 6.9639 155.648 7.05668C155.514 7.14947 155.414 7.28055 155.366 7.43151L149.824 24.5924C149.809 24.6255 149.8 24.6609 149.798 24.697C149.799 24.7927 149.841 24.8833 149.913 24.9503C149.983 25.0173 150.078 25.0548 150.179 25.0556H153.182C153.347 25.0556 153.507 25.0055 153.64 24.9135C153.774 24.8207 153.873 24.6903 153.925 24.5416L159.181 8.31002C159.559 7.12001 158.556 6.93591 158.03 6.91309" fill="#DEDEDE"/>
<path id="Fill 29" fill-rule="evenodd" clip-rule="evenodd" d="M164.576 6.91677H162.645C162.48 6.9175 162.318 6.96905 162.185 7.06331C162.053 7.15757 161.953 7.28938 161.905 7.44034L156.342 24.602V24.7065C156.341 24.8 156.379 24.8906 156.448 24.9584C156.517 25.0246 156.611 25.0637 156.709 25.0651H159.732C159.897 25.0637 160.059 25.0136 160.193 24.9216C160.327 24.8295 160.429 24.6999 160.483 24.5504L165.73 8.31002C166.111 7.12001 165.102 6.93591 164.581 6.91309" fill="#DEDEDE"/>
<path id="Fill 31" fill-rule="evenodd" clip-rule="evenodd" d="M110.731 11.5567C110.299 12.3144 109.662 12.947 108.885 13.3881C108.108 13.8292 107.221 14.0619 106.317 14.0619H97.1887C97.0907 14.0612 96.9965 14.0243 96.9273 13.9573C96.858 13.8911 96.8197 13.8012 96.8197 13.7077C96.8197 13.6723 96.8345 13.6333 96.8345 13.6024L96.903 13.3903L98.8382 7.39535C99.065 6.59194 99.5628 5.88206 100.254 5.37542C100.946 4.86952 101.794 4.59558 102.666 4.59558H110.66C111.037 4.59558 111.403 4.72003 111.695 4.94758C111.986 5.17512 112.187 5.49251 112.262 5.84524C112.262 5.84524 112.818 7.94543 110.725 11.5464L110.731 11.5567ZM106.406 26.5202C105.908 27.3958 105.171 28.1263 104.273 28.6337C103.375 29.1425 102.35 29.4091 101.306 29.4061H92.2115C92.1129 29.4054 92.0179 29.3678 91.9479 29.3023C91.8772 29.236 91.8375 29.1462 91.836 29.0512C91.8345 29.0144 91.8426 28.9783 91.8603 28.9459L95.177 18.7218C95.202 18.6497 95.2514 18.5863 95.3169 18.5414C95.3817 18.4972 95.4605 18.4729 95.5408 18.4729H106.353C106.791 18.4737 107.214 18.618 107.553 18.8816C107.891 19.1452 108.125 19.5127 108.213 19.9207C108.213 19.9207 108.836 22.3471 106.418 26.5202H106.406ZM115.485 0.1875H102.817C99.5083 0.1875 97.2248 0.622708 95.7211 1.11167L95.6526 1.12419C92.8926 2.05278 90.7129 4.19274 89.4868 7.91961L81.5743 32.3178C81.5397 32.4275 81.5198 32.5401 81.5161 32.6543C81.5161 32.9614 81.6442 33.2559 81.8718 33.4732C82.0986 33.6904 82.4071 33.8119 82.7289 33.8119H105.566C117.204 33.3737 117.464 21.118 117.464 21.118C117.459 20.0649 117.115 19.0384 116.48 18.1776C115.844 17.3174 114.947 16.6635 113.91 16.3042V16.2813C113.876 16.2725 113.845 16.2534 113.823 16.2261C113.802 16.1996 113.791 16.1657 113.791 16.1319C113.794 16.0972 113.809 16.0634 113.833 16.0361C113.858 16.0096 113.89 15.9905 113.926 15.9831C115.452 15.5236 116.769 14.9463 117.834 13.8675C120.918 10.6347 121.018 5.48658 121.018 5.48658C121.018 4.08449 120.433 2.7391 119.394 1.74718C118.354 0.755995 116.945 0.198546 115.475 0.198546L115.485 0.1875Z" fill="#DEDEDE"/>
</g>
</svg>
