<svg width="152" height="34" viewBox="0 0 152 34" fill="none" xmlns="http://www.w3.org/2000/svg">
<g id="Frame 429">
<g id="Logo_Fideuram_Direct_D_Header">
<g id="c">
<path id="d" d="M1.12744 23.6494V33.7758H14.044V23.6494H1.12744Z" fill="#DEDEDE"/>
<path id="Tracciato 9409" d="M13.9654 1.01758H1.12744V11.0932H24.3721L13.9654 1.01758Z" fill="#DEDEDE"/>
<path id="Tracciato 9410" d="M24.3721 11.0928H14.0439V33.75L24.3721 23.6743V11.0928Z" fill="#DEDEDE"/>
</g>
<path id="Tracciato 9411" d="M36.6289 16.4383H39.0062V9.17586H44.3155V7.00126H39.0062V3.34648H44.5004V1.17188H36.6289V16.4383Z" fill="#DEDEDE"/>
<path id="Tracciato 9412" d="M66.0547 3.14065C65.2831 2.45034 64.3623 1.93506 63.3593 1.6322C62.1392 1.30022 60.8751 1.1451 59.6081 1.17191H56.3076V16.4383H59.5834C60.8322 16.4864 62.0808 16.3395 63.2814 16.0034C64.2713 15.6899 65.1808 15.1756 65.9492 14.495C66.7809 13.7849 67.4397 12.9053 67.8782 11.9192C68.3167 10.9332 68.524 9.86532 68.4852 8.79244C68.5333 7.73543 68.3406 6.68111 67.9205 5.70434C67.5005 4.72757 66.8635 3.85229 66.0547 3.14065ZM66.1079 8.79462C66.1429 9.91825 65.8057 11.0233 65.1456 11.9481C64.4855 12.8729 63.5371 13.569 62.4391 13.9347C61.5716 14.1723 60.6726 14.2845 59.7713 14.2674H58.6886V3.34506H59.7713C61.8054 3.34506 63.3376 3.80535 64.3678 4.72594C64.9415 5.24375 65.3939 5.87457 65.6946 6.5759C65.9953 7.27724 66.1372 8.0328 66.1109 8.79172L66.1079 8.79462Z" fill="#DEDEDE"/>
<path id="Rettangolo 7129" d="M51.5003 1.17188H49.123V16.4383H51.5003V1.17188Z" fill="#DEDEDE"/>
<path id="Tracciato 9413" d="M98.3599 1.17188H95.9826V10.3777C96.07 11.3836 95.8397 12.3914 95.3222 13.2677C95.1401 13.4824 94.9367 13.6793 94.715 13.8556C94.348 14.1359 93.9272 14.3431 93.4771 14.4654C93.027 14.5876 92.5564 14.6224 92.0923 14.5677C91.6282 14.5131 91.1799 14.3701 90.7732 14.147C90.3664 13.9239 90.0093 13.6251 89.7224 13.2677C89.2082 12.3902 88.9781 11.3833 89.062 10.3777V1.17188H86.6847V11.017C86.6543 11.7453 86.7767 12.4721 87.0445 13.1533C87.3123 13.8346 87.7199 14.4562 88.2429 14.9806L88.3222 15.0574C88.8857 15.5935 89.5528 16.0168 90.2853 16.3031C91.0179 16.5894 91.8016 16.7331 92.5915 16.726C93.3815 16.7188 94.1623 16.561 94.8892 16.2615C95.6161 15.962 96.2749 15.5268 96.8279 14.9806C97.347 14.4536 97.7522 13.8315 98.0198 13.1509C98.2873 12.4703 98.4118 11.7448 98.3861 11.017L98.3599 1.17188Z" fill="#DEDEDE"/>
<path id="Tracciato 9414" d="M108.477 9.94182C109.479 9.75821 110.379 9.23179 111.013 8.45874C111.661 7.66808 111.998 6.68038 111.964 5.67162C111.984 5.03776 111.857 4.40761 111.591 3.82772C111.326 3.24783 110.93 2.73301 110.432 2.32128C109.506 1.55437 108.001 1.19629 105.915 1.19629H103.114V16.4627H105.492V10.1977H105.914L110.457 16.4374H113.363L108.476 9.94182H108.477ZM105.518 8.17749V3.32088H106.364C108.556 3.32088 109.666 4.11388 109.666 5.6738C109.666 7.33592 108.53 8.17966 106.284 8.17966L105.518 8.17749Z" fill="#DEDEDE"/>
<path id="Tracciato 9415" d="M147.888 0.0712891L142.288 11.9366L136.873 0.0712891L133.545 16.4888H136.002L137.718 7.2569L142.236 17.2043L146.911 7.28227L148.443 16.4881H150.873L147.888 0.0712891Z" fill="#DEDEDE"/>
<path id="Tracciato 9416" d="M123.586 0.199219L115.793 16.4363H118.356L120.099 12.7286H126.861L128.522 16.4363H131.143L123.586 0.199219ZM121.103 10.5561L123.559 5.36462L125.91 10.5561H121.103Z" fill="#DEDEDE"/>
<path id="Tracciato 9417" d="M73.1602 16.4383H81.877V14.2637H75.5374V9.17514H81.6921V7.00054H75.5374V3.34648H81.877V1.17188H73.1602V16.4383Z" fill="#DEDEDE"/>
<path id="e" d="M53.2967 33.6993H55.6739V18.4046H53.2967V33.6993ZM46.376 20.3763C45.6044 19.686 44.6836 19.1707 43.6806 18.8678C42.4605 18.5358 41.1964 18.3807 39.9294 18.4075H36.6289V33.6732H39.9047C41.1535 33.7213 42.4021 33.5744 43.6027 33.2383C44.5972 32.9349 45.5089 32.4194 46.2705 31.7299C47.0628 30.9996 47.6955 30.1227 48.131 29.1512C48.5666 28.1797 48.7961 27.1334 48.8059 26.0743C48.8158 25.0153 48.6058 23.9652 48.1884 22.9862C47.7709 22.0073 47.1546 21.1202 46.376 20.3763ZM42.7311 31.1935C41.8637 31.4311 40.9647 31.5433 40.0634 31.5262H38.98V20.5807H40.0626C42.0967 20.5807 43.6289 21.041 44.6592 21.9615C45.2329 22.4794 45.6853 23.1102 45.986 23.8115C46.2866 24.5129 46.4286 25.2684 46.4022 26.0273C46.4521 27.157 46.1211 28.2718 45.4594 29.2035C44.7976 30.1353 43.8408 30.8334 42.7334 31.1927L42.7311 31.1935ZM75.0626 33.6993H83.7794V31.5247H77.4398V26.4108H83.5683V24.2362H77.4398V20.5807H83.7794V18.4061H75.0626V33.6993ZM102.904 18.4046V20.5792H106.522V33.6732H108.9V20.5807H112.518V18.4061L102.904 18.4046ZM89.5904 20.9105C88.294 22.3468 87.5888 24.1947 87.6092 26.102C87.5921 27.1353 87.7942 28.161 88.2031 29.1156C88.612 30.0702 89.219 30.9333 89.9865 31.6516C90.7401 32.392 91.6418 32.9757 92.6365 33.3671C93.6311 33.7584 94.6978 33.9492 95.7713 33.9277C97.276 33.9306 98.7539 33.5421 100.05 32.8027V30.0163C99.6968 30.3093 99.3264 30.5825 98.9407 30.8347C98.615 31.0438 98.2701 31.2236 97.9104 31.3718C97.2358 31.6533 96.5045 31.7843 95.7705 31.7552C95.0057 31.7732 94.2455 31.6344 93.5399 31.348C92.8343 31.0615 92.1993 30.6339 91.6764 30.0931C91.1252 29.5626 90.6928 28.9277 90.4064 28.2282C90.1201 27.5286 89.9858 26.7794 90.012 26.0273C89.994 25.2685 90.1319 24.5139 90.4177 23.8071C90.7034 23.1003 91.1312 22.4555 91.6764 21.9101C92.1979 21.3659 92.8321 20.9343 93.5375 20.6435C94.243 20.3528 95.0039 20.2093 95.7705 20.2226C97.3557 20.2665 98.8727 20.8558 100.05 21.8847V19.2252C98.8084 18.5135 97.3977 18.1259 95.9555 18.1002C94.7446 18.0769 93.5438 18.3176 92.4422 18.8046C91.3405 19.2916 90.3661 20.0123 89.5912 20.9134L89.5904 20.9105ZM66.3188 27.1755C67.3206 26.9919 68.2207 26.4655 68.8548 25.6924C69.4915 24.896 69.8271 23.9123 69.8057 22.9053C69.8258 22.2715 69.6986 21.6413 69.4334 21.0614C69.1683 20.4815 68.772 19.9667 68.2737 19.555C67.349 18.7881 65.8433 18.43 63.7566 18.43H60.9563V33.6732H63.3335V27.4336H63.7558L68.273 33.6732H71.1789L66.3188 27.1777V27.1755ZM63.3605 25.4358V20.5792H64.2058C66.3981 20.5792 67.4816 21.3722 67.4816 22.9321C67.4816 24.5943 66.3457 25.438 64.1003 25.438L63.3605 25.4358Z" fill="#DEDEDE"/>
</g>
</g>
</svg>
