<svg width="175" height="60" viewBox="0 0 175 60" fill="none" xmlns="http://www.w3.org/2000/svg">
<g id="Colored=False">
<g id="logoFreeToX">
<path fill-rule="evenodd" clip-rule="evenodd" d="M114.074 29.9864C114.074 25.3164 110.333 21.564 105.657 21.564C100.98 21.564 97.255 25.3164 97.255 29.9864C97.255 34.6564 100.98 38.376 105.657 38.376C110.333 38.376 114.074 34.6564 114.074 29.9864ZM112.433 29.9864C112.433 33.706 109.381 36.7374 105.657 36.7374C101.932 36.7374 98.8959 33.706 98.8959 29.9864C98.8959 26.2668 101.932 23.1862 105.657 23.1862C109.365 23.1862 112.433 26.2668 112.433 29.9864Z" fill="#DEDEDE"/>
<path d="M26.467 21.794C26.2044 21.794 26.0239 22.007 26.0239 22.2364V37.7048C26.0239 37.9342 26.2044 38.1472 26.467 38.1472H28.6165C28.8463 38.1472 29.0596 37.9342 29.0596 37.7048V31.7894H34.8355C35.0652 31.7894 35.2785 31.5764 35.2785 31.347V29.4299C35.2785 29.2004 35.0652 28.9874 34.8355 28.9874H29.0596V24.596H35.9841C36.2466 24.596 36.4272 24.383 36.4272 24.1536V22.2364C36.4272 22.007 36.2466 21.794 35.9841 21.794H26.467Z" fill="#DEDEDE"/>
<path fill-rule="evenodd" clip-rule="evenodd" d="M40.6608 21.794C40.3983 21.794 40.2178 22.007 40.2178 22.2364V37.7048C40.2178 37.9342 40.3983 38.1472 40.6608 38.1472H42.8104C43.0401 38.1472 43.2534 37.9342 43.2534 37.7048V31.7239H45.846L48.9473 37.9178C48.9966 38.0161 49.1114 38.1308 49.3247 38.1308H51.7861C52.1799 38.1308 52.344 37.7539 52.1799 37.459L48.9801 31.5273C51.0148 30.708 52.4424 28.9547 52.4424 26.8081C52.4424 24.0389 50.1452 21.794 47.3393 21.794H40.6608ZM49.4068 26.8736C49.4068 28.1681 48.3402 29.2496 47.0931 29.2496V29.266H43.2862V24.6124H47.0931C48.3238 24.6124 49.4068 25.6283 49.4068 26.8736Z" fill="#DEDEDE"/>
<path d="M56.7903 22.2364C56.7903 22.007 56.9708 21.794 57.2334 21.794H66.7505C67.0131 21.794 67.1936 22.007 67.1936 22.2364V24.1536C67.1936 24.383 67.0131 24.596 66.7505 24.596H59.826V28.4303H65.602C65.8317 28.4303 66.045 28.6433 66.045 28.8727V30.8063C66.045 31.0684 65.8317 31.2487 65.602 31.2487H59.826V35.3288H66.7505C67.0131 35.3288 67.1936 35.5418 67.1936 35.7712V37.7048C67.1936 37.9342 67.0131 38.1472 66.7505 38.1472H57.2334C56.9708 38.1472 56.7903 37.9342 56.7903 37.7048V22.2364Z" fill="#DEDEDE"/>
<path d="M71.9855 21.794C71.723 21.794 71.5424 22.007 71.5424 22.2364V37.7048C71.5424 37.9342 71.723 38.1472 71.9855 38.1472H81.5027C81.7652 38.1472 81.9457 37.9342 81.9457 37.7048V35.7712C81.9457 35.5418 81.7652 35.3288 81.5027 35.3288H74.5781V31.2487H80.354C80.5838 31.2487 80.797 31.0684 80.797 30.8063V28.8727C80.797 28.6433 80.5838 28.4303 80.354 28.4303H74.5781V24.596H81.5027C81.7652 24.596 81.9457 24.383 81.9457 24.1536V22.2364C81.9457 22.007 81.7652 21.794 81.5027 21.794H71.9855Z" fill="#DEDEDE"/>
<path d="M88.8698 23.3664H84.8007C84.5379 23.3664 84.3573 23.1534 84.3573 22.924V22.2522C84.3573 22.0227 84.5379 21.8098 84.8007 21.8098H94.7115C94.9743 21.8098 95.1543 22.0227 95.1543 22.2522V22.924C95.1543 23.1534 94.9743 23.3664 94.7115 23.3664H90.6424V37.7041C90.6424 37.9335 90.4286 38.1466 90.199 38.1466H89.3132C89.0831 38.1466 88.8698 37.9335 88.8698 37.7041V23.3664Z" fill="#DEDEDE"/>
<path d="M128.793 24.3162C128.99 24.5292 129.22 24.7586 129.662 25.1682C130.336 25.7418 131.189 26.0531 132.075 26.0531C132.961 26.0531 133.814 25.7418 134.519 25.1355C134.93 24.7586 135.16 24.5128 135.373 24.3162C135.472 24.2179 135.57 24.1195 135.685 24.0048L146.334 13.3867H144.152L134.618 22.9069C134.503 23.0217 134.405 23.12 134.29 23.2347C134.093 23.4313 133.88 23.6444 133.519 23.9884C133.125 24.3162 132.616 24.5128 132.091 24.5128C131.583 24.5128 131.057 24.3162 130.696 24.0212C130.302 23.6607 130.089 23.4477 129.892 23.2511C129.777 23.1364 129.679 23.0381 129.564 22.9234L124.838 18.2042H122.656L128.481 24.0212C128.596 24.1195 128.695 24.2179 128.793 24.3162Z" fill="#DEDEDE"/>
<path d="M135.406 35.6061C135.192 35.393 134.963 35.1636 134.536 34.754C133.863 34.1805 133.01 33.8691 132.124 33.8691C131.238 33.8691 130.384 34.1805 129.679 34.7868C129.269 35.1636 129.039 35.393 128.842 35.6061C128.744 35.7044 128.646 35.8027 128.53 35.9174L117.898 46.5355H120.047L129.581 37.0152C129.696 36.9006 129.81 36.8022 129.909 36.6875C130.106 36.4909 130.319 36.2779 130.68 35.9338C131.074 35.6061 131.583 35.4094 132.091 35.4094C132.6 35.4094 133.125 35.6061 133.486 35.901C133.88 36.2615 134.093 36.4745 134.29 36.6711C134.405 36.7858 134.504 36.8842 134.618 36.9989L139.344 41.718H141.543L135.717 35.901C135.603 35.8027 135.504 35.7044 135.406 35.6061Z" fill="#DEDEDE"/>
<path d="M126.348 33.1976C126.561 32.9846 126.807 32.7388 127.25 32.2636C127.857 31.5427 128.169 30.5923 128.104 29.6582C128.054 28.7406 127.644 27.8558 126.955 27.1676L115.436 15.6646V17.844L125.872 28.2655C126.298 28.6751 126.544 29.1994 126.578 29.7565C126.61 30.3137 126.43 30.8708 126.102 31.2641C125.724 31.6737 125.478 31.9031 125.281 32.1162C125.166 32.2308 125.051 32.3456 124.937 32.4602L120.26 37.1302V39.3096L126.036 33.5417C126.134 33.4106 126.233 33.2959 126.348 33.1976Z" fill="#DEDEDE"/>
<path d="M125.298 29.8053C125.282 29.4121 125.101 29.0516 124.806 28.8222L115.42 19.4494V21.6287L123.673 29.8709L120.228 33.312V35.4913L124.855 30.8704C125.167 30.6082 125.314 30.215 125.298 29.8053Z" fill="#DEDEDE"/>
<path d="M135.553 41.7345H137.736L133.092 37.0973C132.83 36.8351 132.485 36.6876 132.108 36.6876C132.108 36.6876 132.108 36.6876 132.091 36.6876C131.73 36.6876 131.369 36.8351 131.123 37.0973L121.655 46.552H123.837L132.091 38.3098L135.553 41.7345Z" fill="#DEDEDE"/>
<path d="M128.645 18.1878H126.463L131.106 22.825C131.369 23.0872 131.714 23.2347 132.075 23.2347C132.436 23.2183 132.797 23.0872 133.059 22.825L142.528 13.3867H140.345L132.091 21.6288L128.645 18.1878Z" fill="#DEDEDE"/>
<path d="M148.976 41.8L138.539 31.3785C138.113 30.9689 137.867 30.4445 137.834 29.8874C137.801 29.3302 137.982 28.7731 138.31 28.3799C138.688 27.9702 138.917 27.7408 139.13 27.5278C139.245 27.4131 139.36 27.2984 139.475 27.1837L144.152 22.5137V20.3508L138.376 26.1186C138.261 26.2333 138.162 26.348 138.048 26.4464C137.834 26.6593 137.588 26.9051 137.145 27.3639C136.538 28.0849 136.226 29.0353 136.292 29.9693C136.341 30.8869 136.751 31.7718 137.44 32.46L148.96 43.9629V41.8H148.976Z" fill="#DEDEDE"/>
<path d="M144.152 26.3319V24.1526L139.524 28.7734C139.229 29.0356 139.081 29.4289 139.098 29.8385C139.114 30.2318 139.295 30.5923 139.59 30.8217L148.976 40.1944V38.0151L140.722 29.7566L144.152 26.3319Z" fill="#DEDEDE"/>
</g>
</g>
</svg>
