<svg width="150" height="37" viewBox="0 0 150 37" fill="none" xmlns="http://www.w3.org/2000/svg">
<g id="logoreplay" clip-path="url(#clip0_1071_666)">
<g id="Group">
<g id="Group_2">
<g id="Clip path group">
<mask id="mask0_1071_666" style="mask-type:luminance" maskUnits="userSpaceOnUse" x="-24" y="5" width="221" height="77">
<g id="SVGID_2_">
<path id="Vector" d="M-23.6821 81.2436V5.17188H196.144V81.2436" fill="white"/>
</g>
</mask>
<g mask="url(#mask0_1071_666)">
<g id="Group_3">
<path id="Vector_2" fill-rule="evenodd" clip-rule="evenodd" d="M9.76851 27.634V8.58611C9.82922 7.68763 9.22213 6.84904 8.37221 6.60945C7.46158 6.30995 6.85449 6.19016 6.85449 5.77086C6.85449 5.53127 7.03662 5.35157 7.27945 5.29167H7.34016H19.7247C22.1531 5.29167 27.374 7.14854 27.1919 12.6592C27.1919 14.6958 26.0384 16.6126 24.1565 17.571C23.1851 18.1699 22.2138 18.5293 21.8495 18.7689C21.7281 18.8288 21.6674 18.9486 21.7281 19.0684C21.7281 19.0684 21.7281 19.1283 21.7888 19.1283C22.2138 19.7273 27.5562 27.035 27.5562 27.035C28.3454 28.1132 29.3167 29.3112 30.8951 29.8503C31.9272 30.2096 32.4129 30.2695 32.4129 30.6289C32.4129 30.9883 32.2307 30.9883 31.9272 30.9284H26.0384C25.8563 30.9284 25.6742 30.8086 25.5528 30.6289C20.8782 24.3994 18.5106 21.2847 17.0536 19.4877C16.75 19.0684 14.6252 19.1882 14.4431 19.3679C14.3824 19.4278 14.3824 19.4877 14.3824 19.6075V27.8736C14.4431 28.7122 14.9895 29.431 15.7787 29.6706C16.6893 29.97 17.2964 30.0898 17.2964 30.5091C17.2964 30.7487 17.1143 30.9284 16.8714 30.9883H16.8107H7.34016C7.09733 30.9883 6.9152 30.8685 6.85449 30.6289V30.569C6.85449 30.1497 7.46158 30.0299 8.37221 29.7305C9.22213 29.3112 9.76851 28.5325 9.76851 27.634ZM22.1531 12.1801C22.2745 18.3496 15.2323 17.571 14.7466 17.5111C14.5038 17.4512 14.3217 17.2715 14.261 17.0319V7.80743C14.261 7.62773 14.5645 7.38813 14.868 7.32824C15.1716 7.20844 21.971 6.01046 22.1531 12.1801ZM57.9712 8.46632C57.9105 7.62773 57.3034 6.84904 56.5142 6.60945C55.6036 6.30995 54.9965 6.19016 54.9965 5.77086C54.9965 5.53127 55.1786 5.35157 55.4214 5.29167H55.4822H67.5632C69.8701 5.29167 74.8482 6.66935 74.8482 12.2999C74.8482 19.308 67.0775 19.7872 62.6458 19.1283C62.5244 19.1283 62.4029 19.1283 62.4029 19.4278V27.7538C62.4029 28.6523 63.01 29.3711 63.7992 29.6706C64.7099 29.97 65.317 30.0898 65.317 30.5091C65.317 30.7487 65.1348 30.9284 64.892 30.9883H64.8313H55.4822C55.2393 30.9883 54.9965 30.8685 54.9965 30.569V30.5091C54.9965 30.0898 55.6036 29.97 56.5142 29.6706C57.3641 29.431 57.9105 28.6523 57.9105 27.8137L57.9712 8.46632ZM70.0522 12.4196C69.9915 17.6908 64.892 17.5111 63.1314 17.2116C62.7672 17.1517 62.4029 17.0319 62.4029 16.8522V8.76581C62.4029 8.52622 62.4029 8.28662 62.4636 8.10692C62.6458 7.74753 63.01 7.50793 63.435 7.38813C65.7419 6.54955 70.1129 8.16682 70.0522 12.4196ZM119.166 27.9335C119.408 28.3528 119.773 29.3711 120.501 29.6706C121.412 30.0299 122.019 30.0898 122.019 30.5091C122.019 30.8086 121.837 30.8685 121.533 30.8685H112.366C112.063 30.8685 111.941 30.8086 111.941 30.569C111.941 30.1497 112.366 30.0299 113.398 29.7903C113.884 29.6706 114.552 29.5508 114.612 28.7721C114.612 28.7122 112.427 23.6807 112.184 23.2614C112.063 23.0218 111.82 22.6624 111.516 22.6624H103.442C102.956 22.6624 102.956 22.8421 102.774 23.1416C102.531 23.6208 100.467 28.6523 100.467 28.7122C100.224 29.431 101.135 29.6706 101.621 29.7903C102.653 30.0299 103.017 30.1497 103.017 30.5091C103.017 30.8685 102.835 30.8086 102.531 30.8086H95.4892C95.1856 30.8086 95.0035 30.6888 95.0035 30.4492C95.0035 30.0299 95.6106 29.97 96.5212 29.6107C97.3104 29.3112 97.8568 27.8736 97.8568 27.8736C99.071 25.0583 107.449 6.13026 107.752 5.47137C107.874 5.11197 108.724 5.17187 108.906 5.41147C109.331 6.30995 119.166 27.9335 119.166 27.9335ZM107.145 13.1983C107.388 12.779 107.631 12.779 107.752 13.1384C107.874 13.378 110.424 19.1882 110.848 20.0268C110.97 20.3263 110.666 20.3862 110.484 20.3862H104.413C104.353 20.3862 103.988 20.3263 104.11 20.0268C104.353 19.1882 107.085 13.3181 107.145 13.1983ZM74.8482 30.9284C74.6054 30.9284 74.4233 30.8086 74.3626 30.569V30.5091C74.3626 30.0898 74.9696 29.9101 75.8803 29.6107C76.7909 29.3711 77.398 28.5325 77.398 27.634V8.58611C77.398 7.68763 76.7909 6.84904 75.941 6.60945C75.0303 6.30995 74.4233 6.19016 74.4233 5.77086C74.4233 5.53127 74.6054 5.35157 74.8482 5.29167H74.9089H84.3795C84.6223 5.29167 84.8045 5.41147 84.8652 5.65106V5.71096C84.8652 6.13026 84.1974 6.30995 83.2867 6.54955C82.4368 6.78914 81.8297 7.56783 81.8297 8.46632V28.1132C81.8297 28.4726 82.3154 28.7721 82.6189 28.7721C82.6189 28.7721 88.6291 29.6706 92.0288 27.6939C93.4251 26.8553 93.9108 26.2563 94.8214 24.2796C95.1856 23.4411 95.8534 23.9203 95.732 24.2796C95.4892 24.9984 94.1536 29.3711 93.6679 30.6289C93.6072 30.8685 93.4858 30.8685 93.1822 30.9284H74.8482ZM36.2375 27.634V8.40642C36.2375 7.20844 35.1447 6.78914 34.4162 6.60945C33.4449 6.30995 32.7771 6.13026 32.7771 5.77086C32.7771 5.53127 32.9592 5.29167 33.2021 5.29167C33.2021 5.29167 33.2021 5.29167 33.2628 5.29167H51.2933C51.6575 5.29167 52.5681 5.17187 52.5681 5.83076C52.5681 6.30995 53.0538 10.1435 52.9931 10.2034C52.9324 10.443 52.5681 10.3831 52.5074 10.2633C51.961 9.3648 51.5361 8.46632 50.504 7.80743C49.7755 7.38813 48.9863 7.20844 48.1971 7.26834H41.2156C40.7906 7.26834 40.6692 7.32824 40.6692 7.74753V15.8339C40.6692 16.2532 40.8514 16.2532 41.2156 16.2532H46.9829C48.1971 16.2532 49.1684 15.5344 49.7755 13.1983C49.9577 12.5394 49.9577 12.1801 50.3219 12.1801C50.504 12.1801 50.7469 12.3597 50.7469 12.4795V21.105C50.7469 21.4644 50.504 21.704 50.2005 21.7639C49.8969 21.7639 49.8362 21.2248 49.7755 20.8654C49.3506 18.4694 48.1364 18.1699 47.1044 18.1699H41.0335C40.7906 18.1699 40.7299 18.2298 40.7299 18.4694V28.2929C40.7299 28.7122 41.0942 28.7721 41.3977 28.7721C41.3977 28.7721 48.9863 28.8919 51.5361 28.0533C53.0538 27.3944 53.4788 26.4959 54.4501 24.2796C54.7536 23.5609 55.4214 23.9802 55.3 24.3395C55.1179 25.0583 53.7823 29.2513 53.2359 30.569C53.1752 30.8086 53.0538 30.8086 52.7503 30.8685H33.8092C33.5663 30.8685 33.3842 30.7487 33.3235 30.5091V30.4492C33.3235 30.0299 33.9306 29.9101 34.8412 29.6107C35.6911 29.3112 36.2375 28.5325 36.2375 27.634ZM124.326 30.8685C124.083 30.8685 123.84 30.7487 123.84 30.5091V30.4492C123.84 30.0898 124.447 29.97 125.358 29.6107C125.783 29.431 126.876 29.1914 126.876 27.2147V20.5659C126.876 20.3862 126.815 20.1466 126.754 19.9669C125.661 17.8705 119.591 7.86733 119.591 7.86733C119.226 7.20844 118.619 6.72925 117.951 6.48965C116.798 6.19016 116.13 6.19016 116.13 5.65106C116.13 5.47137 116.373 5.29167 116.616 5.29167H125.722C126.026 5.29167 126.451 5.35157 126.451 5.77086C126.451 6.25005 126.086 6.19016 125.358 6.36985C124.872 6.42975 124.508 6.84904 124.508 7.38813C124.508 7.56783 124.569 7.68763 124.69 7.80743C124.69 7.80743 129.607 16.4329 129.79 16.7324C129.85 16.8522 130.032 16.9121 130.154 16.8522C130.215 16.8522 130.215 16.7923 130.275 16.7324C130.7 16.3131 135.739 7.86733 135.739 7.86733C136.103 7.08864 135.739 6.66935 135.132 6.42975C134.525 6.19016 134.1 6.07036 134.039 5.71096C134.039 5.23177 134.525 5.29167 134.828 5.29167H141.871C142.053 5.29167 142.296 5.41147 142.296 5.65106C142.296 6.07036 141.749 6.19016 140.717 6.48965C139.989 6.78914 139.321 7.26834 138.896 7.86733C138.896 7.86733 132.764 17.8106 131.55 19.9669C131.429 20.1466 131.368 20.3862 131.429 20.5659V27.2746C131.429 29.2513 132.461 29.4909 132.946 29.6706C133.857 30.0299 134.464 30.1497 134.464 30.5091C134.464 30.7487 134.282 30.9284 134.039 30.9284H133.978L124.326 30.8685Z" fill="#DEDEDE"/>
</g>
</g>
</g>
</g>
</g>
</g>
<defs>
<clipPath id="clip0_1071_666">
<rect width="148.797" height="35.6399" fill="white" transform="translate(0.601562 0.679688)"/>
</clipPath>
</defs>
</svg>
