<svg width="74" height="46" viewBox="0 0 74 46" fill="none" xmlns="http://www.w3.org/2000/svg">
<g id="ticketRestaurant-logo">
<path id="Vector" d="M28.1854 20.0576C26.8909 20.0576 26.0728 20.9008 25.8135 22.0186H30.423C30.2655 20.7875 29.4031 20.0576 28.1854 20.0576Z" fill="#DEDEDE"/>
<path id="Vector_2" d="M15.8686 20.5518C14.2207 20.5518 13.1797 21.6888 13.1797 23.279C13.1797 24.8693 14.238 26.0236 15.8686 26.0236C17.4992 26.0236 18.5939 24.9058 18.5939 23.279C18.5939 21.6523 17.4953 20.5518 15.8686 20.5518Z" fill="#DEDEDE"/>
<path id="Vector_3" d="M49.1334 17.9451C46.6578 17.9451 44.7314 18.9342 44.4164 21.4982C44.3933 21.4982 44.4318 21.4982 44.4164 21.4982C43.6309 9.87847 34.456 0.676758 22.6327 0.676758C18.1971 0.676782 13.862 1.99821 10.1806 4.47245C6.49916 6.94669 3.63828 10.4616 1.96295 14.5686H9.88551L9.47451 17.2364H3.26514V20.0578H8.89448L8.45082 22.6314H3.26514V24.2831C3.26514 25.2819 3.69727 25.7543 4.52122 25.7543H9.83559L9.40536 28.4221H3.51098C3.23653 28.4223 2.96264 28.3972 2.69279 28.3472C2.04655 28.2528 1.45849 27.9215 1.04297 27.4176C0.852691 27.1731 0.71652 26.8909 0.643481 26.5898C0.61083 26.4592 0.60892 26.4496 0.582031 26.3478C0.622364 26.6801 0.695348 27.1161 0.726078 27.2908C0.904696 28.2223 1.13324 29.0098 1.15245 29.0655C2.49612 33.802 5.3655 37.9626 9.31535 40.9017C13.2652 43.8408 18.0747 45.3941 22.9975 45.3205C27.9203 45.247 32.6813 43.5507 36.5416 40.4949C40.4019 37.4391 43.1457 33.1947 44.3472 28.4202H41.3472V22.9656C41.3472 21.4944 40.771 20.5533 39.3267 20.5533C37.8824 20.5533 37.3062 21.4944 37.3062 22.9656V28.4202H34.3062V22.2185C34.3062 19.2569 36.4631 17.9432 39.3267 17.9432C42.1904 17.9432 44.3492 19.2569 44.3492 22.2185V28.4182H47.3684V22.9637C47.3684 21.4925 47.7525 20.5514 49.193 20.5514C49.6029 20.5566 50.0084 20.6366 50.3895 20.7876L50.9657 18.1583C50.36 18.049 49.748 17.9778 49.1334 17.9451ZM21.6148 22.6698C21.6148 26.417 19.3984 28.6238 15.73 28.6238C12.3362 28.6238 10.043 26.3478 10.043 23.2883C10.043 20.0904 12.2191 17.9528 15.4765 17.9528C16.9669 17.9528 18.0654 18.5405 18.6147 19.1301V14.5686H21.6148V22.6698ZM29.1935 26.3574C30.0499 26.3371 30.8916 26.1299 31.6596 25.7505L31.4023 28.1244C30.4615 28.4734 29.463 28.6403 28.4599 28.6161C25.0027 28.6161 22.5751 26.5956 22.5751 23.1615C22.5751 20.1807 24.7531 17.9451 28.0873 17.9451C31.8536 17.9451 33.7377 20.3382 33.6571 24.0258H25.8901C26.1858 25.7102 27.7934 26.3574 29.1935 26.3574Z" fill="#DEDEDE"/>
<path id="Vector_4" d="M55.938 17.9453C52.6038 17.9453 50.4258 20.1809 50.4258 23.1617C50.4258 26.5958 52.8592 28.6163 56.3125 28.6163C57.315 28.6403 58.3128 28.4734 59.253 28.1246L59.5026 25.7526C58.7362 26.1306 57.8966 26.3371 57.0423 26.3576C55.6499 26.3576 54.0423 25.7104 53.7465 24.0241H61.5154C61.5884 20.3365 59.7043 17.9453 55.938 17.9453ZM53.6639 22.0247C53.9175 20.905 54.7376 20.058 56.0359 20.058C57.2536 20.058 58.1159 20.784 58.2734 22.019L53.6639 22.0247Z" fill="#DEDEDE"/>
<path id="Vector_5" d="M70.4141 14.5684V19.1202C69.8648 18.5306 68.7662 17.9429 67.2758 17.9429C64.0203 17.9448 61.8442 20.0806 61.8442 23.2784C61.8442 26.3379 64.149 28.6139 67.5331 28.6139C71.2015 28.6139 73.4179 26.4167 73.4179 22.6599V14.5684H70.4141ZM67.6676 26.023C66.0408 26.023 64.9787 24.8475 64.9787 23.2784C64.9787 21.7092 66.0197 20.5511 67.6676 20.5511C69.3155 20.5511 70.3949 21.6497 70.3949 23.2784C70.3949 24.9071 69.2963 26.023 67.6676 26.023Z" fill="#DEDEDE"/>
</g>
</svg>
