<svg width="139" height="44" viewBox="0 0 139 44" fill="none" xmlns="http://www.w3.org/2000/svg">
<g id="logoUTA 1" clip-path="url(#clip0_1194_1929)">
<path id="Vector" d="M111.401 20.2504C111.467 20.2065 111.509 20.1953 111.515 20.1729C112.041 18.3085 113.438 17.6231 115.208 17.4334C115.906 17.36 116.598 17.4518 117.288 17.5527C117.571 17.5935 117.644 17.7139 117.575 17.9944C117.426 18.5859 117.298 19.1836 117.182 19.7822C117.132 20.0403 117.026 20.1412 116.774 20.0362C116.727 20.0164 116.678 20.0007 116.628 19.9893C115.131 19.6588 114.291 20.284 114.251 21.8424C114.209 23.5232 114.224 25.2081 114.251 26.8879C114.251 27.2703 114.159 27.3856 113.774 27.3662C113.113 27.3336 112.448 27.3754 111.787 27.3499C111.466 27.3376 111.354 27.459 111.277 27.7578C110.382 31.1013 108.664 34.1673 106.279 36.6758C103.155 39.9864 99.3726 42.2016 94.8932 42.9625C86.0773 44.4577 78.9094 41.5877 73.5223 34.4453C71.6182 31.92 70.4983 29.0205 69.9282 25.9057C69.9721 25.9057 70.0241 25.8914 70.0302 25.9057C70.5473 26.9419 71.4366 27.3213 72.5361 27.3234C74.3036 27.3234 76.0711 27.3162 77.8396 27.3315C78.1363 27.3315 78.2547 27.2561 78.2924 26.9572C78.3801 26.2678 78.5035 25.5834 78.6116 24.9031C78.4076 24.8073 78.2169 24.846 78.0333 24.846C76.5892 24.846 75.144 24.846 73.6998 24.846C72.8472 24.846 72.4545 24.4707 72.4168 23.613C72.3964 23.155 72.43 22.6951 72.4015 22.2371C72.3801 21.9067 72.5147 21.8435 72.8094 21.8465C74.1526 21.8598 75.4948 21.8373 76.837 21.8618C77.2215 21.8689 77.3816 21.7598 77.4214 21.3723C77.4753 20.8466 77.5635 20.325 77.6856 19.8108C77.7631 19.4844 77.655 19.4467 77.3724 19.4487C75.8773 19.4589 74.3821 19.4416 72.8849 19.461C72.5239 19.4661 72.375 19.4049 72.3974 18.999C72.4316 18.3875 72.4316 17.7746 72.3974 17.1631C72.3801 16.8174 72.4994 16.7368 72.8278 16.7389C74.4759 16.7531 76.1251 16.7338 77.7733 16.7552C78.168 16.7552 78.3464 16.6777 78.375 16.2452C78.4228 15.7214 78.5063 15.2014 78.6249 14.6889C78.6973 14.338 78.6157 14.2218 78.2332 14.2258C76.0915 14.2432 73.9497 14.234 71.8079 14.234H71.2418C73.4224 8.10338 80.6596 0.830487 91.2318 1.05181C101.868 1.2772 110.225 9.24465 111.401 20.2504ZM86.989 18.5543C86.474 18.0943 85.9814 17.7924 85.4204 17.6486C83.5183 17.1621 81.7437 17.4446 80.3067 18.8225C78.9023 20.1708 78.5892 21.9067 79.0267 23.7547C79.5652 26.0312 81.4469 27.409 84.0344 27.5131C87.4072 27.6477 89.6132 25.7323 89.757 22.3779C89.8672 19.7853 89.7958 17.1856 89.8182 14.5879C89.8182 14.2819 89.6938 14.2258 89.4256 14.232C88.781 14.2472 88.1344 14.2585 87.4878 14.232C87.1043 14.2146 86.9646 14.3033 86.9778 14.7225C87.0084 15.9566 86.989 17.1958 86.989 18.5543ZM99.2992 24.8583C98.3497 25.2775 97.4195 25.5059 96.4323 25.3682C95.344 25.2183 94.4588 24.7655 93.9937 23.7017C93.8376 23.3458 93.8468 23.1591 94.3384 23.1652C96.3435 23.1887 98.3486 23.1744 100.356 23.1744C101.236 23.1744 101.236 23.1744 101.19 22.2942C101.06 19.7629 99.6439 18.0372 97.288 17.5578C96.5373 17.4014 95.7644 17.3837 95.0075 17.5058C93.0758 17.82 91.6214 18.8021 91.0248 20.6991C90.4128 22.6278 90.676 24.4728 92.1467 25.9934C93.9498 27.866 97.2074 27.7272 98.8902 27.1275C98.9553 27.1093 99.0126 27.07 99.053 27.0157C99.0934 26.9615 99.1147 26.8953 99.1136 26.8277C99.1717 26.1923 99.2329 25.5549 99.2992 24.8583ZM101.877 23.9404C101.877 24.9419 101.886 25.9445 101.871 26.946C101.871 27.2244 101.933 27.3346 102.234 27.3254C102.913 27.304 103.593 27.3019 104.274 27.3254C104.587 27.3366 104.682 27.2469 104.673 26.9297C104.653 25.9618 104.654 24.9919 104.673 24.026C104.687 23.1622 104.599 22.2922 104.747 21.4335C104.92 20.4421 105.52 19.9107 106.518 19.8761C107.566 19.8404 108.207 20.3197 108.447 21.3039C108.506 21.5689 108.534 21.8401 108.529 22.1117C108.529 23.7078 108.537 25.304 108.521 26.9001C108.521 27.2306 108.603 27.3366 108.94 27.3234C109.618 27.2968 110.3 27.2999 110.98 27.3234C111.3 27.3336 111.377 27.2214 111.375 26.9154C111.361 25.0796 111.385 23.2438 111.364 21.408C111.342 19.5721 110.386 18.2534 108.705 17.7302C107.565 17.3702 106.352 17.3139 105.184 17.567C102.915 18.0504 101.886 19.3253 101.886 21.6385L101.877 23.9404Z" fill="#DEDEDE"/>
<path id="Vector_2" d="M23.5287 40.3343C22.7648 40.3343 21.9989 40.3292 21.237 40.3343C20.572 40.3404 20.3344 40.1721 20.2834 39.4908C20.1396 37.5459 20.0264 35.5979 19.905 33.6509C19.6106 28.8914 19.3172 24.1319 19.0248 19.3723C18.8402 16.3748 18.6505 13.3774 18.4802 10.3789C18.4047 9.0428 18.3058 8.951 17.036 9.35182L2.18942 14.0005C2.04357 14.0454 1.89875 14.1025 1.74984 14.1311C1.23989 14.2331 0.895169 14.0485 0.78706 13.5487C0.533106 12.3717 0.308729 11.1887 0.0853713 10.0056C0.00173989 9.55988 0.289351 9.3763 0.660593 9.2376C2.43623 8.56854 4.20677 7.88725 5.98649 7.2131C11.6551 5.06043 17.3243 2.90777 22.9943 0.7551C23.1399 0.692399 23.2965 0.659465 23.4551 0.658239C23.6136 0.657013 23.7707 0.687519 23.9173 0.747961C31.2802 3.55268 38.6453 6.35298 46.0123 9.14886C46.8425 9.46401 46.972 9.69553 46.8068 10.5767C46.6416 11.4579 46.4692 12.3422 46.2969 13.2285C46.1245 14.1147 45.7869 14.3126 44.9353 14.0515C42.1476 13.1934 39.3633 12.3313 36.5823 11.4651C34.2509 10.7419 31.9224 10.0117 29.592 9.28961C28.6975 9.0122 28.5139 9.14988 28.4568 10.0963C28.0271 17.239 27.596 24.3841 27.1636 31.5316C27.0106 34.0895 26.8678 36.6474 26.721 39.2053C26.6659 40.1732 26.5252 40.3068 25.5695 40.3047H23.5287V40.3343Z" fill="#DEDEDE"/>
<path id="Vector_3" d="M38.6765 40.305C38.1155 40.305 37.5546 40.3101 36.9947 40.305C36.3073 40.2968 36.0513 40.0469 36.1196 39.3656C36.292 37.6441 36.4929 35.9255 36.6856 34.206C36.757 33.5655 36.8376 32.926 36.9151 32.2855C36.9478 32.0132 36.8652 31.8316 36.5673 31.7643C36.3032 31.7052 36.0492 31.6042 35.7902 31.5226C35.1109 31.3074 34.907 31.3992 34.7876 32.1346C34.6183 33.1708 34.5112 34.2182 34.3878 35.2616C34.2144 36.7275 34.0475 38.1941 33.8871 39.6614C33.8391 40.1081 33.6464 40.3213 33.1731 40.3141C31.8136 40.2958 30.4551 40.3141 29.0935 40.306C28.501 40.306 28.2613 40.0714 28.2899 39.5166C28.5353 34.6891 28.7845 29.8615 29.0375 25.034C29.2139 21.6969 29.4199 18.3608 29.5882 15.0237C29.6443 13.9151 30.1338 13.038 30.909 12.3067C31.4709 11.7774 32.1777 11.6499 32.9049 11.8835C36.4365 13.0155 39.965 14.1585 43.4904 15.3124C44.3063 15.5775 44.6429 16.269 44.8917 17.0095C45.2915 18.2017 45.0702 19.395 44.8479 20.5791C43.675 26.8263 42.498 33.0729 41.317 39.3187C41.1467 40.2213 41.0467 40.305 40.1054 40.305H38.6765ZM38.653 19.8703C38.653 19.5409 38.5908 19.2889 38.3205 19.1839C37.9617 19.0351 37.5899 18.9197 37.2099 18.8392C36.6347 18.7372 36.4001 18.9412 36.3236 19.5205C36.1808 20.5934 36.0564 21.6694 35.8942 22.7403C35.625 24.5118 35.6545 24.3497 37.3221 24.8719C37.778 25.0146 37.9728 24.8719 38.0615 24.3935C38.1268 24.0447 38.1635 23.6908 38.2104 23.3379C38.3613 22.164 38.5102 20.9891 38.653 19.8703Z" fill="#DEDEDE"/>
<path id="Vector_4" d="M11.9184 40.3045C10.6945 40.3045 9.47061 40.3045 8.24674 40.3045C6.6149 40.3045 5.60929 39.4661 5.30332 37.8669C3.96045 30.8405 2.61827 23.8141 1.27677 16.7876C1.14112 16.0788 1.23291 15.9085 1.90197 15.6933C3.32166 15.2364 4.74305 14.7852 6.16615 14.3399C7.12485 14.0421 7.42164 14.2512 7.57259 15.2405C8.37218 20.4889 9.1762 25.7359 9.98464 30.9816C10.0866 31.6853 10.2141 32.387 10.312 33.0917C10.3661 33.4793 10.5435 33.6751 10.9525 33.6262C11.1054 33.6185 11.2586 33.6185 11.4115 33.6262C11.9408 33.6129 12.1254 33.4324 12.0754 32.9051C11.9296 31.4538 11.7695 30.0035 11.6032 28.5542C11.2463 25.3667 10.8869 22.1802 10.5252 18.9947C10.3345 17.3088 10.1499 15.6219 9.95098 13.9381C9.86429 13.2058 9.93466 13.0864 10.619 12.8712C12.2355 12.3613 13.849 11.8513 15.4645 11.3414C15.5288 11.321 15.5951 11.3037 15.6593 11.2833C16.6527 10.9773 16.9995 11.2068 17.0576 12.2613C17.2341 15.4108 17.3983 18.5613 17.5676 21.7117C17.8307 26.4712 18.0962 31.2308 18.3641 35.9903C18.3906 36.4819 18.4202 36.9735 18.4222 37.4651C18.4284 39.1561 17.284 40.3024 15.5828 40.3116C14.3651 40.3096 13.1412 40.3045 11.9184 40.3045Z" fill="#DEDEDE"/>
<path id="Vector_5" d="M136.055 18.4686C136.055 17.1193 136.068 15.8658 136.046 14.6144C136.046 14.2707 136.148 14.182 136.474 14.1922C137.17 14.2146 137.866 14.2085 138.563 14.1922C138.818 14.1871 138.917 14.2523 138.916 14.5298C138.906 17.1958 138.964 19.8628 138.892 22.5258C138.815 25.4243 136.789 27.3805 133.895 27.5233C132.828 27.5763 131.796 27.4764 130.815 27.0327C128.646 26.0536 127.544 23.7976 128.024 21.3335C128.476 19.0194 130.326 17.4895 132.751 17.4079C133.943 17.3722 135.037 17.6241 136.055 18.4686ZM130.94 22.4686C130.94 24.0056 131.96 25.0582 133.455 25.0602C134.985 25.0602 136.044 24.0077 136.038 22.4748C136.032 20.9419 134.967 19.8934 133.432 19.9097C131.944 19.9291 130.94 20.9582 130.94 22.4686Z" fill="#DEDEDE"/>
<path id="Vector_6" d="M125.735 24.8077C125.661 25.5501 125.59 26.1886 125.541 26.8281C125.541 26.9129 125.512 26.9952 125.457 27.0602C125.403 27.1252 125.327 27.1687 125.243 27.183C123.231 27.7307 121.246 27.7949 119.383 26.6985C117.606 25.6562 116.78 23.544 117.204 21.3012C117.572 19.3532 119.17 17.8336 121.182 17.5103C122.07 17.3531 122.98 17.3725 123.861 17.5674C126.058 18.0773 127.415 19.7092 127.593 22.0193C127.685 23.2085 127.685 23.2085 126.519 23.2085H120.814C120.264 23.2085 120.222 23.2697 120.464 23.7765C120.974 24.8454 121.912 25.2442 123.014 25.3625C123.945 25.4645 124.82 25.2044 125.735 24.8077ZM124.505 21.288C124.419 20.2426 123.67 19.5134 122.655 19.4522C121.511 19.3859 120.498 20.0641 120.271 21.031C120.218 21.2574 120.302 21.288 120.492 21.287C121.829 21.2859 123.166 21.288 124.505 21.288Z" fill="#DEDEDE"/>
<path id="Vector_7" d="M58.2643 23.7871V7.22288C58.2643 7.08724 58.2551 6.95057 58.2643 6.81492C58.2918 6.50895 58.4224 6.29579 58.7743 6.30497C59.0955 6.31109 59.2169 6.51609 59.2475 6.79656C59.2546 6.93246 59.2546 7.06863 59.2475 7.20452C59.2475 18.2296 59.2475 29.2547 59.2475 40.2798C59.2475 40.4165 59.2536 40.5521 59.2475 40.6878C59.225 41.0009 59.0741 41.21 58.7375 41.2039C58.4316 41.1988 58.2888 40.9999 58.2633 40.7082C58.2521 40.5736 58.2633 40.4369 58.2633 40.3002L58.2643 23.7871Z" fill="#DEDEDE"/>
<path id="Vector_8" d="M84.3554 25.0774C82.8256 25.0774 81.8057 24.0208 81.8057 22.4654C81.8057 20.9101 82.8541 19.8718 84.388 19.878C85.9526 19.8851 86.9704 20.9325 86.9582 22.5297C86.9459 24.081 85.924 25.0825 84.3554 25.0774Z" fill="#DEDEDE"/>
<path id="Vector_9" d="M95.9415 21.3054C95.3296 21.3054 94.7176 21.2962 94.1108 21.3054C93.8548 21.3105 93.7844 21.235 93.8538 20.9821C94.0965 20.1039 94.94 19.4522 95.8987 19.4328C97.0205 19.4043 97.7783 19.8847 98.0751 20.8077C98.1771 21.1391 98.1771 21.3421 97.7202 21.3105C97.1327 21.2748 96.5371 21.3054 95.9415 21.3054Z" fill="#DEDEDE"/>
</g>
<defs>
<clipPath id="clip0_1194_1929">
<rect width="138.858" height="42.6929" fill="white" transform="translate(0.0712891 0.65332)"/>
</clipPath>
</defs>
</svg>
