<svg width="149" height="26" viewBox="0 0 149 26" fill="none" xmlns="http://www.w3.org/2000/svg">
<g id="wonders-logoColor_v2 1" clip-path="url(#clip0_1197_13306)">
<path id="Union" fill-rule="evenodd" clip-rule="evenodd" d="M90.421 23.8064C90.3966 23.6754 90.3479 23.5499 90.2749 23.4405V7.37018C90.3115 7.16953 90.3297 6.96888 90.3297 6.74999V1.24121H89.5629C88.7961 1.24121 88.1753 1.8614 88.1753 2.62753V6.74999C88.1753 8.06334 87.1164 9.12131 85.8018 9.12131H82.7893V9.13955C80.8174 9.23076 78.9917 10.0334 77.5858 11.4197C76.0704 12.9154 75.2306 14.9402 75.2306 17.0744C75.2306 21.2733 78.5163 24.7277 82.6572 25.0092H90.421V23.8064ZM88.2483 10.5259C87.5363 10.9819 86.6964 11.2555 85.8018 11.2555H83.1362C81.6025 11.2555 80.1601 11.8575 79.0647 12.9519C77.951 14.0464 77.3485 15.5057 77.3485 17.0561C77.3485 20.2665 79.9593 22.875 83.1727 22.875H88.2483V10.5259ZM43.4075 9.12155C47.7954 9.12155 51.3189 12.6296 51.3673 16.9838V17.1647C51.3189 21.4834 47.7957 25.0096 43.4622 25.0277H42.1112C37.8204 25.0627 34.336 21.7745 34.059 17.6102V16.5442C34.3311 12.4885 37.7004 9.10407 42.0929 9.12155H43.4075ZM36.1956 17.0746C36.1956 13.8642 38.8065 11.2557 42.0199 11.2557H43.4075C46.6208 11.2557 49.2317 13.8642 49.2317 17.0746C49.2317 20.285 46.6208 22.8935 43.4075 22.8935H42.0199C38.8248 22.8935 36.1956 20.3033 36.1956 17.0746ZM71.2688 17.0377V25.0092H70.046C69.5228 24.9134 69.1326 24.4501 69.1326 23.9145V17.0742C69.1326 13.8638 66.5218 11.2553 63.3084 11.2553C61.7565 11.2553 60.2959 11.8755 59.2004 12.97C58.1049 14.0644 57.5024 15.5237 57.5024 17.0742V23.8963C57.5024 24.5165 56.9912 25.009 56.3887 25.009H55.3663V17.1654C55.348 15.0129 56.1696 12.9882 57.6668 11.4742C59.1639 9.9602 61.1722 9.12111 63.3084 9.13935C67.672 9.13935 71.2505 12.6781 71.2688 17.0377ZM102.69 9.21247C103.238 9.12127 103.731 9.10303 104.753 9.10303H107.693C110.176 9.10303 112.202 11.1278 112.202 13.6085C112.202 16.0893 110.176 18.1141 107.693 18.1141C107.693 18.0968 101.957 18.1123 101.354 18.1139H101.353L101.352 18.1139L101.35 18.1139L101.303 18.1141V17.3844C101.303 16.6001 101.942 15.9799 102.708 15.9799H107.693C109.007 15.9799 110.066 14.9219 110.066 13.6085C110.066 12.2952 109.007 11.2372 107.693 11.2372H103.95C100.737 11.2372 98.1257 13.8457 98.1257 17.0561C98.1257 20.2665 100.737 22.875 103.95 22.875H109.719C110.34 22.875 110.833 23.3857 110.833 23.9877V25.0092C108.394 25.0092 106.778 25.0162 105.68 25.021H105.68H105.68H105.679H105.679C103.823 25.0291 103.447 25.0307 103.079 24.981C102.985 24.9683 102.892 24.9524 102.775 24.9324L102.69 24.918C93.6526 23.4769 93.8899 10.5988 102.69 9.21247ZM119.871 23.55C119.871 24.1702 119.36 24.6627 118.757 24.6627H117.735V17.3663C117.753 13.0067 121.331 9.46799 125.677 9.46799C126.681 9.46799 127.649 9.6504 128.562 9.99698V10.3253C128.562 11.2191 127.758 11.894 126.882 11.7116C126.48 11.6204 126.06 11.5839 125.622 11.5839C122.409 11.6387 119.871 14.3201 119.871 17.5123V23.55ZM134.641 10.3799C133.765 11.2372 133.272 12.3864 133.272 13.6085C133.272 16.0893 135.372 18.1141 137.855 18.1141H144.081V18.0776H144.135C145.286 18.2418 146.18 19.2997 146.18 20.5036C146.18 21.817 145.121 22.875 143.807 22.875H134.842C134.24 22.875 133.729 23.3675 133.729 23.9877V25.0092H143.807C144.994 25.0092 146.089 24.5531 146.947 23.7323C147.818 22.8805 148.31 21.7406 148.316 20.5273V20.4803C148.303 18.0102 146.209 15.9981 143.734 15.9981H141.999V16.0893C141.504 16.0838 140.899 16.0783 140.295 16.0728C138.893 16.0601 137.491 16.0473 137.453 16.0346C136.303 15.8704 135.408 14.8125 135.408 13.6085C135.408 12.2952 136.467 11.2372 137.782 11.2372H146.6C147.203 11.2372 147.714 10.7447 147.714 10.1245V9.12148H137.424C136.375 9.214 135.413 9.6423 134.641 10.3799ZM14.0614 17.7802C14.0418 17.5596 14.0313 17.3364 14.0304 17.111V9.12148H15.0528C15.0806 9.12148 15.1081 9.12251 15.1354 9.12452C15.1624 9.12251 15.1897 9.12148 15.2172 9.12148H16.2396V16.9651C16.2419 17.2344 16.231 17.5016 16.2074 17.7661C16.5503 20.6513 19.0116 22.8934 21.9908 22.8934C23.5427 22.8934 25.0033 22.2732 26.0988 21.1788C27.1942 20.0843 27.7967 18.625 27.7967 17.0745V10.2342C27.7967 9.61399 28.3079 9.12148 28.9104 9.12148H29.9511V16.9651C29.9694 19.1175 29.1478 21.1423 27.6507 22.6563C26.1535 24.1703 24.1452 25.0094 21.9908 25.0094C19.0847 25.0094 16.5269 23.4399 15.137 21.1037C14.8066 21.6631 14.4057 22.1845 13.9391 22.6563C12.442 24.1703 10.4336 25.0094 8.27923 25.0094C3.91562 25.0094 0.337104 21.4706 0.318848 17.111V9.12148H1.34128C1.96204 9.12148 2.455 9.63223 2.455 10.2342V17.0745C2.455 20.285 5.06586 22.8934 8.27923 22.8934C9.84939 22.8934 11.31 22.2732 12.4055 21.1788C13.333 20.2521 13.9071 19.0639 14.0614 17.7802Z" fill="#DEDEDE"/>
</g>
<defs>
<clipPath id="clip0_1197_13306">
<rect width="148.5" height="24.3" fill="white" transform="translate(0.25 0.849609)"/>
</clipPath>
</defs>
</svg>
