<svg width="48" height="48" viewBox="0 0 48 48" fill="none" xmlns="http://www.w3.org/2000/svg">
<g id="FIGMA">
<path id="Vector" d="M24.0001 27.8V31.5998C24.0001 33.6974 22.2978 35.3997 20.2002 35.3997C18.1027 35.3997 16.4004 33.6974 16.4004 31.5998C16.4004 29.5023 18.1027 27.8 20.2002 27.8M24.0001 27.8H20.2002M24.0001 27.8V20.2003M20.2002 27.8C18.1027 27.8 16.4004 26.0977 16.4004 24.0001C16.4004 21.9026 18.1027 20.2003 20.2002 20.2003M20.2002 20.2003H24.0001M20.2002 20.2003C18.1027 20.2003 16.4004 18.498 16.4004 16.4004C16.4004 14.3029 18.1027 12.6006 20.2002 12.6006H24.0001M24.0001 20.2003V12.6006M24.0001 20.2003H27.7999M24.0001 12.6006H27.7999C29.8975 12.6006 31.5998 14.3029 31.5998 16.4004C31.5998 18.498 29.8975 20.2003 27.7999 20.2003M27.7999 20.2003C25.7024 20.2003 24.0001 21.9026 24.0001 24.0001C24.0001 26.0977 25.7024 27.8 27.7999 27.8C29.8975 27.8 31.5998 26.0977 31.5998 24.0001C31.5998 21.9026 29.8975 20.2003 27.7999 20.2003Z" stroke="white"/>
</g>
</svg>
