<svg width="201" height="38" viewBox="0 0 201 38" fill="none" xmlns="http://www.w3.org/2000/svg">
<g id="logo">
<path id="Fill 1" fill-rule="evenodd" clip-rule="evenodd" d="M56.6204 27.4637C56.5593 27.629 56.4461 27.7728 56.2973 27.8761C56.1477 27.9794 55.9692 28.0364 55.7857 28.0405H52.3914C52.2798 28.0414 52.1724 28.0001 52.0922 27.9265C52.012 27.8521 51.9666 27.7505 51.9649 27.6438C51.9624 27.6042 51.9682 27.5645 51.9831 27.5265L56.4188 13.8152C56.4758 13.6458 56.5882 13.4987 56.7395 13.3954C56.8907 13.2913 57.0725 13.2359 57.2585 13.2384H60.6388C60.7512 13.2367 60.8594 13.278 60.9396 13.3532C61.0198 13.4276 61.0652 13.5293 61.0669 13.6367C61.0669 13.6756 61.0553 13.7103 61.0504 13.7566L56.6204 27.4637Z" fill="#E30613"/>
<path id="Fill 3" fill-rule="evenodd" clip-rule="evenodd" d="M59.7197 11.811C60.0809 11.8085 60.4412 11.7787 60.7983 11.7242C61.0504 11.6771 61.2884 11.5746 61.4925 11.4242C61.6958 11.2737 61.8595 11.0803 61.9702 10.8589C62.1008 10.6142 62.2074 10.3597 62.2876 10.096L62.6388 9.00424C62.7074 8.80093 62.7587 8.59265 62.7901 8.3819C62.8058 8.30587 62.8058 8.229 62.7893 8.15297C62.7736 8.07776 62.7413 8.00586 62.6959 7.94304C62.6504 7.8794 62.5926 7.82568 62.5248 7.78353C62.457 7.74221 62.381 7.71328 62.3016 7.70006H62.2727C62.0008 7.6513 61.7239 7.62568 61.4471 7.62402H60.3884C60.0272 7.62568 59.6668 7.65708 59.3115 7.71742C59.0577 7.76122 58.8189 7.86122 58.6139 8.00916C58.4089 8.15793 58.2428 8.3505 58.1312 8.57199C58.0098 8.81911 57.9089 9.07449 57.8288 9.33731L57.4717 10.434C57.4081 10.6704 57.3601 10.8671 57.3312 11.0531C57.2998 11.2027 57.3312 11.3572 57.4188 11.4837C57.5064 11.6109 57.6428 11.7002 57.799 11.7316H57.8486C58.1197 11.782 58.3949 11.8052 58.6709 11.801L59.7197 11.811Z" fill="#E30613"/>
<path id="Fill 5" fill-rule="evenodd" clip-rule="evenodd" d="M87.6928 20.7259C87.6944 20.7069 87.6944 20.6879 87.6928 20.6689C87.6953 20.6242 87.6812 20.5804 87.6539 20.5441C87.6258 20.5085 87.5862 20.4829 87.5415 20.4722C87.5415 20.4722 83.6736 20.1746 82.4422 21.1391C81.1314 22.1648 80.9297 24.3731 80.9768 24.5558C80.9768 24.5558 80.7272 26.0782 83.5786 25.7096C83.8191 25.6864 84.0571 25.6451 84.291 25.5872C85.4935 25.3302 86.3283 24.8103 86.7291 23.688L87.6928 20.7259ZM81.5802 18.5077C84.6059 17.9193 88.3292 18.2945 88.3292 18.2945C88.3755 18.2945 88.4201 18.2805 88.4565 18.254C88.4928 18.2284 88.5201 18.192 88.5342 18.1499L88.8441 17.1887C89.3896 15.5258 87.4614 15.3787 87.4614 15.3787C87.1102 15.349 86.7688 15.3192 86.4481 15.3076C84.6315 15.2564 82.8133 15.3614 81.0165 15.6209L80.376 15.7399L80.2463 15.7614C79.9611 15.8324 79.9016 15.6432 79.9446 15.3928C80.0578 14.9076 80.2793 14.4514 80.5926 14.0539C80.8273 13.7448 81.0628 13.477 81.8372 13.3423C84.5613 12.9092 87.3341 12.8274 90.0813 13.0993C90.0813 13.0993 94.6707 13.4712 93.3798 17.4201L90.1268 27.475C90.0689 27.6444 89.9574 27.7915 89.8078 27.8965C89.6573 28.0015 89.4763 28.0585 89.2904 28.0602H86.1845C86.0531 28.0602 85.9258 28.0097 85.8332 27.9205C85.7399 27.832 85.687 27.7106 85.687 27.5849V27.4915L85.758 27.1618V27.1486C85.7589 27.1378 85.7564 27.1262 85.7522 27.1147C85.7481 27.1047 85.7415 27.0948 85.7332 27.0866C85.725 27.0783 85.7151 27.0717 85.7043 27.0667C85.6927 27.0626 85.6812 27.0593 85.6688 27.0593C85.6522 27.0593 85.6357 27.0651 85.6225 27.0758C84.334 27.6411 82.9588 28.0023 81.5488 28.1453C76.6288 28.6197 76.1883 26.618 76.1296 25.8361C76.0188 24.2608 76.828 21.1434 78.7222 19.6293C79.4677 19.0416 80.4157 18.7458 81.5695 18.5268L81.5802 18.5077Z" fill="#E30613"/>
<path id="Fill 7" fill-rule="evenodd" clip-rule="evenodd" d="M76.9431 17.3202C77.3183 16.021 77.1911 15.2301 76.5861 14.4697C75.9257 13.625 74.3058 12.9416 72.3314 12.9416C70.7098 12.9316 69.1288 13.425 67.8271 14.3466L68.0221 13.7507C68.0221 13.706 68.0387 13.6697 68.0387 13.6325C68.037 13.5259 67.9907 13.4242 67.9106 13.349C67.8304 13.2738 67.723 13.2325 67.6106 13.2325H64.227C64.041 13.2308 63.86 13.2862 63.7096 13.3903C63.5592 13.4945 63.4468 13.6408 63.3906 13.8102L58.9557 27.5214C58.9375 27.5578 58.9301 27.5991 58.9342 27.6379C58.935 27.7454 58.9797 27.847 59.0582 27.9231C59.1375 27.9991 59.2441 28.0421 59.3565 28.0429H62.7459C62.9319 28.0404 63.1129 27.9818 63.2625 27.8768C63.4129 27.7727 63.5253 27.6264 63.584 27.4586L66.1675 19.4682L66.1799 19.4492C66.8196 17.502 68.5668 15.5524 70.8156 15.5524C71.5991 15.5524 72.1454 15.6962 72.3934 15.945C72.4818 16.0301 72.543 16.1384 72.5694 16.2557C72.5967 16.3731 72.5876 16.4954 72.5446 16.6086C72.4669 16.9838 72.1818 17.8599 72.1818 17.8599L69.0569 27.5305C69.0428 27.5677 69.0371 27.6074 69.0371 27.647C69.0395 27.7528 69.0842 27.8545 69.1619 27.9297C69.2404 28.0049 69.347 28.0471 69.4577 28.0495H72.8521C73.0355 28.0479 73.2141 27.9917 73.362 27.8875C73.5108 27.7842 73.6215 27.6388 73.6794 27.4727L75.5489 21.6832L76.6712 18.2194C76.677 18.1855 76.6853 18.1525 76.6968 18.1194L76.7861 17.8541L76.9431 17.3202Z" fill="#E30613"/>
<path id="Fill 9" fill-rule="evenodd" clip-rule="evenodd" d="M19.8856 23.9578C19.5104 25.257 19.636 26.048 20.236 26.8083C20.8988 27.653 22.5187 28.3398 24.4957 28.3398C26.1172 28.3481 27.6966 27.8547 29 26.9356L28.8066 27.5348C28.7942 27.5728 28.7859 27.6125 28.7809 27.653C28.7834 27.7596 28.8289 27.8613 28.909 27.9348C28.9892 28.0092 29.0975 28.0505 29.2091 28.0497H32.6034C32.7902 28.0505 32.9712 27.9943 33.1224 27.8894C33.2728 27.7836 33.3844 27.6348 33.4398 27.4654L37.8763 13.7533C37.892 13.7145 37.8994 13.6732 37.897 13.631C37.8945 13.5252 37.849 13.4244 37.7697 13.35C37.6903 13.2756 37.5846 13.2335 37.4738 13.2326H34.072C33.8886 13.236 33.71 13.293 33.5621 13.3963C33.4133 13.4996 33.3018 13.6442 33.2431 13.8104L30.6554 21.8007V21.828C30.0149 23.7702 28.2636 25.7248 26.0189 25.7248C25.2354 25.7248 24.6833 25.5926 24.4477 25.3323C24.2957 25.1777 24.2246 25.043 24.2957 24.6678C24.3676 24.2926 24.6552 23.4214 24.6552 23.4214L27.7859 13.7508C27.7983 13.7104 27.804 13.669 27.8024 13.6269C27.7999 13.5219 27.7553 13.4219 27.6776 13.3475C27.5991 13.2731 27.4949 13.231 27.385 13.2285H23.9816C23.7973 13.2285 23.6179 13.2847 23.4684 13.388C23.3196 13.4922 23.2088 13.6384 23.1526 13.8054L21.2757 19.5874L20.155 23.0545C20.141 23.0875 20.1335 23.1206 20.122 23.1537L20.0401 23.4239C20.0401 23.4239 19.917 23.857 19.8856 23.9578Z" fill="#E30613"/>
<path id="Fill 11" fill-rule="evenodd" clip-rule="evenodd" d="M42.465 28.1641C40.1393 28.1641 38.1574 27.6162 37.3499 26.9095C36.6019 26.2574 36.1937 25.3037 36.6019 23.6433C36.8838 22.5697 38.1284 18.7365 38.4913 17.6637C39.0599 16.0529 40.2442 14.705 41.8087 13.8901C43.3724 13.1132 45.1799 12.9404 47.9379 12.9404C50.695 12.9404 52.3347 13.6008 52.9835 14.4669C53.6902 15.4042 53.7472 16.1777 52.9306 18.5778C52.8934 18.6613 52.8306 18.7324 52.7488 18.7803C52.667 18.8274 52.5719 18.8489 52.4769 18.8415H48.7875C48.7214 18.8415 48.6569 18.8249 48.5999 18.7944C48.5429 18.763 48.4941 18.7192 48.4594 18.6654C48.423 18.6117 48.4007 18.5505 48.3933 18.4869C48.3858 18.4224 48.3949 18.358 48.4189 18.2976C48.5106 18.0001 48.6412 17.5844 48.7693 17.1836C48.9627 16.5943 49.0859 16.2959 48.847 16.0083C48.5759 15.6835 48.0313 15.5513 47.1346 15.5513C45.8568 15.5513 44.584 16.3844 43.932 17.1389C43.2807 17.8935 42.822 18.6183 42.0765 20.9696C41.3972 23.1053 41.0633 23.9367 41.1054 24.5185C41.1054 24.7293 41.1509 25.7872 43.0369 25.7872C44.4254 25.7872 45.0279 25.5491 45.2932 25.3607C45.5601 25.1739 46.4593 24.597 47.2172 22.0606C47.2552 21.968 47.3205 21.8879 47.4065 21.8317C47.4924 21.7755 47.5932 21.7449 47.6974 21.7441H51.338C51.4041 21.7449 51.4694 21.7606 51.5281 21.7903C51.5868 21.8209 51.6364 21.8639 51.6736 21.916C51.7537 22.0184 51.7967 22.1085 51.7132 22.3581L51.2083 23.8689C49.9586 27.8005 46.4279 28.1641 42.4592 28.1641" fill="#E30613"/>
<g id="Group 15">
<mask id="mask0_1071_748" style="mask-type:luminance" maskUnits="userSpaceOnUse" x="0" y="9" width="22" height="20">
<path id="Clip 14" fill-rule="evenodd" clip-rule="evenodd" d="M0.5 9.09277H21.3082V28.1637H0.5V9.09277Z" fill="white"/>
</mask>
<g mask="url(#mask0_1071_748)">
<path id="Fill 13" fill-rule="evenodd" clip-rule="evenodd" d="M7.4428 28.1637C4.52368 28.1637 2.64345 27.4794 1.63763 26.5926C0.702887 25.7777 0.178901 24.5859 0.714458 22.5032C1.05992 21.1593 2.62362 16.3501 3.0757 15.0103C3.78895 12.9913 5.2733 11.3028 7.23453 10.2812C9.18997 9.31014 10.8495 9.09277 14.3133 9.09277C17.7208 9.09277 19.8127 9.92173 20.63 11.0069C21.5012 12.1945 21.5904 13.145 20.5598 16.16C20.5135 16.2649 20.4333 16.3534 20.3309 16.4129C20.2284 16.4716 20.1094 16.498 19.9895 16.4873H16.2084C16.1224 16.4864 16.0381 16.4666 15.9629 16.4286C15.8869 16.3906 15.8216 16.336 15.7728 16.2691C15.7323 16.1988 15.7076 16.122 15.7009 16.0418C15.6943 15.9616 15.7051 15.8814 15.7332 15.8062C15.8497 15.431 16.2084 14.3384 16.3778 13.8491C16.6274 13.1086 16.2778 12.745 15.7861 12.4243C15.2943 12.1036 14.6257 11.9912 13.5174 11.9912C11.2776 11.9912 9.89908 12.8392 9.08087 13.7739C8.26266 14.7095 7.48495 16.1988 6.55929 19.1427C5.70968 21.8263 5.29313 23.0553 5.3328 23.7776C5.35264 24.0446 5.78654 25.5545 8.16018 25.5545C9.88834 25.5545 11.019 25.2339 11.3834 25.0272C11.8049 24.7892 13.0893 24.2553 14.0496 21.08C14.0951 20.9618 14.1769 20.861 14.286 20.7899C14.3943 20.7188 14.5232 20.6824 14.6546 20.6858H18.3514C18.4349 20.6849 18.5176 20.7048 18.592 20.742C18.6655 20.7783 18.7283 20.8337 18.7746 20.8998C18.8796 21.0238 18.9267 21.1378 18.8325 21.4511C18.7382 21.7643 18.4167 22.7784 18.4167 22.7784C16.834 27.7116 12.419 28.1637 7.44693 28.1637" fill="#E30613"/>
</g>
</g>
<path id="Fill 16" fill-rule="evenodd" clip-rule="evenodd" d="M157.575 13.5055C158.595 13.1807 160.313 12.8964 163.02 13.1361C163.358 13.1633 163.692 13.2294 164.014 13.3328C164.014 13.3328 164.448 13.4865 164.3 14.0452C164.3 14.0452 164.093 14.7452 163.953 15.0551C163.836 15.313 163.642 15.5089 163.403 15.4411C162.914 15.3287 162.413 15.2775 161.909 15.2882C161.425 15.2865 160.942 15.3461 160.475 15.4642C160.168 15.5411 159.886 15.6907 159.655 15.8981C159.423 16.1056 159.25 16.3643 159.151 16.6519L155.671 27.4523C155.615 27.6201 155.503 27.7647 155.355 27.8688C155.207 27.9721 155.027 28.0292 154.842 28.03H151.416C151.303 28.0275 151.197 27.9837 151.119 27.9085C151.041 27.8325 150.996 27.7316 150.994 27.625C150.994 27.5853 151.005 27.5457 151.023 27.5101L154.453 16.8957C155.074 15.0328 156.163 13.9634 157.545 13.4956L157.575 13.5055Z" fill="#E30613"/>
<path id="Fill 18" fill-rule="evenodd" clip-rule="evenodd" d="M146.245 20.7316C146.248 20.7126 146.248 20.6928 146.245 20.6738C146.247 20.6291 146.232 20.5862 146.205 20.5506C146.177 20.5151 146.138 20.4895 146.094 20.4771C146.094 20.4771 142.241 20.1795 141.005 21.144C139.69 22.1697 139.493 24.378 139.536 24.5607C139.536 24.5607 139.301 26.0831 142.148 25.7144C142.383 25.6905 142.617 25.65 142.847 25.5921H142.858C144.054 25.3351 144.897 24.8152 145.291 23.6929L146.245 20.7316ZM140.118 18.5084C143.142 17.92 146.87 18.2952 146.87 18.2952C146.916 18.2943 146.961 18.2803 146.998 18.2539C147.035 18.2282 147.063 18.1919 147.079 18.1505L147.381 17.1894C147.925 15.5265 146.005 15.3794 146.005 15.3794C145.657 15.3488 145.305 15.3207 144.987 15.3083C143.174 15.257 141.361 15.362 139.569 15.6215L138.918 15.7397L138.801 15.762C138.512 15.8323 138.446 15.6438 138.499 15.3942C138.613 14.9091 138.832 14.4529 139.142 14.0545C139.389 13.7454 139.614 13.4776 140.385 13.3429C143.106 12.9132 145.876 12.833 148.618 13.1049C148.618 13.1049 153.214 13.476 151.914 17.4249L148.661 27.4806C148.605 27.6492 148.495 27.7972 148.344 27.9021C148.195 28.0071 148.015 28.0641 147.829 28.0649H144.738C144.605 28.0649 144.478 28.0154 144.385 27.9253C144.292 27.8368 144.239 27.7153 144.239 27.5897C144.236 27.5591 144.236 27.5277 144.239 27.4963L144.312 27.1666V27.1542C144.31 27.131 144.3 27.1087 144.285 27.0922C144.266 27.0765 144.243 27.0657 144.22 27.0641C144.202 27.0674 144.186 27.0732 144.17 27.0806C142.885 27.6459 141.511 28.0071 140.104 28.1501C135.174 28.6253 134.74 26.6227 134.679 25.8409C134.579 24.2656 135.383 21.1482 137.271 19.6341C138.003 19.0464 138.97 18.7514 140.116 18.5315L140.118 18.5084Z" fill="#E30613"/>
<g id="Group 22">
<mask id="mask1_1071_748" style="mask-type:luminance" maskUnits="userSpaceOnUse" x="183" y="12" width="18" height="17">
<path id="Clip 21" fill-rule="evenodd" clip-rule="evenodd" d="M183.018 12.9473H200.5V28.2178H183.018V12.9473Z" fill="white"/>
</mask>
<g mask="url(#mask1_1071_748)">
<path id="Fill 20" fill-rule="evenodd" clip-rule="evenodd" d="M194.589 20.7268C194.6 20.7094 194.606 20.6896 194.606 20.6697C194.605 20.6234 194.587 20.5796 194.556 20.5441C194.527 20.5086 194.485 20.4838 194.439 20.4722C194.439 20.4722 190.579 20.1755 189.348 21.14C188.033 22.1656 187.836 24.374 187.878 24.5558C187.878 24.5558 187.644 26.079 190.481 25.7104C190.722 25.6856 190.96 25.6443 191.195 25.5881C192.391 25.3311 193.232 24.8112 193.625 23.6888L194.589 20.7268ZM188.483 18.5084C191.507 17.92 195.235 18.2952 195.235 18.2952C195.28 18.2927 195.324 18.2778 195.36 18.2522C195.398 18.2266 195.425 18.191 195.441 18.1505L195.743 17.1894C196.289 15.5265 194.382 15.3794 194.382 15.3794C194.017 15.3488 193.69 15.3199 193.365 15.3083C191.546 15.2562 189.728 15.3612 187.93 15.6215L187.289 15.7397L187.166 15.762C186.873 15.8323 186.808 15.6438 186.854 15.3934C186.976 14.9099 187.2 14.4545 187.511 14.0545C187.745 13.7454 187.963 13.4776 188.754 13.3429C191.469 12.9132 194.231 12.833 196.966 13.1049C196.966 13.1049 201.558 13.476 200.273 17.4241L197.021 27.4757C196.963 27.6434 196.852 27.7897 196.704 27.8947C196.555 27.9988 196.375 28.0567 196.19 28.06H193.102C192.97 28.06 192.845 28.0104 192.75 27.9211C192.657 27.8319 192.606 27.7112 192.605 27.5856C192.602 27.5542 192.602 27.5228 192.605 27.4922L192.673 27.1624V27.1492C192.673 27.1261 192.662 27.1046 192.645 27.0881C192.628 27.0715 192.607 27.0616 192.582 27.06C192.563 27.0583 192.545 27.0641 192.531 27.0765C191.238 27.6401 189.859 28.0021 188.446 28.1459C183.517 28.6203 183.084 26.6186 183.027 25.8368C182.923 24.2615 183.731 21.144 185.62 19.6299C186.367 19.0423 187.332 18.7464 188.476 18.5274L188.483 18.5084Z" fill="#E30613"/>
</g>
</g>
<path id="Fill 23" fill-rule="evenodd" clip-rule="evenodd" d="M165.602 27.4636C165.545 27.6313 165.434 27.7776 165.283 27.8809C165.134 27.9851 164.954 28.0404 164.768 28.0404H161.375C161.263 28.0388 161.157 27.9966 161.078 27.9214C161 27.8462 160.956 27.7446 160.954 27.6379C160.954 27.5983 160.961 27.5586 160.973 27.5206L165.404 13.8093C165.463 13.6407 165.577 13.4945 165.727 13.3912C165.879 13.2878 166.061 13.2316 166.246 13.2325H169.644C169.699 13.2316 169.753 13.2416 169.805 13.2614C169.855 13.2812 169.902 13.311 169.942 13.3473C169.981 13.3845 170.012 13.4292 170.033 13.4771C170.054 13.5259 170.065 13.5779 170.065 13.6308C170.062 13.6713 170.055 13.711 170.046 13.7507L165.602 27.4636Z" fill="#E30613"/>
<path id="Fill 25" fill-rule="evenodd" clip-rule="evenodd" d="M168.713 11.8107C169.074 11.8073 169.436 11.7784 169.794 11.7239C170.049 11.6784 170.289 11.5759 170.494 11.4263C170.699 11.2759 170.865 11.0809 170.976 10.8586C171.098 10.6106 171.204 10.3561 171.292 10.0957L171.636 9.00394C171.701 8.7998 171.751 8.59153 171.787 8.3816C171.815 8.22788 171.779 8.06919 171.685 7.94109C171.592 7.81381 171.449 7.72621 171.288 7.69811H171.271H171.257C170.986 7.64934 170.712 7.62372 170.436 7.62207H169.377C169.015 7.6229 168.654 7.6543 168.297 7.71546C168.042 7.75844 167.803 7.85762 167.598 8.00638C167.392 8.15515 167.226 8.34854 167.113 8.57086C166.99 8.81633 166.888 9.07254 166.812 9.33536L166.454 10.4321C166.387 10.6346 166.34 10.842 166.311 11.0519C166.279 11.1999 166.311 11.3544 166.398 11.4809C166.483 11.6082 166.619 11.6974 166.774 11.7297H166.827C167.098 11.7801 167.374 11.8032 167.65 11.7991L168.713 11.8107Z" fill="#E30613"/>
<path id="Fill 27" fill-rule="evenodd" clip-rule="evenodd" d="M177.423 7.68284H175.259C175.073 7.68119 174.892 7.73574 174.741 7.83987C174.591 7.94401 174.478 8.09112 174.424 8.26055L168.204 27.5207C168.187 27.5579 168.177 27.5976 168.175 27.6381C168.176 27.7455 168.224 27.8472 168.304 27.9224C168.383 27.9976 168.49 28.0398 168.603 28.0406H171.973C172.158 28.0406 172.338 27.9844 172.487 27.8811C172.637 27.777 172.749 27.6307 172.806 27.4637L178.706 9.24654C179.13 7.91095 178.004 7.70433 177.414 7.67871" fill="#E30613"/>
<path id="Fill 29" fill-rule="evenodd" clip-rule="evenodd" d="M184.76 7.68284H182.592C182.407 7.68367 182.226 7.74152 182.077 7.84731C181.928 7.9531 181.816 8.10104 181.763 8.27047L175.519 27.5315V27.6489C175.518 27.7538 175.561 27.8555 175.638 27.9315C175.715 28.0059 175.821 28.0497 175.931 28.0513H179.324C179.509 28.0497 179.691 27.9935 179.841 27.8902C179.991 27.7869 180.106 27.6414 180.167 27.4736L186.055 9.24654C186.483 7.91095 185.35 7.70433 184.766 7.67871" fill="#E30613"/>
<path id="Fill 31" fill-rule="evenodd" clip-rule="evenodd" d="M124.328 12.8909C123.844 13.7413 123.128 14.4513 122.256 14.9463C121.384 15.4414 120.388 15.7025 119.374 15.7025H109.129C109.019 15.7017 108.914 15.6604 108.836 15.5852C108.758 15.5108 108.715 15.41 108.715 15.305C108.715 15.2653 108.732 15.2215 108.732 15.1868L108.809 14.9488L110.981 8.22046C111.235 7.31877 111.794 6.52205 112.57 5.95343C113.347 5.38564 114.298 5.07819 115.277 5.07819H124.249C124.672 5.07819 125.083 5.21787 125.41 5.47325C125.737 5.72863 125.962 6.08484 126.047 6.48072C126.047 6.48072 126.671 8.83783 124.322 12.8793L124.328 12.8909ZM119.475 29.6849C118.915 30.6676 118.088 31.4874 117.08 32.0569C116.073 32.628 114.922 32.9272 113.75 32.9239H103.543C103.433 32.923 103.326 32.8809 103.248 32.8073C103.168 32.7329 103.124 32.6321 103.122 32.5255C103.12 32.4842 103.129 32.4437 103.149 32.4073L106.872 20.9325C106.9 20.8515 106.955 20.7804 107.029 20.73C107.101 20.6804 107.19 20.6532 107.28 20.6532H119.415C119.906 20.654 120.381 20.816 120.761 21.1119C121.142 21.4077 121.404 21.8201 121.503 22.278C121.503 22.278 122.201 25.0013 119.488 29.6849H119.475ZM129.664 0.130859H115.446C111.733 0.130859 109.17 0.619307 107.482 1.16809L107.405 1.18214C104.308 2.22432 101.861 4.62606 100.485 8.80886L91.6048 36.1917C91.566 36.3148 91.5437 36.4413 91.5396 36.5694C91.5396 36.914 91.6834 37.2446 91.9387 37.4884C92.1933 37.7322 92.5396 37.8686 92.9008 37.8686H118.531C131.593 37.3768 131.885 23.6218 131.885 23.6218C131.879 22.4399 131.494 21.2878 130.781 20.3217C130.067 19.3563 129.061 18.6224 127.896 18.2191V18.1935C127.858 18.1836 127.823 18.1621 127.799 18.1315C127.775 18.1018 127.762 18.0637 127.763 18.0257C127.766 17.9869 127.783 17.9489 127.81 17.9183C127.838 17.8885 127.874 17.867 127.914 17.8588C129.627 17.3431 131.105 16.6951 132.301 15.4843C135.762 11.8561 135.873 6.07818 135.873 6.07818C135.873 4.50457 135.217 2.9946 134.051 1.88134C132.884 0.768899 131.302 0.143257 129.652 0.143257L129.664 0.130859Z" fill="#E30613"/>
</g>
</svg>
