<svg width="154" height="60" viewBox="0 0 154 60" fill="none" xmlns="http://www.w3.org/2000/svg">
<g id="Colored=False">
<g id="Vector">
<path fill-rule="evenodd" clip-rule="evenodd" d="M18.8164 8V31.5148C18.8164 33.8138 18.9396 37.4674 21.3206 40.8912C23.1882 43.5858 29.8998 47.1583 35.4076 50.0899L35.4086 50.0905C36.6804 50.7674 37.8879 51.4101 38.9568 52C40.0138 51.4174 41.2074 50.7823 42.465 50.1131C47.9774 47.1801 54.7211 43.592 56.593 40.8912C58.974 37.4674 59.0972 33.8138 59.0972 31.5148V8H18.8164ZM58.4567 15.5784C57.3812 17.0481 56.3302 18.3946 54.6881 19.0843C54.3269 19.2321 53.8917 19.2895 53.4976 19.2895C52.1958 19.2955 50.8941 19.2928 49.5924 19.2901C47.3144 19.2853 45.0362 19.2806 42.7582 19.3224C41.4856 19.3388 40.1966 19.503 38.9486 19.774C37.2244 20.1434 35.845 21.1615 34.753 22.5491C34.7225 22.5872 34.6929 22.6252 34.6647 22.6614C34.6018 22.7421 34.5464 22.8132 34.5067 22.8529C34.3968 22.6931 34.2915 22.5265 34.1857 22.359C33.9435 21.9758 33.6986 21.5882 33.39 21.2683C32.6347 20.4883 31.633 20.2091 30.5656 20.1763C30.1311 20.1655 29.6965 20.1688 29.2253 20.1724C28.9755 20.1743 28.715 20.1763 28.4391 20.1763C29.5722 18.9857 30.6888 18.0744 32.3637 18.2222C33.9894 18.37 35.1717 19.0596 35.6151 20.8085C35.7731 20.6237 35.9224 20.4464 36.067 20.2748C36.3206 19.9738 36.5599 19.6898 36.8056 19.4127C38.8993 17.0727 41.5595 15.8247 44.6631 15.6933C47.0474 15.5982 49.4317 15.5935 51.8192 15.5888C52.7284 15.587 53.6382 15.5852 54.5485 15.5784C55.3768 15.573 56.2051 15.5747 57.071 15.5765C57.5184 15.5774 57.9758 15.5784 58.4485 15.5784H58.4567ZM28.4921 27.363C28.2925 27.431 28.0911 27.4996 27.889 27.5738L27.8725 27.5656C28.2218 28.062 28.5685 28.5596 28.915 29.0569C29.8065 30.3365 30.6965 31.6139 31.6247 32.8614C32.0353 33.4197 32.5854 33.978 33.3243 34.0437C34.012 34.1001 34.7035 34.0868 35.4254 34.0729C35.7551 34.0666 36.0912 34.0601 36.4361 34.0601C34.2628 32.8385 32.8219 30.9844 31.3928 29.1455C31.0833 28.7473 30.7745 28.3499 30.4588 27.9597C30.6454 27.8639 30.8287 27.777 31.0072 27.6924C31.3942 27.5089 31.7586 27.3362 32.0845 27.1058C33.7184 25.9482 33.6445 23.444 31.9696 22.3438C31.2717 21.884 30.4917 21.6377 29.6706 21.6048C28.0121 21.5473 24.5309 21.5145 24.3502 21.5391C25.1808 22.28 25.1726 23.2322 25.1646 24.1535C25.1638 24.243 25.1631 24.3323 25.1631 24.421C25.1466 27.1058 25.1466 29.7907 25.1631 32.4755C25.1631 33.0092 24.966 33.4197 24.5965 33.7645C24.4981 33.8548 24.3994 33.9452 24.2599 34.0683H28.5047C27.6755 33.5511 27.4702 32.8696 27.5031 32.0321C27.5383 31.205 27.5315 30.3736 27.5248 29.544C27.5222 29.2126 27.5195 28.8814 27.5195 28.5509C27.5195 28.0007 27.5213 27.4514 27.5231 26.9024C27.5268 25.8049 27.5304 24.7081 27.5195 23.6082V23.1073H27.9875C28.4719 23.1073 28.9727 23.1566 29.4325 23.2798C30.5327 23.5671 31.0254 24.3718 30.8201 25.4884C30.7052 26.1124 30.3357 26.605 29.7774 26.8677C29.3648 27.0655 28.9328 27.2128 28.4921 27.363ZM45.5006 31.6628L45.5088 31.6657V33.9124C45.5088 33.9124 45.673 33.9617 45.87 34.0028C46.0749 34.0386 46.2806 34.0801 46.4868 34.1216C46.9417 34.2133 47.3994 34.3055 47.857 34.3394C49.5401 34.4708 51.133 34.1834 52.4877 33.075C53.9163 31.9173 54.4418 28.9533 52.1018 27.7546C51.6589 27.5308 51.2109 27.3173 50.7635 27.104C50.4065 26.9337 50.0496 26.7636 49.6961 26.5887C49.5911 26.537 49.4861 26.4859 49.3813 26.4348C48.9371 26.2186 48.4954 26.0036 48.0704 25.7512C47.6928 25.5295 47.4875 25.1519 47.4711 24.6921C47.4547 23.9695 47.9309 23.4194 48.7848 23.206C49.9014 22.9268 50.9277 23.1485 51.8801 23.7643C52.0225 23.8509 52.1602 23.9469 52.3214 24.0593C52.3739 24.0959 52.4293 24.1345 52.4877 24.1748C52.4877 23.9222 52.4858 23.6791 52.4839 23.4423C52.4803 22.9868 52.4769 22.5544 52.4877 22.1222V21.8102C50.7635 21.49 50.0246 21.4407 48.9818 21.4571C48.0869 21.4736 47.233 21.7856 46.4858 22.3192C44.6959 23.6001 44.581 26.1043 46.2888 27.4836C46.6719 27.7928 47.1265 28.014 47.5761 28.2326C47.6757 28.2811 47.7751 28.3294 47.8734 28.3786C48.1873 28.5383 48.5078 28.6875 48.8282 28.8367C49.4465 29.1245 50.0643 29.412 50.6321 29.7744C51.5517 30.3573 51.5271 31.4247 50.6486 32.0815C50.353 32.3032 49.9753 32.5002 49.6305 32.5167C48.9572 32.5495 48.2511 32.5167 47.5942 32.3771C47.0934 32.271 46.6095 32.0846 46.1061 31.8907C45.9106 31.8154 45.7122 31.739 45.5088 31.6657V31.6546L45.5006 31.6628ZM44.8116 32.0651C44.8112 31.9182 44.8109 31.7679 44.8109 31.6135L44.7945 31.6299C44.7002 31.6884 44.6214 31.7392 44.5515 31.7843C44.4446 31.8531 44.3583 31.9087 44.269 31.9583C41.9947 33.3377 38.7597 32.7137 37.2736 30.62C36.1899 29.0929 36.1816 26.679 37.2408 25.0123C38.1604 23.5672 40.2376 22.6969 42.0768 23.0664C42.6485 23.1796 43.2008 23.3787 43.7523 23.5775C44.0007 23.6671 44.249 23.7566 44.4989 23.8382V21.5803C44.2449 21.5537 43.993 21.5249 43.7426 21.4963C43.1432 21.4279 42.5525 21.3605 41.9618 21.3258C39.3591 21.1944 37.1258 21.9169 35.4673 24.0763C32.6922 27.6889 34.3014 32.7958 38.6612 34.0684C40.6153 34.635 42.5694 34.4708 44.5071 33.9617C44.622 33.9289 44.7945 33.7729 44.7945 33.6743C44.8141 33.1583 44.8129 32.6371 44.8116 32.0651Z" fill="#DEDEDE"/>
<path d="M65.3618 8H135.184V8.91958H65.3618V8Z" fill="#DEDEDE"/>
<path d="M114.608 45.3661V47.0739C114.608 48.1002 114.099 48.6092 113.073 48.6092H112.769C111.743 48.6092 111.234 48.1002 111.234 47.0739V41.7288C111.234 40.7025 111.743 40.1935 112.769 40.1935H113.073C114.091 40.1935 114.584 40.6861 114.584 41.7042V43.1985H113.664V41.6878C113.664 41.2608 113.459 41.0638 113.04 41.0638H112.802C112.375 41.0638 112.178 41.2608 112.178 41.6878V47.1313C112.178 47.5583 112.383 47.7553 112.802 47.7553H113.065C113.492 47.7553 113.689 47.5501 113.689 47.1313V45.3661H114.608Z" fill="#DEDEDE"/>
<path d="M79.1554 47.074V45.8671L79.1718 45.8835C79.1718 45.1774 78.983 44.7833 78.3754 44.3482L77.2259 43.5189C76.955 43.3136 76.799 43.133 76.799 42.7225V41.6797C76.799 41.261 76.9961 41.0557 77.423 41.0557H77.5872C78.0142 41.0557 78.2112 41.2528 78.2112 41.6797V43.2069H79.1308V41.7126C79.1308 40.7109 78.6382 40.2019 77.6201 40.2019H77.382C76.3556 40.2019 75.8466 40.7109 75.8466 41.7372V42.7307C75.8466 43.4039 76.019 43.8309 76.6348 44.266L77.7925 45.1035C78.0634 45.3006 78.203 45.4812 78.203 45.8917V47.1315C78.203 47.5502 78.0059 47.7555 77.579 47.7555H77.3902C76.9632 47.7555 76.7662 47.5585 76.7662 47.1315V45.358H75.8466V47.0987C75.8466 48.1003 76.3392 48.6094 77.3573 48.6094H77.6201C78.6464 48.6094 79.1554 48.1003 79.1554 47.074Z" fill="#DEDEDE"/>
<path fill-rule="evenodd" clip-rule="evenodd" d="M68.8759 47C68.8759 48.0263 68.3668 48.5354 67.3405 48.5354H65.5917V40.2592H67.3159C68.3422 40.2592 68.8512 40.7683 68.8512 41.7946V43.0097C68.8512 43.7405 68.6049 44.1181 68.1287 44.2988C68.6131 44.4876 68.8759 44.8653 68.8759 45.596V47ZM67.2912 41.1131H66.5194V43.8883H67.2173C67.6936 43.8883 67.9152 43.6666 67.9152 43.1904V41.7371C67.9152 41.3102 67.7182 41.1131 67.2912 41.1131ZM67.3077 47.6897C67.7346 47.6897 67.9317 47.4844 67.9317 47.0657V45.4318C67.9317 44.9556 67.71 44.7339 67.2338 44.7339H66.5112V47.6897H67.3077Z" fill="#DEDEDE"/>
<path d="M74.0485 47.0739C74.0485 48.1002 73.5395 48.6093 72.5131 48.6093H72.2176C71.1912 48.6093 70.6822 48.1002 70.6822 47.0739V40.2592H71.6264V47.1232C71.6264 47.5501 71.8317 47.7472 72.2504 47.7472H72.4721C72.899 47.7472 73.0961 47.5419 73.0961 47.1232V40.2592H74.0403V47.0739H74.0485Z" fill="#DEDEDE"/>
<path d="M81.9059 48.5354H80.9617V40.2592H81.9059V48.5354Z" fill="#DEDEDE"/>
<path d="M87.3003 40.2592H86.4053V46.2529L85.0342 40.2592H83.7287V48.5354H84.6237V42.0655L86.118 48.5354H87.3003V40.2592Z" fill="#DEDEDE"/>
<path d="M91.7422 40.2592V41.1377H90.0836V43.88H91.6847V44.7421H90.0836V47.6651H91.7586V48.5436H89.1312V40.2674H91.734L91.7422 40.2592Z" fill="#DEDEDE"/>
<path d="M96.808 47.074V45.8671L96.8162 45.8835C96.8162 45.1774 96.6192 44.7833 96.0198 44.3482L94.8703 43.5189C94.5994 43.3136 94.4434 43.133 94.4434 42.7225V41.6797C94.4434 41.261 94.6404 41.0557 95.0674 41.0557H95.2316C95.6503 41.0557 95.8556 41.2528 95.8556 41.6797V43.2069H96.7752V41.7126C96.7752 40.7109 96.2826 40.2019 95.2645 40.2019H95.0263C94 40.2019 93.491 40.7109 93.491 41.7372V42.7307C93.491 43.4039 93.6716 43.8309 94.2874 44.266L95.4451 45.1035C95.716 45.3006 95.8556 45.4812 95.8556 45.8917V47.1315C95.8556 47.5502 95.6586 47.7555 95.2316 47.7555H95.0428C94.624 47.7555 94.4188 47.5585 94.4188 47.1315V45.358H93.4992V47.0987C93.4992 48.1003 93.9918 48.6094 95.0099 48.6094H95.2727C96.299 48.6094 96.808 48.1003 96.808 47.074Z" fill="#DEDEDE"/>
<path d="M101.899 45.8671V47.074C101.899 48.1003 101.39 48.6094 100.363 48.6094H100.1C99.0824 48.6094 98.5897 48.1003 98.5897 47.0987V45.358H99.5093V47.1315C99.5093 47.5585 99.7146 47.7555 100.133 47.7555H100.322C100.749 47.7555 100.946 47.5502 100.946 47.1315V45.8917C100.946 45.4812 100.807 45.3006 100.536 45.1035L99.378 44.266C98.7622 43.8309 98.5897 43.4039 98.5897 42.7307V41.7372C98.5897 40.7109 99.0988 40.2019 100.125 40.2019H100.363C101.381 40.2019 101.874 40.7109 101.874 41.7126V43.2069H100.954V41.6797C100.954 41.2528 100.749 41.0557 100.33 41.0557H100.166C99.7392 41.0557 99.5422 41.261 99.5422 41.6797V42.7225C99.5422 43.133 99.6982 43.3136 99.9691 43.5189L101.119 44.3482C101.726 44.7833 101.915 45.1774 101.915 45.8835L101.899 45.8671Z" fill="#DEDEDE"/>
<path d="M109.444 47.074V45.8671L109.452 45.8835C109.452 45.1774 109.263 44.7833 108.664 44.3482L107.515 43.5189C107.244 43.3136 107.088 43.133 107.088 42.7225V41.6797C107.088 41.261 107.285 41.0557 107.712 41.0557H107.876C108.303 41.0557 108.5 41.2528 108.5 41.6797V43.2069H109.419V41.7126C109.419 40.7109 108.927 40.2019 107.909 40.2019H107.671C106.644 40.2019 106.135 40.7109 106.135 41.7372V42.7307C106.135 43.4039 106.308 43.8309 106.923 44.266L108.081 45.1035C108.352 45.3006 108.492 45.4812 108.492 45.8917V47.1315C108.492 47.5502 108.295 47.7555 107.868 47.7555H107.679C107.26 47.7555 107.055 47.5585 107.055 47.1315V45.358H106.135V47.0987C106.135 48.1003 106.628 48.6094 107.646 48.6094H107.909C108.935 48.6094 109.444 48.1003 109.444 47.074Z" fill="#DEDEDE"/>
<path d="M118.886 40.2592V43.8636H117.351V40.2592H116.407V48.5354H117.351V44.7504H118.886V48.5354H119.83V40.2592H118.886Z" fill="#DEDEDE"/>
<path fill-rule="evenodd" clip-rule="evenodd" d="M123.541 48.6092H123.188C122.162 48.6092 121.653 48.1002 121.653 47.0739V41.7288C121.653 40.7025 122.162 40.1935 123.188 40.1935H123.541C124.568 40.1935 125.077 40.7025 125.077 41.7288V47.0739C125.077 48.1002 124.568 48.6092 123.541 48.6092ZM123.509 41.0556H123.221C122.794 41.0556 122.597 41.2526 122.597 41.6796V47.1231C122.597 47.5501 122.802 47.7471 123.221 47.7471H123.509C123.936 47.7471 124.133 47.5419 124.133 47.1231V41.6796C124.133 41.2526 123.927 41.0556 123.509 41.0556Z" fill="#DEDEDE"/>
<path fill-rule="evenodd" clip-rule="evenodd" d="M128.419 48.6092H128.772C129.798 48.6092 130.307 48.1002 130.307 47.0739V41.7288C130.307 40.7025 129.798 40.1935 128.772 40.1935H128.419C127.392 40.1935 126.883 40.7025 126.883 41.7288V47.0739C126.883 48.1002 127.392 48.6092 128.419 48.6092ZM128.451 41.0556H128.739C129.166 41.0556 129.363 41.2526 129.363 41.6796V47.1231C129.363 47.5419 129.166 47.7471 128.739 47.7471H128.451C128.024 47.7471 127.827 47.5501 127.827 47.1231V41.6796C127.827 41.2526 128.024 41.0556 128.451 41.0556Z" fill="#DEDEDE"/>
<path d="M133.074 40.2674V47.6651H134.634V48.5436H132.13V40.2674H133.074Z" fill="#DEDEDE"/>
<path d="M83.6548 26.498V30.8003C83.6548 33.091 82.5217 34.2241 80.231 34.2241H78.8352C76.5445 34.2241 75.4032 33.091 75.4032 30.8003V18.8787C75.4032 16.588 76.5363 15.4467 78.8352 15.4467H80.2063C82.4971 15.4467 83.6137 16.5551 83.6137 18.8458V22.6145H80.8468V19.0018C80.8468 18.2629 80.5019 17.9181 79.7958 17.9181H79.3196C78.5807 17.9181 78.2358 18.2629 78.2358 19.0018V30.6607C78.2358 31.3997 78.5807 31.7445 79.3196 31.7445H79.8451C80.5594 31.7445 80.9042 31.3997 80.9042 30.6607V26.498H83.6548Z" fill="#DEDEDE"/>
<path fill-rule="evenodd" clip-rule="evenodd" d="M74.2866 34.0686H71.5032L71.1338 31.1703H68.2026L67.8578 34.0686H65.2468L67.8824 15.5868H71.6264L74.2866 34.0686ZM68.5228 28.6661H70.8136L69.6805 19.4375L68.5228 28.6661Z" fill="#DEDEDE"/>
<path fill-rule="evenodd" clip-rule="evenodd" d="M90.9786 34.0686H93.7701L91.1099 15.5868H87.3659L84.7303 34.0686H87.3413L87.6861 31.1703H90.6091L90.9786 34.0686ZM90.2971 28.6661H88.0063L89.164 19.4375L90.2971 28.6661Z" fill="#DEDEDE"/>
<path fill-rule="evenodd" clip-rule="evenodd" d="M95.0674 15.6111H99.3122C102.055 15.6111 103.344 16.9329 103.344 19.6424V30.0369C103.344 32.7546 102.055 34.0682 99.3122 34.0682H95.0674V15.6111ZM97.8918 31.5887H98.9181C100.027 31.5887 100.527 31.0632 100.527 29.9548V19.7245C100.527 18.6161 100.027 18.0906 98.9181 18.0906H97.8918V31.5887Z" fill="#DEDEDE"/>
<path d="M111.242 18.1645V15.6111H104.961V34.0682H111.291V31.5148H107.786V25.9481H110.076V23.3864H107.786V18.1645H111.242Z" fill="#DEDEDE"/>
<path d="M120.799 15.6111L119.013 28.5785L117.228 15.6111H113.007V34.0682H115.429V20.1679L117.457 34.0682H120.2L122.228 20.2253V34.0682H124.995V15.6111H120.799Z" fill="#DEDEDE"/>
<path d="M135.126 15.6111H132.401L130.742 23.3864L129.133 15.6111H126.234L129.272 27.7379V34.0682H132.097V27.6066L135.126 15.6111Z" fill="#DEDEDE"/>
</g>
</g>
</svg>
