<svg width="168" height="41" viewBox="0 0 168 41" fill="none" xmlns="http://www.w3.org/2000/svg">
<g id="logoreplay" clip-path="url(#clip0_1071_720)">
<g id="Group">
<g id="Group_2">
<g id="Clip path group">
<mask id="mask0_1071_720" style="mask-type:luminance" maskUnits="userSpaceOnUse" x="-27" y="5" width="247" height="86">
<g id="SVGID_2_">
<path id="Vector" d="M-26.7544 90.9201V5.54199H219.964V90.9201" fill="white"/>
</g>
</mask>
<g mask="url(#mask0_1071_720)">
<g id="Group_3">
<path id="Vector_2" fill-rule="evenodd" clip-rule="evenodd" d="M10.7881 30.7524V9.37429C10.8562 8.36588 10.1749 7.42471 9.22096 7.1558C8.19893 6.81966 7.51758 6.68521 7.51758 6.21462C7.51758 5.94571 7.72198 5.74403 7.99453 5.67681H8.06266H21.9623C24.6877 5.67681 30.5474 7.76084 30.343 13.9457C30.343 16.2314 29.0484 18.3827 26.9362 19.4583C25.846 20.1306 24.7558 20.534 24.347 20.8029C24.2108 20.8701 24.1426 21.0045 24.2108 21.139C24.2108 21.139 24.2108 21.2062 24.2789 21.2062C24.7558 21.8785 30.7518 30.0802 30.7518 30.0802C31.6375 31.2903 32.7277 32.6348 34.4992 33.2398C35.6575 33.6432 36.2026 33.7104 36.2026 34.1138C36.2026 34.5171 35.9982 34.5171 35.6575 34.4499H29.0484C28.844 34.4499 28.6396 34.3155 28.5033 34.1138C23.2569 27.1222 20.5996 23.6264 18.9643 21.6096C18.6237 21.139 16.2389 21.2734 16.0345 21.4751C15.9664 21.5424 15.9664 21.6096 15.9664 21.744V31.0213C16.0345 31.9625 16.6477 32.7692 17.5335 33.0382C18.5555 33.3743 19.2369 33.5087 19.2369 33.9793C19.2369 34.2482 19.0325 34.4499 18.7599 34.5171H18.6918H8.06266C7.79012 34.5171 7.58571 34.3827 7.51758 34.1138V34.0466C7.51758 33.576 8.19893 33.4415 9.22096 33.1054C10.1749 32.6348 10.7881 31.7608 10.7881 30.7524ZM24.6877 13.4079C24.824 20.3323 16.9203 19.4583 16.3752 19.3911C16.1026 19.3239 15.8982 19.1222 15.8301 18.8533V8.50034C15.8301 8.29866 16.1708 8.02975 16.5115 7.96252C16.8521 7.82807 24.4833 6.48353 24.6877 13.4079ZM64.8876 9.23983C64.8195 8.29866 64.1381 7.42471 63.2524 7.1558C62.2303 6.81966 61.549 6.68521 61.549 6.21462C61.549 5.94571 61.7534 5.74403 62.0259 5.67681H62.0941H75.653C78.2422 5.67681 83.8293 7.22303 83.8293 13.5424C83.8293 21.4079 75.1079 21.9457 70.1341 21.2062C69.9978 21.2062 69.8615 21.2062 69.8615 21.5424V30.8869C69.8615 31.8953 70.5429 32.702 71.4286 33.0382C72.4507 33.3743 73.132 33.5087 73.132 33.9793C73.132 34.2482 72.9276 34.4499 72.6551 34.5171H72.5869H62.0941C61.8215 34.5171 61.549 34.3827 61.549 34.0466V33.9793C61.549 33.5087 62.2303 33.3743 63.2524 33.0382C64.2063 32.7692 64.8195 31.8953 64.8195 30.9541L64.8876 9.23983ZM78.4466 13.6768C78.3784 19.5928 72.6551 19.3911 70.6791 19.055C70.2703 18.9877 69.8615 18.8533 69.8615 18.6516V9.57597C69.8615 9.30706 69.8615 9.03815 69.9297 8.83647C70.1341 8.43311 70.5429 8.1642 71.0198 8.02975C73.609 7.08857 78.5147 8.9037 78.4466 13.6768ZM133.568 31.0886C133.841 31.5592 134.25 32.702 135.067 33.0382C136.089 33.4415 136.771 33.5087 136.771 33.9793C136.771 34.3155 136.566 34.3827 136.225 34.3827H125.937C125.596 34.3827 125.46 34.3155 125.46 34.0466C125.46 33.576 125.937 33.4415 127.095 33.1726C127.64 33.0382 128.39 32.9037 128.458 32.0297C128.458 31.9625 126.005 26.3155 125.733 25.8449C125.596 25.576 125.324 25.1726 124.983 25.1726H115.921C115.376 25.1726 115.376 25.3743 115.172 25.7104C114.899 26.2482 112.582 31.8953 112.582 31.9625C112.31 32.7692 113.332 33.0382 113.877 33.1726C115.035 33.4415 115.444 33.576 115.444 33.9793C115.444 34.3827 115.24 34.3155 114.899 34.3155H106.995C106.655 34.3155 106.45 34.181 106.45 33.9121C106.45 33.4415 107.132 33.3743 108.154 32.9709C109.039 32.6348 109.653 31.0213 109.653 31.0213C111.015 27.8617 120.418 6.61798 120.759 5.87849C120.895 5.47513 121.849 5.54235 122.053 5.81126C122.53 6.81966 133.568 31.0886 133.568 31.0886ZM120.077 14.5508C120.35 14.0802 120.622 14.0802 120.759 14.4835C120.895 14.7524 123.757 21.2734 124.234 22.2146C124.37 22.5508 124.029 22.618 123.825 22.618H117.011C116.943 22.618 116.534 22.5508 116.671 22.2146C116.943 21.2734 120.009 14.6852 120.077 14.5508ZM83.8293 34.4499C83.5567 34.4499 83.3523 34.3155 83.2842 34.0466V33.9793C83.2842 33.5087 83.9656 33.3071 84.9876 32.9709C86.0096 32.702 86.691 31.7608 86.691 30.7524V9.37429C86.691 8.36588 86.0096 7.42471 85.0557 7.1558C84.0337 6.81966 83.3523 6.68521 83.3523 6.21462C83.3523 5.94571 83.5567 5.74403 83.8293 5.67681H83.8974H94.5266C94.7991 5.67681 95.0035 5.81126 95.0716 6.08017V6.1474C95.0716 6.61798 94.3221 6.81966 93.3001 7.08857C92.3462 7.35748 91.6649 8.23143 91.6649 9.23983V31.2903C91.6649 31.6936 92.2099 32.0297 92.5506 32.0297C92.5506 32.0297 99.296 33.0382 103.112 30.8197C104.679 29.8785 105.224 29.2062 106.246 26.9877C106.655 26.0466 107.404 26.5844 107.268 26.9877C106.995 27.7945 105.496 32.702 104.951 34.1138C104.883 34.3827 104.747 34.3827 104.406 34.4499H83.8293ZM40.4951 30.7524V9.17261C40.4951 7.82807 39.2687 7.35748 38.4511 7.1558C37.3609 6.81966 36.6114 6.61798 36.6114 6.21462C36.6114 5.94571 36.8158 5.67681 37.0884 5.67681C37.0884 5.67681 37.0884 5.67681 37.1565 5.67681H57.3927C57.8015 5.67681 58.8236 5.54235 58.8236 6.28185C58.8236 6.81966 59.3687 11.1222 59.3005 11.1894C59.2324 11.4583 58.8236 11.3911 58.7554 11.2566C58.1422 10.2482 57.6653 9.23983 56.507 8.50034C55.6893 8.02975 54.8036 7.82807 53.9178 7.89529H46.0822C45.6053 7.89529 45.469 7.96252 45.469 8.43311V17.5087C45.469 17.9793 45.6734 17.9793 46.0822 17.9793H52.5551C53.9178 17.9793 55.008 17.1726 55.6893 14.5508C55.8937 13.8113 55.8937 13.4079 56.3026 13.4079C56.507 13.4079 56.7795 13.6096 56.7795 13.744V23.4247C56.7795 23.8281 56.507 24.097 56.1663 24.1642C55.8256 24.1642 55.7575 23.5592 55.6893 23.1558C55.2124 20.4667 53.8497 20.1306 52.6914 20.1306H45.8778C45.6053 20.1306 45.5372 20.1978 45.5372 20.4667V31.4919C45.5372 31.9625 45.946 32.0297 46.2866 32.0297C46.2866 32.0297 54.8036 32.1642 57.6653 31.223C59.3687 30.4835 59.8456 29.4751 60.9358 26.9877C61.2764 26.181 62.0259 26.6516 61.8897 27.055C61.6853 27.8617 60.1863 32.5676 59.5731 34.0466C59.5049 34.3155 59.3687 34.3155 59.028 34.3827H37.7697C37.4972 34.3827 37.2928 34.2482 37.2246 33.9793V33.9121C37.2246 33.4415 37.906 33.3071 38.928 32.9709C39.8819 32.6348 40.4951 31.7608 40.4951 30.7524ZM139.36 34.3827C139.087 34.3827 138.815 34.2482 138.815 33.9793V33.9121C138.815 33.5087 139.496 33.3743 140.518 32.9709C140.995 32.7692 142.221 32.5003 142.221 30.2818V22.8197C142.221 22.618 142.153 22.3491 142.085 22.1474C140.859 19.7945 134.045 8.56756 134.045 8.56756C133.636 7.82807 132.955 7.29025 132.205 7.02134C130.911 6.68521 130.161 6.68521 130.161 6.08017C130.161 5.87849 130.434 5.67681 130.706 5.67681H140.927C141.267 5.67681 141.744 5.74403 141.744 6.21462C141.744 6.75244 141.336 6.68521 140.518 6.88689C139.973 6.95412 139.564 7.42471 139.564 8.02975C139.564 8.23143 139.632 8.36588 139.768 8.50034C139.768 8.50034 145.287 18.181 145.492 18.5171C145.56 18.6516 145.764 18.7188 145.901 18.6516C145.969 18.6516 145.969 18.5844 146.037 18.5171C146.514 18.0466 152.169 8.56756 152.169 8.56756C152.578 7.69361 152.169 7.22303 151.488 6.95412C150.806 6.68521 150.329 6.55076 150.261 6.1474C150.261 5.60958 150.806 5.67681 151.147 5.67681H159.051C159.255 5.67681 159.528 5.81126 159.528 6.08017C159.528 6.55076 158.915 6.68521 157.756 7.02134C156.939 7.35748 156.189 7.89529 155.712 8.56756C155.712 8.56756 148.831 19.7272 147.468 22.1474C147.332 22.3491 147.263 22.618 147.332 22.8197V30.3491C147.332 32.5676 148.49 32.8365 149.035 33.0382C150.057 33.4415 150.738 33.576 150.738 33.9793C150.738 34.2482 150.534 34.4499 150.261 34.4499H150.193L139.36 34.3827Z" fill="#D11317"/>
</g>
</g>
</g>
</g>
</g>
</g>
<defs>
<clipPath id="clip0_1071_720">
<rect width="167" height="40" fill="white" transform="translate(0.5 0.5)"/>
</clipPath>
</defs>
</svg>
