<svg width="153" height="48" viewBox="0 0 153 48" fill="none" xmlns="http://www.w3.org/2000/svg">
<g id="logoUTA 1" clip-path="url(#clip0_1194_1913)">
<path id="Vector" d="M122.672 22.0719C122.743 22.0236 122.791 22.0113 122.797 21.9865C123.376 19.9321 124.916 19.1769 126.866 18.9679C127.636 18.887 128.398 18.9881 129.158 19.0994C129.47 19.1443 129.551 19.2769 129.474 19.586C129.31 20.2378 129.17 20.8964 129.042 21.5561C128.986 21.8404 128.87 21.9517 128.592 21.8359C128.54 21.8142 128.486 21.7969 128.431 21.7842C126.781 21.4201 125.855 22.109 125.812 23.8263C125.765 25.6784 125.782 27.535 125.812 29.386C125.812 29.8074 125.71 29.9344 125.286 29.9131C124.557 29.8771 123.825 29.9232 123.096 29.8951C122.742 29.8816 122.62 30.0153 122.534 30.3446C121.548 34.0288 119.655 37.4073 117.028 40.1716C113.585 43.8196 109.417 46.2606 104.481 47.099C94.7663 48.7466 86.8678 45.584 80.9316 37.7137C78.8334 34.9311 77.5994 31.736 76.9712 28.3037C77.0195 28.3037 77.0768 28.288 77.0836 28.3037C77.6534 29.4455 78.6334 29.8636 79.8449 29.8659C81.7925 29.8659 83.7402 29.858 85.6889 29.8748C86.016 29.8748 86.1463 29.7917 86.1879 29.4624C86.2846 28.7027 86.4205 27.9486 86.5397 27.199C86.3149 27.0933 86.1047 27.136 85.9024 27.136C84.3111 27.136 82.7186 27.136 81.1272 27.136C80.1877 27.136 79.755 26.7224 79.7134 25.7773C79.6909 25.2727 79.728 24.7658 79.6965 24.2612C79.6729 23.8971 79.8213 23.8274 80.1461 23.8308C81.6262 23.8454 83.1052 23.8207 84.5842 23.8476C85.0079 23.8555 85.1843 23.7352 85.2281 23.3082C85.2875 22.7289 85.3848 22.1541 85.5192 21.5876C85.6046 21.2279 85.4855 21.1864 85.1742 21.1886C83.5266 21.1998 81.8791 21.1807 80.2292 21.2021C79.8314 21.2077 79.6673 21.1403 79.692 20.693C79.7298 20.0192 79.7298 19.3438 79.692 18.6701C79.6729 18.2891 79.8044 18.2003 80.1663 18.2025C81.9824 18.2183 83.7997 18.1969 85.6159 18.2205C86.0508 18.2205 86.2475 18.1351 86.2789 17.6586C86.3317 17.0813 86.4236 16.5083 86.5543 15.9436C86.6341 15.557 86.5442 15.4289 86.1227 15.4334C83.7626 15.4525 81.4025 15.4423 79.0425 15.4423H78.4187C80.8215 8.68688 88.7964 0.67269 100.446 0.916565C112.167 1.16494 121.376 9.94446 122.672 22.0719ZM95.771 20.203C95.2034 19.6961 94.6606 19.3635 94.0425 19.205C91.9465 18.6689 89.991 18.9802 88.4075 20.4986C86.86 21.9843 86.5149 23.8971 86.9971 25.9335C87.5905 28.4419 89.664 29.9603 92.5152 30.0749C96.2318 30.2232 98.6627 28.1127 98.8211 24.4163C98.9425 21.5595 98.8638 18.6948 98.8886 15.8323C98.8886 15.4952 98.7514 15.4334 98.4559 15.4401C97.7456 15.457 97.0331 15.4693 96.3206 15.4401C95.898 15.421 95.744 15.5188 95.7586 15.9807C95.7923 17.3405 95.771 18.706 95.771 20.203ZM109.336 27.1495C108.29 27.6114 107.265 27.8632 106.177 27.7114C104.978 27.5462 104.002 27.0472 103.49 25.8751C103.318 25.4828 103.328 25.2772 103.869 25.2839C106.079 25.3098 108.288 25.294 110.5 25.294C111.47 25.294 111.47 25.294 111.42 24.3241C111.276 21.5347 109.716 19.6332 107.12 19.105C106.293 18.9326 105.441 18.9131 104.607 19.0477C102.478 19.3938 100.876 20.4761 100.218 22.5664C99.5438 24.6916 99.8337 26.7247 101.454 28.4004C103.441 30.4638 107.031 30.3109 108.885 29.6501C108.957 29.63 109.02 29.5866 109.065 29.5268C109.109 29.4671 109.133 29.3942 109.131 29.3197C109.195 28.6195 109.263 27.9171 109.336 27.1495ZM112.177 26.138C112.177 27.2417 112.186 28.3464 112.17 29.45C112.17 29.7568 112.238 29.8782 112.57 29.8681C113.318 29.8445 114.067 29.8423 114.818 29.8681C115.163 29.8805 115.268 29.7816 115.257 29.4321C115.235 28.3655 115.236 27.2967 115.257 26.2324C115.273 25.2805 115.175 24.3219 115.34 23.3756C115.529 22.2832 116.19 21.6977 117.291 21.6595C118.446 21.6202 119.152 22.1484 119.416 23.2329C119.481 23.5249 119.512 23.8237 119.507 24.123C119.507 25.8818 119.516 27.6406 119.498 29.3995C119.498 29.7636 119.588 29.8805 119.96 29.8659C120.707 29.8366 121.458 29.84 122.207 29.8659C122.56 29.8771 122.645 29.7535 122.642 29.4163C122.628 27.3934 122.654 25.3705 122.63 23.3475C122.606 21.3246 121.553 19.8714 119.7 19.2949C118.445 18.8982 117.107 18.8362 115.821 19.1151C113.32 19.6478 112.186 21.0526 112.186 23.6015L112.177 26.138Z" fill="#FE2310"/>
<path id="Vector_2" d="M25.8426 44.2035C25.0008 44.2035 24.1568 44.1979 23.3173 44.2035C22.5845 44.2102 22.3227 44.0248 22.2665 43.2741C22.108 41.1309 21.9833 38.9843 21.8495 36.8389C21.5251 31.5942 21.2018 26.3496 20.8796 21.105C20.6762 17.802 20.4672 14.499 20.2795 11.1948C20.1963 9.72259 20.0873 9.62144 18.6881 10.0631L2.32822 15.1856C2.1675 15.2351 2.00792 15.298 1.84383 15.3295C1.28191 15.4419 0.902047 15.2385 0.782919 14.6878C0.503079 13.3908 0.255832 12.0872 0.00970807 10.7835C-0.0824478 10.2924 0.234479 10.0901 0.643561 9.93725C2.60019 9.2 4.5512 8.44927 6.51232 7.7064C12.7587 5.33432 19.0058 2.96225 25.2537 0.590172C25.4141 0.521079 25.5868 0.484789 25.7614 0.483438C25.9361 0.482087 26.1093 0.515702 26.2708 0.582305C34.3842 3.6729 42.4999 6.75862 50.6179 9.83947C51.5327 10.1867 51.6754 10.4419 51.4934 11.4129C51.3113 12.3839 51.1214 13.3583 50.9315 14.3349C50.7415 15.3115 50.3695 15.5295 49.4311 15.2418C46.3593 14.2963 43.2911 13.3463 40.2268 12.3917C37.6576 11.5949 35.0919 10.7903 32.5239 9.99456C31.5383 9.68888 31.336 9.8406 31.273 10.8835C30.7995 18.7542 30.3245 26.6276 29.848 34.5035C29.6794 37.3221 29.5221 40.1408 29.3602 42.9594C29.2995 44.0259 29.1445 44.1731 28.0914 44.1709H25.8426V44.2035Z" fill="#FE2310"/>
<path id="Vector_3" d="M42.5342 44.1703C41.9161 44.1703 41.298 44.1759 40.681 44.1703C39.9235 44.1613 39.6414 43.8859 39.7167 43.1352C39.9067 41.2381 40.1281 39.3445 40.3405 37.4496C40.4191 36.7439 40.5079 36.0392 40.5933 35.3334C40.6293 35.0334 40.5383 34.8333 40.2101 34.7591C39.919 34.694 39.6392 34.5827 39.3537 34.4928C38.6053 34.2557 38.3805 34.3568 38.249 35.1671C38.0624 36.3089 37.9444 37.4631 37.8084 38.6128C37.6174 40.2282 37.4334 41.8443 37.2566 43.4611C37.2038 43.9534 36.9914 44.1883 36.4699 44.1804C34.9718 44.1602 33.4749 44.1804 31.9745 44.1714C31.3216 44.1714 31.0575 43.9129 31.0889 43.3015C31.3594 37.982 31.634 32.6624 31.9127 27.3428C32.1071 23.6656 32.3342 19.9895 32.5196 16.3122C32.5814 15.0906 33.1208 14.1241 33.975 13.3183C34.5942 12.735 35.373 12.5945 36.1744 12.8519C40.0659 14.0994 43.954 15.3588 47.8388 16.6303C48.7379 16.9225 49.1088 17.6845 49.383 18.5004C49.8235 19.8142 49.5797 21.1291 49.3347 22.4339C48.0422 29.3178 46.7453 36.201 45.4439 43.0835C45.2562 44.0781 45.1461 44.1703 44.1088 44.1703H42.5342ZM42.5084 21.6528C42.5084 21.2898 42.4398 21.0122 42.142 20.8964C41.7466 20.7325 41.3369 20.6054 40.9181 20.5166C40.2843 20.4042 40.0258 20.629 39.9415 21.2673C39.7842 22.4496 39.6471 23.6353 39.4684 24.8153C39.1717 26.7674 39.2043 26.5887 41.0418 27.1642C41.5441 27.3215 41.7588 27.1642 41.8566 26.6371C41.9285 26.2527 41.9689 25.8627 42.0206 25.4739C42.187 24.1803 42.3511 22.8856 42.5084 21.6528Z" fill="#FE2310"/>
<path id="Vector_4" d="M13.049 44.1707C11.7004 44.1707 10.3518 44.1707 9.00317 44.1707C7.20501 44.1707 6.09689 43.2469 5.75973 41.4847C4.27999 33.7421 2.801 25.9995 1.32276 18.2569C1.17329 17.4759 1.27444 17.2882 2.01168 17.051C3.57609 16.5476 5.14236 16.0504 6.71051 15.5597C7.76693 15.2315 8.09397 15.4619 8.2603 16.5521C9.1414 22.3354 10.0274 28.1172 10.9182 33.8976C11.0306 34.673 11.1711 35.4463 11.279 36.2228C11.3385 36.6499 11.5341 36.8657 11.9847 36.8117C12.1532 36.8033 12.322 36.8033 12.4905 36.8117C13.0738 36.7971 13.2772 36.5982 13.2221 36.0172C13.0614 34.4179 12.885 32.8198 12.7018 31.2228C12.3084 27.7104 11.9124 24.1991 11.5139 20.689C11.3037 18.8312 11.1003 16.9724 10.8811 15.1169C10.7856 14.31 10.8631 14.1785 11.6172 13.9413C13.3986 13.3794 15.1765 12.8175 16.9567 12.2556C17.0275 12.2331 17.1005 12.214 17.1713 12.1915C18.266 11.8544 18.6481 12.1072 18.7121 13.2693C18.9066 16.7397 19.0875 20.2113 19.2741 23.6829C19.564 28.9275 19.8566 34.1722 20.1518 39.4168C20.181 39.9585 20.2136 40.5002 20.2158 41.0419C20.2226 42.9053 18.9616 44.1685 17.087 44.1786C15.7452 44.1763 14.3965 44.1707 13.049 44.1707Z" fill="#FE2310"/>
<path id="Vector_5" d="M149.838 20.1087C149.838 18.6218 149.853 17.2406 149.828 15.8616C149.828 15.4829 149.941 15.3851 150.3 15.3964C151.067 15.4211 151.834 15.4143 152.602 15.3964C152.883 15.3907 152.992 15.4627 152.991 15.7683C152.98 18.7061 153.044 21.645 152.965 24.5793C152.88 27.7733 150.648 29.9289 147.458 30.0862C146.283 30.1447 145.145 30.0345 144.064 29.5456C141.675 28.4667 140.46 25.9808 140.989 23.2656C141.487 20.7155 143.526 19.0298 146.197 18.9399C147.511 18.9005 148.717 19.1781 149.838 20.1087ZM144.202 24.5164C144.202 26.2101 145.326 27.3699 146.974 27.3721C148.66 27.3721 149.826 26.2123 149.819 24.5232C149.813 22.834 148.639 21.6787 146.948 21.6967C145.308 21.718 144.202 22.852 144.202 24.5164Z" fill="#FE2310"/>
<path id="Vector_6" d="M138.466 27.0934C138.385 27.9116 138.307 28.6151 138.253 29.3197C138.253 29.4133 138.221 29.5039 138.161 29.5755C138.1 29.6472 138.017 29.6951 137.925 29.7108C135.707 30.3144 133.52 30.3852 131.467 29.177C129.509 28.0284 128.599 25.7009 129.066 23.2296C129.472 21.083 131.232 19.4085 133.449 19.0522C134.428 18.8791 135.431 18.9004 136.402 19.1152C138.823 19.6771 140.318 21.4753 140.514 24.0208C140.615 25.3312 140.615 25.3312 139.331 25.3312H133.044C132.438 25.3312 132.392 25.3986 132.658 25.9572C133.22 27.135 134.254 27.5744 135.468 27.7048C136.494 27.8172 137.458 27.5306 138.466 27.0934ZM137.111 23.215C137.017 22.063 136.192 21.2595 135.072 21.1921C133.812 21.119 132.696 21.8664 132.446 22.9318C132.387 23.1813 132.48 23.215 132.69 23.2139C134.163 23.2127 135.635 23.215 137.111 23.215Z" fill="#FE2310"/>
<path id="Vector_7" d="M64.1189 25.9693V7.71686C64.1189 7.56739 64.1088 7.41679 64.1189 7.26732C64.1493 6.93016 64.2931 6.69528 64.6809 6.70539C65.0349 6.71214 65.1686 6.93803 65.2023 7.24709C65.2102 7.39683 65.2102 7.54689 65.2023 7.69663C65.2023 19.8455 65.2023 31.9943 65.2023 44.1431C65.2023 44.2937 65.2091 44.4432 65.2023 44.5927C65.1776 44.9377 65.0113 45.1681 64.6404 45.1614C64.3032 45.1557 64.1459 44.9366 64.1178 44.6152C64.1054 44.4668 64.1178 44.3162 64.1178 44.1656L64.1189 25.9693Z" fill="#FE2310"/>
<path id="Vector_8" d="M92.8692 27.3906C91.1834 27.3906 90.0596 26.2262 90.0596 24.5124C90.0596 22.7985 91.2149 21.6544 92.9052 21.6612C94.6291 21.669 95.7508 22.8232 95.7373 24.5832C95.7238 26.2926 94.5977 27.3962 92.8692 27.3906Z" fill="#FE2310"/>
<path id="Vector_9" d="M105.636 23.2346C104.962 23.2346 104.288 23.2245 103.619 23.2346C103.337 23.2403 103.259 23.1571 103.336 22.8784C103.603 21.9107 104.533 21.1926 105.589 21.1712C106.825 21.1398 107.66 21.6691 107.987 22.6862C108.1 23.0515 108.1 23.2751 107.596 23.2403C106.949 23.2009 106.293 23.2346 105.636 23.2346Z" fill="#FE2310"/>
</g>
<defs>
<clipPath id="clip0_1194_1913">
<rect width="153.011" height="47.0444" fill="white" transform="translate(-0.00585938 0.477539)"/>
</clipPath>
</defs>
</svg>
