<svg width="135" height="32" viewBox="0 0 135 32" fill="none" xmlns="http://www.w3.org/2000/svg">
<g id="Yeldo_logo 1" clip-path="url(#clip0_1194_9080)">
<path id="Union" fill-rule="evenodd" clip-rule="evenodd" d="M108.616 15.796C108.616 22.4551 113.212 27.8055 119.904 27.8055C126.597 27.8055 131.193 22.4551 131.193 15.796C131.193 9.13843 126.597 3.78644 119.904 3.78644C113.212 3.78644 108.616 9.13684 108.616 15.796ZM104.988 15.796C104.988 7.0543 111.237 0.599609 119.904 0.599609C128.571 0.599609 134.82 7.0543 134.82 15.796C134.82 24.5371 128.571 30.9918 119.904 30.9918C111.237 30.9918 104.988 24.5371 104.988 15.796ZM48.2494 13.581H28.1683V13.5767C28.2523 12.3077 28.5694 11.0742 29.1135 9.90792C29.6545 8.74801 30.395 7.69721 31.3147 6.78676C32.2314 5.87843 33.3097 5.14965 34.5217 4.61948C35.7348 4.08932 37.0691 3.82132 38.4874 3.82132C41.5343 3.82132 43.9195 4.75931 45.575 6.60616C47.2239 8.44771 48.124 10.7935 48.2494 13.581ZM48.6655 4.85623C47.5353 3.56921 46.1026 2.53165 44.405 1.77427C42.7059 1.01583 40.715 0.632373 38.4874 0.632373C36.4628 0.632373 34.5549 1.01742 32.8143 1.77427C31.0738 2.5343 29.5348 3.60417 28.2409 4.95633C26.947 6.3085 25.92 7.93131 25.1909 9.77868C24.4618 11.6255 24.0918 13.6668 24.0918 15.8441C24.0918 18.022 24.4716 20.0621 25.2199 21.9063C25.9687 23.7537 27.0066 25.3765 28.302 26.7297C29.5959 28.0835 31.1655 29.1534 32.9662 29.9107C34.7679 30.6692 36.7494 31.0542 38.8558 31.0542C41.2063 31.0542 43.435 30.5749 45.4818 29.6316C47.4799 28.7095 49.3391 27.1783 51.0113 25.0762L48.1701 22.8173C47.3379 24.1006 46.1414 25.2494 44.6097 26.2377C43.0007 27.2753 41.0653 27.8012 38.8558 27.8012C37.3531 27.8012 35.9353 27.5125 34.6414 26.94C33.3475 26.3691 32.2065 25.5878 31.2479 24.6149C30.2877 23.6419 29.5249 22.4847 28.984 21.1733C28.4414 19.8635 28.1461 18.451 28.1046 16.9749L28.0989 16.78H52.0938C52.1233 16.4701 52.1368 16.1751 52.1368 15.9045V14.9654C52.1368 12.9946 51.8393 11.1192 51.2522 9.39364C50.6677 7.67338 49.7967 6.14643 48.6655 4.85623ZM20.7815 1.33572L12.5165 14.4072L4.49351 1.33572H0.180176L10.8231 17.7979V30.2576H14.2099V17.7979L24.8528 1.33572H20.7815ZM55.8728 1.33572H59.2597V27.0708H74.2786V30.2571H55.8728V1.33572ZM87.6932 27.0711H81.2424V4.52229H87.6932C94.2244 4.52229 99.1818 7.87225 99.1818 15.7972C99.1818 23.7227 94.2228 27.0711 87.6932 27.0711ZM88.8213 1.33599H77.8556V30.2574H88.8213C94.4249 30.2574 102.811 26.4578 102.811 15.7962C102.811 5.13402 94.4249 1.33599 88.8213 1.33599Z" fill="#DEDEDE"/>
</g>
<defs>
<clipPath id="clip0_1194_9080">
<rect width="134.64" height="30.8" fill="white" transform="translate(0.180176 0.599609)"/>
</clipPath>
</defs>
</svg>
