<svg width="170" height="38" viewBox="0 0 170 38" fill="none" xmlns="http://www.w3.org/2000/svg">
<g id="Frame 429" clip-path="url(#clip0_1175_727)">
<g id="Logo_Fideuram_Direct_D_Header">
<g id="c">
<path id="d" d="M0.967773 26.4619V37.8271H15.4645V26.4619H0.967773Z" fill="#72B572"/>
<path id="Tracciato 9409" d="M15.3762 1.06152H0.967773V12.3698H27.0561L15.3762 1.06152Z" fill="#228000"/>
<path id="Tracciato 9410" d="M27.056 12.3701H15.4644V37.799L27.056 26.4908V12.3701Z" fill="#DD2A00"/>
</g>
<path id="Tracciato 9411" d="M40.8125 18.3684H43.4806V10.2175H49.4394V7.77689H43.4806V3.675H49.647V1.23438H40.8125V18.3684Z" fill="#228000"/>
<path id="Tracciato 9412" d="M73.838 3.44436C72.9719 2.6696 71.9385 2.09128 70.8127 1.75137C69.4434 1.37878 68.0247 1.20468 66.6027 1.23477H62.8984V18.3688H66.5749C67.9765 18.4227 69.3779 18.2579 70.7253 17.8807C71.8363 17.5288 72.8571 16.9516 73.7195 16.1877C74.6529 15.3908 75.3923 14.4035 75.8845 13.2969C76.3766 12.1902 76.6093 10.9917 76.5657 9.78755C76.6198 8.60123 76.4034 7.41794 75.932 6.32167C75.4606 5.2254 74.7457 4.24305 73.838 3.44436ZM73.8976 9.78999C73.9369 11.0511 73.5585 12.2913 72.8176 13.3292C72.0768 14.3672 71.0123 15.1485 69.78 15.5588C68.8064 15.8256 67.7975 15.9514 66.7859 15.9322H65.5707V3.67378H66.7859C69.0688 3.67378 70.7884 4.19038 71.9447 5.22358C72.5886 5.80474 73.0963 6.51272 73.4338 7.29985C73.7712 8.08699 73.9306 8.93498 73.901 9.78674L73.8976 9.78999Z" fill="#228000"/>
<path id="Rettangolo 7129" d="M57.503 1.23438H54.835V18.3684H57.503V1.23438Z" fill="#228000"/>
<path id="Tracciato 9413" d="M110.095 1.23438H107.427V11.5664C107.525 12.6953 107.266 13.8265 106.686 14.81C106.481 15.0509 106.253 15.2719 106.004 15.4698C105.592 15.7844 105.12 16.0169 104.615 16.1541C104.11 16.2913 103.581 16.3303 103.061 16.269C102.54 16.2077 102.037 16.0472 101.58 15.7968C101.124 15.5464 100.723 15.211 100.401 14.81C99.8236 13.825 99.5654 12.695 99.6595 11.5664V1.23438H96.9914V12.2839C96.9573 13.1013 97.0946 13.917 97.3952 14.6815C97.6958 15.4461 98.1533 16.1438 98.7402 16.7324L98.8292 16.8186C99.4616 17.4203 100.21 17.8953 101.033 18.2167C101.855 18.538 102.734 18.6993 103.621 18.6913C104.507 18.6832 105.384 18.5061 106.2 18.17C107.015 17.8339 107.755 17.3454 108.376 16.7324C108.958 16.1408 109.413 15.4427 109.713 14.6788C110.013 13.915 110.153 13.1008 110.124 12.2839L110.095 1.23438Z" fill="#228000"/>
<path id="Tracciato 9414" d="M121.45 11.0781C122.574 10.872 123.584 10.2812 124.296 9.41358C125.023 8.52621 125.401 7.41767 125.363 6.28551C125.386 5.5741 125.243 4.86687 124.945 4.21604C124.648 3.56521 124.203 2.98741 123.644 2.52531C122.605 1.66459 120.916 1.2627 118.574 1.2627H115.431V18.3967H118.099V11.3653H118.573L123.672 18.3683H126.934L121.449 11.0781H121.45ZM118.129 9.09793V3.64719H119.078C121.539 3.64719 122.784 4.53721 122.784 6.28795C122.784 8.15341 121.509 9.10037 118.989 9.10037L118.129 9.09793Z" fill="#228000"/>
<path id="Tracciato 9415" d="M165.682 0L159.397 13.3169L153.32 0L149.584 18.4259H152.342L154.269 8.06465L159.338 19.2289L164.585 8.09313L166.305 18.4251H169.032L165.682 0Z" fill="#228000"/>
<path id="Tracciato 9416" d="M138.407 0.143555L129.662 18.3669H132.537L134.494 14.2056H142.083L143.947 18.3669H146.889L138.407 0.143555ZM135.62 11.7675L138.378 5.94086L141.016 11.7675H135.62Z" fill="#228000"/>
<path id="Tracciato 9417" d="M81.8125 18.3684H91.5957V15.9278H84.4806V10.2167H91.3882V7.77608H84.4806V3.675H91.5957V1.23438H81.8125V18.3684Z" fill="#228000"/>
<path id="e" d="M59.5193 37.7416H62.1874V20.5758H59.5193V37.7416ZM51.752 22.7887C50.886 22.0139 49.8525 21.4356 48.7268 21.0957C47.3575 20.7231 45.9387 20.549 44.5167 20.5791H40.8125V37.7123H44.489C45.8906 37.7662 47.2919 37.6014 48.6394 37.2242C49.7556 36.8837 50.7788 36.3051 51.6335 35.5312C52.5228 34.7116 53.2329 33.7275 53.7217 32.6371C54.2106 31.5467 54.4681 30.3724 54.4792 29.1838C54.4902 27.9952 54.2545 26.8166 53.7861 25.7179C53.3176 24.6192 52.6259 23.6236 51.752 22.7887ZM47.6613 34.9292C46.6877 35.1959 45.6787 35.3218 44.6671 35.3026H43.4512V23.0181H44.6663C46.9492 23.0181 48.6688 23.5347 49.8251 24.5679C50.469 25.1491 50.9768 25.857 51.3142 26.6442C51.6517 27.4313 51.811 28.2793 51.7814 29.1311C51.8374 30.399 51.466 31.6501 50.7232 32.6958C49.9805 33.7415 48.9067 34.5251 47.6638 34.9284L47.6613 34.9292ZM83.9479 37.7416H93.7312V35.301H86.616V29.5614H93.4942V27.1208H86.616V23.0181H93.7312V20.5775H83.9479V37.7416ZM115.195 20.5758V23.0165H119.256V37.7123H121.925V23.0181H125.986V20.5775L115.195 20.5758ZM100.253 23.3883C98.798 25.0003 98.0066 27.0742 98.0295 29.2149C98.0102 30.3746 98.237 31.5257 98.696 32.5971C99.1549 33.6685 99.8362 34.6372 100.698 35.4433C101.543 36.2743 102.555 36.9295 103.672 37.3687C104.788 37.8079 105.985 38.022 107.19 37.9979C108.879 38.0012 110.537 37.5651 111.993 36.7353V33.608C111.596 33.9368 111.18 34.2435 110.747 34.5265C110.382 34.7612 109.995 34.963 109.591 35.1293C108.834 35.4452 108.013 35.5923 107.189 35.5597C106.331 35.5798 105.478 35.4241 104.686 35.1026C103.894 34.7811 103.181 34.3011 102.594 33.6942C101.976 33.0988 101.49 32.3863 101.169 31.6012C100.847 30.816 100.697 29.9751 100.726 29.1311C100.706 28.2795 100.861 27.4325 101.181 26.6392C101.502 25.846 101.982 25.1223 102.594 24.5101C103.179 23.8994 103.891 23.415 104.683 23.0886C105.475 22.7623 106.329 22.6013 107.189 22.6162C108.968 22.6655 110.671 23.3269 111.992 24.4817V21.4968C110.599 20.6981 109.015 20.263 107.397 20.2342C106.038 20.208 104.69 20.4782 103.454 21.0247C102.217 21.5713 101.124 22.3802 100.254 23.3915L100.253 23.3883ZM74.1345 30.4197C75.2588 30.2136 76.2691 29.6228 76.9807 28.7552C77.6953 27.8613 78.072 26.7573 78.0479 25.6271C78.0705 24.9157 77.9277 24.2085 77.6301 23.5577C77.3326 22.9068 76.8878 22.329 76.3286 21.8669C75.2908 21.0062 73.6008 20.6043 71.2588 20.6043H68.1159V37.7123H70.784V30.7093H71.258L76.3277 37.7123H79.5891L74.1345 30.4222V30.4197ZM70.8143 28.4672V23.0165H71.763C74.2235 23.0165 75.4395 23.9065 75.4395 25.6572C75.4395 27.5227 74.1647 28.4697 71.6445 28.4697L70.8143 28.4672Z" fill="#72B572"/>
</g>
</g>
<defs>
<clipPath id="clip0_1175_727">
<rect width="169" height="38" fill="white" transform="translate(0.5)"/>
</clipPath>
</defs>
</svg>
