<svg width="175" height="60" viewBox="0 0 175 60" fill="none" xmlns="http://www.w3.org/2000/svg">
<g id="Colored=True">
<g id="logoFreeToX">
<path fill-rule="evenodd" clip-rule="evenodd" d="M120.718 29.9908C120.718 24.1533 116.041 19.4628 110.196 19.4628C104.35 19.4628 99.6941 24.1533 99.6941 29.9908C99.6941 35.8283 104.35 40.4779 110.196 40.4779C116.041 40.4779 120.718 35.8283 120.718 29.9908ZM118.667 29.9908C118.667 34.6403 114.852 38.4296 110.196 38.4296C105.54 38.4296 101.745 34.6403 101.745 29.9908C101.745 25.3413 105.54 21.4906 110.196 21.4906C114.831 21.4906 118.667 25.3413 118.667 29.9908Z" fill="#00A7E2"/>
<path d="M11.2091 19.7503C10.8809 19.7503 10.6553 20.0166 10.6553 20.3034V39.6388C10.6553 39.9256 10.8809 40.1918 11.2091 40.1918H13.896C14.1832 40.1918 14.4498 39.9256 14.4498 39.6388V32.2446H21.6697C21.9569 32.2446 22.2235 31.9784 22.2235 31.6916V29.2952C22.2235 29.0084 21.9569 28.7421 21.6697 28.7421H14.4498V23.2528H23.1055C23.4337 23.2528 23.6593 22.9865 23.6593 22.6998V20.3034C23.6593 20.0166 23.4337 19.7503 23.1055 19.7503H11.2091Z" fill="#00A7E2"/>
<path fill-rule="evenodd" clip-rule="evenodd" d="M28.9514 19.7503C28.6233 19.7503 28.3976 20.0166 28.3976 20.3034V39.6388C28.3976 39.9256 28.6233 40.1918 28.9514 40.1918H31.6383C31.9256 40.1918 32.1921 39.9256 32.1921 39.6388V32.1627H35.4329L39.3095 39.9051C39.3711 40.028 39.5146 40.1714 39.7813 40.1714H42.8579C43.3502 40.1714 43.5554 39.7002 43.3502 39.3316L39.3505 31.9169C41.8939 30.8928 43.6784 28.7012 43.6784 26.0179C43.6784 22.5564 40.8069 19.7503 37.2995 19.7503H28.9514ZM39.8838 26.0999C39.8838 27.718 38.5506 29.0699 36.9918 29.0699V29.0903H32.2332V23.2733H36.9918C38.5301 23.2733 39.8838 24.5432 39.8838 26.0999Z" fill="#00A7E2"/>
<path d="M49.1133 20.3034C49.1133 20.0166 49.3389 19.7503 49.6671 19.7503H61.5635C61.8918 19.7503 62.1173 20.0166 62.1173 20.3034V22.6998C62.1173 22.9865 61.8918 23.2528 61.5635 23.2528H52.9079V28.0458H60.1278C60.4149 28.0458 60.6816 28.312 60.6816 28.5988V31.0157C60.6816 31.3434 60.4149 31.5688 60.1278 31.5688H52.9079V36.6688H61.5635C61.8918 36.6688 62.1173 36.9351 62.1173 37.2219V39.6388C62.1173 39.9256 61.8918 40.1918 61.5635 40.1918H49.6671C49.3389 40.1918 49.1133 39.9256 49.1133 39.6388V20.3034Z" fill="#00A7E2"/>
<path d="M68.1072 19.7503C67.7791 19.7503 67.5534 20.0166 67.5534 20.3034V39.6388C67.5534 39.9256 67.7791 40.1918 68.1072 40.1918H80.0037C80.3319 40.1918 80.5575 39.9256 80.5575 39.6388V37.2219C80.5575 36.9351 80.3319 36.6688 80.0037 36.6688H71.348V31.5688H78.5679C78.8551 31.5688 79.1217 31.3434 79.1217 31.0157V28.5988C79.1217 28.312 78.8551 28.0458 78.5679 28.0458H71.348V23.2528H80.0037C80.3319 23.2528 80.5575 22.9865 80.5575 22.6998V20.3034C80.5575 20.0166 80.3319 19.7503 80.0037 19.7503H68.1072Z" fill="#00A7E2"/>
<path d="M89.2126 21.7158H84.1263C83.7978 21.7158 83.572 21.4496 83.572 21.1629V20.323C83.572 20.0363 83.7978 19.77 84.1263 19.77H96.5147C96.8432 19.77 97.0683 20.0363 97.0683 20.323V21.1629C97.0683 21.4496 96.8432 21.7158 96.5147 21.7158H91.4284V39.638C91.4284 39.9248 91.161 40.1911 90.8741 40.1911H89.7669C89.4792 40.1911 89.2126 39.9248 89.2126 39.638V21.7158Z" fill="#00A7E2"/>
<path d="M139.117 22.903C139.363 23.1693 139.65 23.456 140.203 23.9681C141.045 24.685 142.111 25.0742 143.219 25.0742C144.326 25.0742 145.393 24.685 146.275 23.9272C146.787 23.456 147.075 23.1488 147.342 22.903C147.465 22.7802 147.588 22.6572 147.731 22.5139L161.043 9.24121H158.315L146.398 21.1415C146.254 21.2849 146.131 21.4078 145.988 21.5512C145.741 21.797 145.475 22.0633 145.024 22.4934C144.532 22.903 143.896 23.1488 143.239 23.1488C142.604 23.1488 141.947 22.903 141.496 22.5343C141.003 22.0838 140.737 21.8175 140.49 21.5717C140.347 21.4283 140.224 21.3054 140.08 21.1621L134.173 15.2631H131.445L138.727 22.5343C138.871 22.6572 138.994 22.7802 139.117 22.903Z" fill="#F4B800"/>
<path d="M147.382 37.0154C147.116 36.7491 146.829 36.4624 146.296 35.9503C145.454 35.2334 144.388 34.8443 143.28 34.8443C142.173 34.8443 141.106 35.2334 140.225 35.9913C139.712 36.4624 139.424 36.7491 139.178 37.0154C139.056 37.1383 138.932 37.2612 138.788 37.4046L125.497 50.6773H128.184L140.101 38.7769C140.245 38.6336 140.388 38.5107 140.512 38.3673C140.758 38.1215 141.024 37.8552 141.475 37.4251C141.968 37.0154 142.604 36.7696 143.239 36.7696C143.875 36.7696 144.532 37.0154 144.983 37.3841C145.475 37.8347 145.742 38.101 145.988 38.3468C146.132 38.4901 146.255 38.6131 146.398 38.7564L152.306 44.6554H155.054L147.772 37.3841C147.629 37.2612 147.506 37.1383 147.382 37.0154Z" fill="#F4B800"/>
<path d="M136.06 34.0049C136.327 33.7386 136.634 33.4313 137.188 32.8374C137.947 31.9362 138.337 30.7482 138.255 29.5806C138.193 28.4337 137.68 27.3276 136.819 26.4673L122.42 12.0886V14.8128L135.465 27.8397C135.998 28.3517 136.306 29.0071 136.347 29.7035C136.388 30.3999 136.162 31.0963 135.752 31.5879C135.28 32.1 134.973 32.3868 134.727 32.6531C134.583 32.7964 134.44 32.9398 134.296 33.0832L128.45 38.9207V41.6448L135.67 34.435C135.793 34.2712 135.916 34.1277 136.06 34.0049Z" fill="#00A7E2"/>
<path d="M134.748 29.7645C134.727 29.2729 134.502 28.8223 134.132 28.5356L122.4 16.8196V19.5437L132.717 29.8465L128.41 34.1478V36.872L134.194 31.0959C134.584 30.7682 134.768 30.2766 134.748 29.7645Z" fill="#00A7E2"/>
<path d="M147.567 44.676H150.295L144.491 38.8795C144.162 38.5518 143.732 38.3674 143.26 38.3674C143.26 38.3674 143.26 38.3674 143.239 38.3674C142.788 38.3674 142.337 38.5518 142.029 38.8795L130.194 50.6978H132.922L143.239 40.3952L147.567 44.676Z" fill="#F4B800"/>
<path d="M138.932 15.2426H136.204L142.008 21.0391C142.337 21.3669 142.767 21.5512 143.219 21.5512C143.67 21.5307 144.121 21.3669 144.449 21.0391L156.285 9.24121H153.556L143.239 19.5439L138.932 15.2426Z" fill="#F4B800"/>
<path d="M164.345 44.7578L151.3 31.731C150.767 31.2189 150.459 30.5635 150.418 29.8671C150.377 29.1706 150.603 28.4742 151.013 27.9827C151.485 27.4706 151.772 27.1839 152.038 26.9176C152.182 26.7742 152.325 26.6308 152.47 26.4875L158.315 20.65V17.9463L151.095 25.1561C150.952 25.2995 150.828 25.4428 150.685 25.5658C150.418 25.832 150.11 26.1392 149.557 26.7128C148.798 27.614 148.408 28.802 148.49 29.9695C148.552 31.1165 149.064 32.2226 149.926 33.0828L164.325 47.4615V44.7578H164.345Z" fill="#00A7E2"/>
<path d="M158.315 25.4227V22.6986L152.531 28.4746C152.161 28.8024 151.977 29.294 151.997 29.806C152.018 30.2976 152.244 30.7482 152.613 31.035L164.345 42.7509V40.0267L154.028 29.7036L158.315 25.4227Z" fill="#00A7E2"/>
</g>
</g>
</svg>
