<svg width="154" height="60" viewBox="0 0 154 60" fill="none" xmlns="http://www.w3.org/2000/svg">
<g id="Colored=True">
<g id="Vector">
<path fill-rule="evenodd" clip-rule="evenodd" d="M10.8818 5V31.7214C10.8818 34.3338 11.0218 38.4857 13.7275 42.3764C15.8498 45.4385 23.4766 49.498 29.7354 52.8294L29.7366 52.8301C31.1818 53.5993 32.554 54.3297 33.7686 55C34.9698 54.3379 36.3261 53.6162 37.7553 52.8558C44.0194 49.5229 51.6826 45.4455 53.8097 42.3764C56.5155 38.4857 56.6554 34.3338 56.6554 31.7214V5H10.8818ZM55.9276 13.6118C54.7054 15.2819 53.5111 16.812 51.6451 17.5958C51.2346 17.7637 50.7401 17.829 50.2922 17.829C48.813 17.8358 47.3337 17.8327 45.8545 17.8296C43.2659 17.8242 40.6771 17.8188 38.0885 17.8663C36.6423 17.885 35.1775 18.0716 33.7593 18.3795C31.7999 18.7993 30.2325 19.9563 28.9916 21.5331C28.957 21.5763 28.9233 21.6196 28.8913 21.6606C28.8197 21.7524 28.7568 21.8332 28.7117 21.8783C28.5868 21.6967 28.4672 21.5074 28.3469 21.3171C28.0717 20.8816 27.7934 20.4412 27.4428 20.0776C26.5844 19.1912 25.4461 18.874 24.2332 18.8367C23.7394 18.8245 23.2456 18.8282 22.7101 18.8323C22.4262 18.8344 22.1302 18.8367 21.8167 18.8367C23.1043 17.4838 24.3732 16.4482 26.2765 16.6161C28.1239 16.784 29.4674 17.5678 29.9712 19.5551C30.1508 19.3451 30.3204 19.1437 30.4848 18.9487C30.7729 18.6066 31.0449 18.2838 31.3241 17.969C33.7033 15.3099 36.7263 13.8917 40.253 13.7424C42.9625 13.6343 45.672 13.629 48.385 13.6236C49.4182 13.6216 50.452 13.6195 51.4865 13.6118C52.4277 13.6057 53.3689 13.6076 54.353 13.6097C54.8614 13.6107 55.3812 13.6118 55.9183 13.6118H55.9276ZM21.877 27.0034C21.6502 27.0807 21.4213 27.1587 21.1915 27.243L21.1729 27.2337C21.5698 27.7977 21.9638 28.3632 22.3575 28.9283C23.3706 30.3824 24.3819 31.8339 25.4367 33.2516C25.9033 33.886 26.5284 34.5205 27.3681 34.5951C28.1495 34.6592 28.9353 34.6441 29.7557 34.6283C30.1304 34.6211 30.5122 34.6138 30.9042 34.6138C28.4346 33.2256 26.7972 31.1187 25.1731 29.0289C24.8215 28.5765 24.4705 28.1249 24.1119 27.6815C24.3239 27.5726 24.5322 27.4738 24.735 27.3777C25.1748 27.1693 25.5889 26.973 25.9592 26.7112C27.8159 25.3956 27.732 22.55 25.8286 21.2997C25.0356 20.7772 24.1492 20.4973 23.2162 20.46C21.3315 20.3947 17.3755 20.3574 17.1703 20.3854C18.1141 21.2272 18.1048 22.3093 18.0957 23.3562C18.0948 23.458 18.0939 23.5594 18.0939 23.6602C18.0753 26.7112 18.0753 29.7621 18.0939 32.8131C18.0939 33.4195 17.87 33.886 17.4502 34.2779C17.3382 34.3805 17.2262 34.4832 17.0676 34.6231H21.8913C20.949 34.0353 20.7157 33.2609 20.753 32.3092C20.793 31.3693 20.7854 30.4245 20.7778 29.4818C20.7747 29.1052 20.7717 28.7288 20.7717 28.3533C20.7717 27.7281 20.7738 27.1039 20.7758 26.48C20.78 25.2329 20.7841 23.9865 20.7717 22.7366V22.1674H21.3035C21.854 22.1674 22.4231 22.2234 22.9456 22.3634C24.1958 22.6899 24.7557 23.6043 24.5224 24.8732C24.3918 25.5822 23.9719 26.1421 23.3375 26.4406C22.8687 26.6654 22.3778 26.8327 21.877 27.0034ZM41.2047 31.8895L41.2141 31.8929V34.446C41.2141 34.446 41.4007 34.5019 41.6246 34.5486C41.8574 34.5893 42.0911 34.6364 42.3254 34.6836C42.8424 34.7878 43.3624 34.8926 43.8825 34.9311C45.7952 35.0804 47.6052 34.7539 49.1447 33.4943C50.7681 32.1787 51.3652 28.8106 48.7062 27.4484C48.2028 27.1941 47.6938 26.9514 47.1853 26.709C46.7796 26.5156 46.374 26.3223 45.9724 26.1235C45.8531 26.0647 45.7338 26.0067 45.6147 25.9487C45.1099 25.7029 44.608 25.4586 44.1251 25.1718C43.6959 24.9199 43.4626 24.4907 43.444 23.9683C43.4253 23.1472 43.9664 22.5221 44.9368 22.2795C46.2057 21.9623 47.3719 22.2142 48.4542 22.914C48.616 23.0124 48.7725 23.1215 48.9557 23.2492C49.0153 23.2908 49.0783 23.3347 49.1447 23.3805C49.1447 23.0934 49.1425 22.8172 49.1404 22.5481C49.1363 22.0304 49.1324 21.5391 49.1447 21.0479V20.6934C47.1853 20.3295 46.3456 20.2735 45.1607 20.2922C44.1437 20.3109 43.1734 20.6654 42.3243 21.2719C40.2904 22.7274 40.1598 25.573 42.1004 27.1405C42.5358 27.4918 43.0524 27.7431 43.5633 27.9916C43.6765 28.0467 43.7894 28.1016 43.9011 28.1575C44.2578 28.339 44.6221 28.5085 44.9861 28.678C45.6888 29.0051 46.3908 29.3318 47.0361 29.7436C48.081 30.406 48.053 31.6189 47.0547 32.3654C46.7188 32.6173 46.2896 32.8412 45.8978 32.8598C45.1327 32.8972 44.3303 32.8598 43.5839 32.7012C43.0148 32.5807 42.4649 32.3689 41.8928 32.1485C41.6707 32.063 41.4453 31.9762 41.2141 31.8929V31.8802L41.2047 31.8895ZM40.4218 32.3467C40.4214 32.1798 40.421 32.009 40.421 31.8335L40.4023 31.8522C40.2953 31.9186 40.2057 31.9763 40.1262 32.0276C40.0048 32.1058 39.9067 32.169 39.8052 32.2254C37.2208 33.7928 33.5447 33.0838 31.856 30.7046C30.6244 28.9692 30.615 26.2261 31.8186 24.3321C32.8636 22.69 35.2241 21.701 37.3141 22.1209C37.9638 22.2495 38.5913 22.4758 39.2181 22.7017C39.5004 22.8035 39.7825 22.9052 40.0665 22.9979V20.4321C39.7778 20.4019 39.4915 20.3692 39.207 20.3367C38.5259 20.259 37.8547 20.1824 37.1835 20.1429C34.2258 19.9936 31.688 20.8147 29.8033 23.2685C26.6497 27.3737 28.4784 33.1771 33.4327 34.6232C35.6533 35.267 37.8739 35.0804 40.0758 34.5019C40.2064 34.4646 40.4023 34.2873 40.4023 34.1754C40.4246 33.589 40.4233 32.9967 40.4218 32.3467Z" fill="#C1134E"/>
<path d="M63.7743 5H143.118V6.04497H63.7743V5Z" fill="#C1134E"/>
<path d="M119.736 47.4615V49.4021C119.736 50.5684 119.158 51.1468 117.992 51.1468H117.646C116.48 51.1468 115.902 50.5684 115.902 49.4021V43.3282C115.902 42.162 116.48 41.5835 117.646 41.5835H117.992C119.149 41.5835 119.708 42.1433 119.708 43.3002V44.9983H118.663V43.2816C118.663 42.7964 118.43 42.5725 117.954 42.5725H117.684C117.199 42.5725 116.975 42.7964 116.975 43.2816V49.4674C116.975 49.9526 117.208 50.1765 117.684 50.1765H117.982C118.467 50.1765 118.691 49.9433 118.691 49.4674V47.4615H119.736Z" fill="#C1134E"/>
<path d="M79.4489 49.4023V48.0308L79.4675 48.0494C79.4675 47.2471 79.2529 46.7992 78.5625 46.3047L77.2563 45.3624C76.9484 45.1291 76.7711 44.9239 76.7711 44.4574V43.2724C76.7711 42.7966 76.995 42.5633 77.4802 42.5633H77.6668C78.152 42.5633 78.3759 42.7873 78.3759 43.2724V45.0078H79.4209V43.3098C79.4209 42.1715 78.8611 41.593 77.7041 41.593H77.4336C76.2673 41.593 75.6888 42.1715 75.6888 43.3377V44.4667C75.6888 45.2318 75.8848 45.7169 76.5845 46.2114L77.9001 47.1631C78.208 47.387 78.3666 47.5923 78.3666 48.0588V49.4676C78.3666 49.9435 78.1427 50.1767 77.6575 50.1767H77.4429C76.9577 50.1767 76.7338 49.9528 76.7338 49.4676V47.4523H75.6888V49.4303C75.6888 50.5686 76.2486 51.147 77.4056 51.147H77.7041C78.8704 51.147 79.4489 50.5686 79.4489 49.4023Z" fill="#C1134E"/>
<path fill-rule="evenodd" clip-rule="evenodd" d="M67.7676 49.3182C67.7676 50.4845 67.1891 51.0629 66.0228 51.0629H64.0355V41.6582H65.9948C67.1611 41.6582 67.7396 42.2367 67.7396 43.4029V44.7838C67.7396 45.6142 67.4597 46.0433 66.9185 46.2486C67.469 46.4632 67.7676 46.8924 67.7676 47.7228V49.3182ZM65.9668 42.6285H65.0898V45.7821H65.8829C66.424 45.7821 66.6759 45.5302 66.6759 44.989V43.3376C66.6759 42.8525 66.452 42.6285 65.9668 42.6285ZM65.9855 50.1019C66.4707 50.1019 66.6946 49.8687 66.6946 49.3929V47.5362C66.6946 46.995 66.4427 46.7431 65.9015 46.7431H65.0805V50.1019H65.9855Z" fill="#C1134E"/>
<path d="M73.6456 49.4022C73.6456 50.5685 73.0671 51.1469 71.9008 51.1469H71.5649C70.3987 51.1469 69.8202 50.5685 69.8202 49.4022V41.6582H70.8932V49.4582C70.8932 49.9433 71.1264 50.1673 71.6023 50.1673H71.8542C72.3393 50.1673 72.5633 49.934 72.5633 49.4582V41.6582H73.6362V49.4022H73.6456Z" fill="#C1134E"/>
<path d="M82.5744 51.0629H81.5014V41.6582H82.5744V51.0629Z" fill="#C1134E"/>
<path d="M88.7044 41.6582H87.6874V48.4692L86.1293 41.6582H84.6458V51.0629H85.6628V43.7108L87.3609 51.0629H88.7044V41.6582Z" fill="#C1134E"/>
<path d="M93.752 41.6582V42.6565H91.8673V45.7728H93.6867V46.7524H91.8673V50.0739H93.7707V51.0723H90.785V41.6675H93.7427L93.752 41.6582Z" fill="#C1134E"/>
<path d="M99.5086 49.4023V48.0308L99.518 48.0494C99.518 47.2471 99.2941 46.7992 98.613 46.3047L97.3067 45.3624C96.9988 45.1291 96.8216 44.9239 96.8216 44.4574V43.2724C96.8216 42.7966 97.0455 42.5633 97.5307 42.5633H97.7173C98.1931 42.5633 98.4263 42.7873 98.4263 43.2724V45.0078H99.4713V43.3098C99.4713 42.1715 98.9115 41.593 97.7546 41.593H97.484C96.3177 41.593 95.7393 42.1715 95.7393 43.3377V44.4667C95.7393 45.2318 95.9445 45.7169 96.6443 46.2114L97.9598 47.1631C98.2677 47.387 98.4263 47.5923 98.4263 48.0588V49.4676C98.4263 49.9435 98.2024 50.1767 97.7173 50.1767H97.5027C97.0268 50.1767 96.7936 49.9528 96.7936 49.4676V47.4523H95.7486V49.4303C95.7486 50.5686 96.3084 51.147 97.4653 51.147H97.7639C98.9302 51.147 99.5086 50.5686 99.5086 49.4023Z" fill="#C1134E"/>
<path d="M105.293 48.0308V49.4023C105.293 50.5686 104.715 51.147 103.549 51.147H103.25C102.093 51.147 101.533 50.5686 101.533 49.4303V47.4523H102.578V49.4676C102.578 49.9528 102.812 50.1767 103.287 50.1767H103.502C103.987 50.1767 104.211 49.9435 104.211 49.4676V48.0588C104.211 47.5923 104.052 47.387 103.745 47.1631L102.429 46.2114C101.729 45.7169 101.533 45.2318 101.533 44.4667V43.3377C101.533 42.1715 102.112 41.593 103.278 41.593H103.549C104.706 41.593 105.265 42.1715 105.265 43.3098V45.0078H104.22V43.2724C104.22 42.7873 103.987 42.5633 103.511 42.5633H103.325C102.84 42.5633 102.616 42.7966 102.616 43.2724V44.4574C102.616 44.9239 102.793 45.1291 103.101 45.3624L104.407 46.3047C105.097 46.7992 105.312 47.2471 105.312 48.0494L105.293 48.0308Z" fill="#C1134E"/>
<path d="M113.868 49.4023V48.0308L113.877 48.0494C113.877 47.2471 113.662 46.7992 112.981 46.3047L111.675 45.3624C111.367 45.1291 111.19 44.9239 111.19 44.4574V43.2724C111.19 42.7966 111.414 42.5633 111.899 42.5633H112.086C112.571 42.5633 112.795 42.7873 112.795 43.2724V45.0078H113.84V43.3098C113.84 42.1715 113.28 41.593 112.123 41.593H111.852C110.686 41.593 110.108 42.1715 110.108 43.3377V44.4667C110.108 45.2318 110.304 45.7169 111.003 46.2114L112.319 47.1631C112.627 47.387 112.785 47.5923 112.785 48.0588V49.4676C112.785 49.9435 112.561 50.1767 112.076 50.1767H111.862C111.386 50.1767 111.153 49.9528 111.153 49.4676V47.4523H110.108V49.4303C110.108 50.5686 110.667 51.147 111.824 51.147H112.123C113.289 51.147 113.868 50.5686 113.868 49.4023Z" fill="#C1134E"/>
<path d="M124.597 41.6582V45.7541H122.853V41.6582H121.78V51.0629H122.853V46.7618H124.597V51.0629H125.67V41.6582H124.597Z" fill="#C1134E"/>
<path fill-rule="evenodd" clip-rule="evenodd" d="M129.887 51.1468H129.486C128.32 51.1468 127.742 50.5684 127.742 49.4021V43.3282C127.742 42.162 128.32 41.5835 129.486 41.5835H129.887C131.054 41.5835 131.632 42.162 131.632 43.3282V49.4021C131.632 50.5684 131.054 51.1468 129.887 51.1468ZM129.85 42.5632H129.524C129.038 42.5632 128.815 42.7871 128.815 43.2722V49.4581C128.815 49.9433 129.048 50.1672 129.524 50.1672H129.85C130.335 50.1672 130.559 49.9339 130.559 49.4581V43.2722C130.559 42.7871 130.326 42.5632 129.85 42.5632Z" fill="#C1134E"/>
<path fill-rule="evenodd" clip-rule="evenodd" d="M135.43 51.1468H135.831C136.997 51.1468 137.576 50.5684 137.576 49.4021V43.3282C137.576 42.162 136.997 41.5835 135.831 41.5835H135.43C134.263 41.5835 133.685 42.162 133.685 43.3282V49.4021C133.685 50.5684 134.263 51.1468 135.43 51.1468ZM135.467 42.5632H135.794C136.279 42.5632 136.503 42.7871 136.503 43.2722V49.4581C136.503 49.9339 136.279 50.1672 135.794 50.1672H135.467C134.982 50.1672 134.758 49.9433 134.758 49.4581V43.2722C134.758 42.7871 134.982 42.5632 135.467 42.5632Z" fill="#C1134E"/>
<path d="M140.72 41.6675V50.0739H142.493V51.0723H139.647V41.6675H140.72Z" fill="#C1134E"/>
<path d="M84.5618 26.0205V30.9094C84.5618 33.5125 83.2742 34.8001 80.6711 34.8001H79.085C76.4819 34.8001 75.185 33.5125 75.185 30.9094V17.3621C75.185 14.759 76.4725 13.4622 79.085 13.4622H80.6431C83.2462 13.4622 84.5151 14.7217 84.5151 17.3248V21.6073H81.3708V17.5021C81.3708 16.6624 80.979 16.2705 80.1766 16.2705H79.6355C78.7957 16.2705 78.4039 16.6624 78.4039 17.5021V30.7508C78.4039 31.5905 78.7957 31.9824 79.6355 31.9824H80.2326C81.0443 31.9824 81.4362 31.5905 81.4362 30.7508V26.0205H84.5618Z" fill="#C1134E"/>
<path fill-rule="evenodd" clip-rule="evenodd" d="M73.9161 34.6234H70.7532L70.3334 31.3299H67.0025L66.6106 34.6234H63.6437L66.6386 13.6213H70.8932L73.9161 34.6234ZM67.3664 28.4842H69.9695L68.6819 17.9972L67.3664 28.4842Z" fill="#C1134E"/>
<path fill-rule="evenodd" clip-rule="evenodd" d="M92.8842 34.6234H96.0565L93.0335 13.6213H88.779L85.784 34.6234H88.751L89.1429 31.3299H92.4644L92.8842 34.6234ZM92.1098 28.4842H89.5067L90.8223 17.9972L92.1098 28.4842Z" fill="#C1134E"/>
<path fill-rule="evenodd" clip-rule="evenodd" d="M97.5307 13.6489H102.354C105.471 13.6489 106.935 15.1511 106.935 18.23V30.0419C106.935 33.1302 105.471 34.623 102.354 34.623H97.5307V13.6489ZM100.74 31.8053H101.906C103.166 31.8053 103.735 31.2082 103.735 29.9486V18.3233C103.735 17.0637 103.166 16.4666 101.906 16.4666H100.74V31.8053Z" fill="#C1134E"/>
<path d="M115.911 16.5506V13.6489H108.774V34.623H115.967V31.7213H111.983V25.3955H114.586V22.4845H111.983V16.5506H115.911Z" fill="#C1134E"/>
<path d="M126.771 13.6489L124.742 28.3846L122.713 13.6489H117.917V34.623H120.669V18.8271L122.974 34.623H126.09L128.395 18.8924V34.623H131.539V13.6489H126.771Z" fill="#C1134E"/>
<path d="M143.052 13.6489H139.955L138.07 22.4845L136.241 13.6489H132.948L136.4 27.4295V34.623H139.61V27.2802L143.052 13.6489Z" fill="#C1134E"/>
</g>
</g>
</svg>
