<svg width="82" height="50" viewBox="0 0 82 50" fill="none" xmlns="http://www.w3.org/2000/svg">
<g id="ticketRestaurant-logo">
<path id="Vector" d="M31.2058 21.7305C29.7675 21.7305 28.8584 22.6673 28.5703 23.9093H33.692C33.517 22.5414 32.5588 21.7305 31.2058 21.7305Z" fill="#F72717"/>
<path id="Vector_2" d="M17.5204 22.2793C15.6894 22.2793 14.5327 23.5426 14.5327 25.3096C14.5327 27.0766 15.7086 28.3591 17.5204 28.3591C19.3321 28.3591 20.5485 27.1171 20.5485 25.3096C20.5485 23.5021 19.3279 22.2793 17.5204 22.2793Z" fill="#F72717"/>
<path id="Vector_3" d="M54.4817 19.3833C51.7309 19.3833 49.5905 20.4823 49.2405 23.3313C49.2149 23.3313 49.2576 23.3313 49.2405 23.3313C48.3677 10.4204 38.1734 0.196289 25.0364 0.196289C20.1079 0.196316 15.2912 1.66457 11.2007 4.41372C7.11023 7.16287 3.93148 11.0683 2.07 15.6317H10.8728L10.4162 18.5959H3.51687V21.7307H9.7717L9.27874 24.5903H3.51687V26.4256C3.51687 27.5353 3.99702 28.0603 4.91252 28.0603H10.8174L10.3393 31.0244H3.79003C3.48509 31.0247 3.18077 30.9968 2.88094 30.9412C2.16288 30.8363 1.50949 30.4682 1.0478 29.9083C0.836378 29.6366 0.685076 29.3231 0.603922 28.9886C0.567643 28.8434 0.565521 28.8328 0.535645 28.7197C0.580459 29.0889 0.661552 29.5733 0.695696 29.7675C0.894161 30.8025 1.1481 31.6774 1.16944 31.7393C2.66242 37.0021 5.85061 41.6249 10.2393 44.8906C14.6281 48.1563 19.9719 49.8821 25.4417 49.8004C30.9115 49.7187 36.2015 47.834 40.4907 44.4386C44.7799 41.0433 47.8286 36.3273 49.1637 31.0223H45.8303V24.9617C45.8303 23.327 45.1901 22.2813 43.5853 22.2813C41.9805 22.2813 41.3403 23.327 41.3403 24.9617V31.0223H38.007V24.1315C38.007 20.8408 40.4035 19.3812 43.5853 19.3812C46.7672 19.3812 49.1658 20.8408 49.1658 24.1315V31.0201H52.5205V24.9595C52.5205 23.3249 52.9473 22.2792 54.5478 22.2792C55.0033 22.285 55.4538 22.3739 55.8773 22.5417L56.5175 19.6202C55.8445 19.4988 55.1646 19.4197 54.4817 19.3833ZM23.9053 24.633C23.9053 28.7965 21.4427 31.2485 17.3667 31.2485C13.5959 31.2485 11.0478 28.7197 11.0478 25.3202C11.0478 21.767 13.4657 19.3918 17.085 19.3918C18.741 19.3918 19.9617 20.0449 20.572 20.7V15.6317H23.9053V24.633ZM32.3262 28.7303C33.2778 28.7077 34.2129 28.4776 35.0663 28.056L34.7803 30.6936C33.7351 31.0814 32.6256 31.2668 31.511 31.24C27.6698 31.24 24.9724 28.995 24.9724 25.1793C24.9724 21.8673 27.3923 19.3833 31.097 19.3833C35.2818 19.3833 37.3753 22.0423 37.2857 26.1396H28.6557C28.9843 28.0112 30.7705 28.7303 32.3262 28.7303Z" fill="#F72717"/>
<path id="Vector_4" d="M62.0426 19.3838C58.338 19.3838 55.918 21.8678 55.918 25.1798C55.918 28.9954 58.6218 31.2404 62.4588 31.2404C63.5726 31.2671 64.6814 31.0817 65.7259 30.6941L66.0034 28.0586C65.1518 28.4786 64.2189 28.708 63.2697 28.7308C61.7225 28.7308 59.9363 28.0117 59.6077 26.138H68.2398C68.3209 22.0406 66.2274 19.3838 62.0426 19.3838ZM59.5159 23.9165C59.7976 22.6723 60.7089 21.7312 62.1515 21.7312C63.5044 21.7312 64.4626 22.5379 64.6376 23.9101L59.5159 23.9165Z" fill="#F72717"/>
<path id="Vector_5" d="M78.1265 15.6318V20.6895C77.5162 20.0343 76.2955 19.3813 74.6395 19.3813C71.0224 19.3835 68.6045 21.7565 68.6045 25.3096C68.6045 28.7091 71.1653 31.238 74.9255 31.238C79.0015 31.238 81.4641 28.7966 81.4641 24.6225V15.6318H78.1265ZM75.0749 28.3592C73.2673 28.3592 72.0872 27.0531 72.0872 25.3096C72.0872 23.5661 73.2439 22.2793 75.0749 22.2793C76.9059 22.2793 78.1052 23.5 78.1052 25.3096C78.1052 27.1193 76.8845 28.3592 75.0749 28.3592Z" fill="#F72717"/>
</g>
</svg>
