<svg width="165" height="28" viewBox="0 0 165 28" fill="none" xmlns="http://www.w3.org/2000/svg">
<g id="wonders-logoColor_v2 1" clip-path="url(#clip0_1071_834)">
<path id="Union" fill-rule="evenodd" clip-rule="evenodd" d="M100.19 26.007C100.163 25.8615 100.108 25.722 100.027 25.6004V7.74453C100.068 7.52159 100.088 7.29864 100.088 7.05543V0.93457H99.2362C98.3842 0.93457 97.6945 1.62367 97.6945 2.47492V7.05543C97.6945 8.51471 96.5178 9.69024 95.0572 9.69024H91.71V9.71051C89.519 9.81185 87.4904 10.7036 85.9283 12.244C84.2446 13.9059 83.3114 16.1557 83.3114 18.527C83.3114 23.1924 86.9622 27.0307 91.5632 27.3435H100.19V26.007ZM97.7756 11.2509C96.9844 11.7576 96.0513 12.0616 95.0572 12.0616H92.0954C90.3913 12.0616 88.7887 12.7304 87.5715 13.9465C86.3341 15.1625 85.6646 16.784 85.6646 18.5067C85.6646 22.0738 88.5656 24.9721 92.136 24.9721H97.7756V11.2509ZM47.9524 9.69051C52.8279 9.69051 56.7429 13.5884 56.7967 18.4263V18.6274C56.7429 23.4259 52.8283 27.3439 48.0133 27.364H46.5121C41.7446 27.4029 37.873 23.7493 37.5652 19.1224V17.9379C37.8675 13.4316 41.6112 9.67108 46.4918 9.69051H47.9524ZM39.9393 18.5272C39.9393 14.9601 42.8402 12.0618 46.4106 12.0618H47.9524C51.5228 12.0618 54.4238 14.9601 54.4238 18.5272C54.4238 22.0944 51.5228 24.9927 47.9524 24.9927H46.4106C42.8605 24.9927 39.9393 22.1146 39.9393 18.5272ZM78.9094 18.4862V27.3434H77.5508C76.9695 27.237 76.5359 26.7222 76.5359 26.1272V18.5268C76.5359 14.9596 73.635 12.0613 70.0646 12.0613C68.3402 12.0613 66.7173 12.7504 65.5001 13.9665C64.2829 15.1826 63.6135 16.804 63.6135 18.5268V26.1069C63.6135 26.796 63.0455 27.3432 62.376 27.3432H61.24V18.6281C61.2197 16.2365 62.1326 13.9868 63.7961 12.3046C65.4595 10.6223 67.6911 9.69002 70.0646 9.71028C74.913 9.71028 78.8891 13.6422 78.9094 18.4862ZM113.822 9.79153C114.431 9.69019 114.978 9.66992 116.114 9.66992H119.381C122.139 9.66992 124.391 11.9196 124.391 14.6761C124.391 17.4325 122.139 19.6822 119.381 19.6822C119.381 19.6629 112.988 19.6803 112.334 19.682H112.334L112.28 19.6822V18.8715C112.28 18 112.99 17.3109 113.842 17.3109H119.381C120.841 17.3109 122.018 16.1353 122.018 14.6761C122.018 13.2168 120.841 12.0412 119.381 12.0412H115.222C111.651 12.0412 108.75 14.9395 108.75 18.5067C108.75 22.0738 111.651 24.9721 115.222 24.9721H121.632C122.322 24.9721 122.87 25.5396 122.87 26.2084V27.3434C120.16 27.3434 118.365 27.3512 117.145 27.3565H117.144H117.144H117.143C115.081 27.3655 114.663 27.3674 114.254 27.3121C114.15 27.298 114.046 27.2803 113.916 27.2581L113.822 27.2421C103.78 25.6409 104.044 11.3319 113.822 9.79153ZM132.912 25.7221C132.912 26.4112 132.344 26.9585 131.674 26.9585H130.538V18.8514C130.558 14.0074 134.535 10.0754 139.363 10.0754C140.479 10.0754 141.554 10.2781 142.568 10.6632V11.028C142.568 12.0211 141.675 12.7711 140.702 12.5684C140.255 12.467 139.789 12.4265 139.302 12.4265C135.732 12.4873 132.912 15.4667 132.912 19.0135V25.7221ZM149.323 11.0887C148.35 12.0412 147.802 13.3181 147.802 14.6761C147.802 17.4325 150.135 19.6822 152.894 19.6822H159.812V19.6417H159.872C161.15 19.8241 162.144 20.9996 162.144 22.3373C162.144 23.7965 160.968 24.9721 159.507 24.9721H149.547C148.877 24.9721 148.309 25.5193 148.309 26.2084V27.3434H159.507C160.826 27.3434 162.043 26.8367 162.996 25.9247C163.964 24.9782 164.511 23.7117 164.518 22.3636V22.3114C164.503 19.5668 162.176 17.3311 159.426 17.3311H157.499V17.4325C156.949 17.4264 156.277 17.4203 155.605 17.4141H155.605C154.048 17.4 152.49 17.3858 152.448 17.3717C151.17 17.1893 150.175 16.0137 150.175 14.6761C150.175 13.2168 151.352 12.0412 152.813 12.0412H162.611C163.281 12.0412 163.849 11.494 163.849 10.8049V9.69043H152.415C151.25 9.79323 150.18 10.2691 149.323 11.0887ZM15.3456 19.3112C15.3239 19.0661 15.3123 18.8181 15.3112 18.5677V9.69043H16.4472C16.4781 9.69043 16.5087 9.69157 16.539 9.6938C16.5691 9.69157 16.5994 9.69043 16.6299 9.69043H17.7659V18.4056C17.7684 18.7047 17.7564 19.0017 17.7301 19.2956C18.1111 22.5013 20.8459 24.9926 24.1561 24.9926C25.8804 24.9926 27.5033 24.3035 28.7205 23.0874C29.9377 21.8713 30.6071 20.2499 30.6071 18.5272V10.9268C30.6071 10.2377 31.1752 9.69043 31.8446 9.69043H33.0009V18.4056C33.0212 20.7972 32.1083 23.0469 30.4449 24.7291C28.7814 26.4113 26.5499 27.3436 24.1561 27.3436C20.9272 27.3436 18.0851 25.5998 16.5408 23.004C16.1737 23.6256 15.7282 24.2049 15.2098 24.7291C13.5463 26.4113 11.3148 27.3436 8.92104 27.3436C4.07259 27.3436 0.0964583 23.4117 0.0761719 18.5677V9.69043H1.21221C1.90195 9.69043 2.44968 10.2579 2.44968 10.9268V18.5272C2.44968 22.0943 5.35063 24.9926 8.92104 24.9926C10.6657 24.9926 12.2886 24.3035 13.5058 23.0874C14.5364 22.0578 15.1743 20.7375 15.3456 19.3112Z" fill="url(#paint0_linear_1071_834)"/>
</g>
<defs>
<linearGradient id="paint0_linear_1071_834" x1="156.16" y1="9.68993" x2="156.16" y2="27.3653" gradientUnits="userSpaceOnUse">
<stop stop-color="#00FF00"/>
<stop offset="1" stop-color="#00FFFF"/>
</linearGradient>
<clipPath id="clip0_1071_834">
<rect width="165" height="27" fill="white" transform="translate(0 0.5)"/>
</clipPath>
</defs>
</svg>
