<svg width="153" height="36" viewBox="0 0 153 36" fill="none" xmlns="http://www.w3.org/2000/svg">
<g id="Yeldo_logo 1" clip-path="url(#clip0_1194_9061)">
<path id="Union" fill-rule="evenodd" clip-rule="evenodd" d="M123.222 17.7686C123.222 25.3358 128.445 31.4158 136.05 31.4158C143.655 31.4158 148.878 25.3358 148.878 17.7686C148.878 10.2032 143.655 4.1214 136.05 4.1214C128.445 4.1214 123.222 10.2014 123.222 17.7686ZM119.1 17.7686C119.1 7.83488 126.201 0.5 136.05 0.5C145.899 0.5 153 7.83488 153 17.7686C153 27.7017 145.899 35.0366 136.05 35.0366C126.201 35.0366 119.1 27.7017 119.1 17.7686ZM54.6241 15.2514H31.8047V15.2466C31.9001 13.8045 32.2605 12.4028 32.8788 11.0775C33.4935 9.75943 34.335 8.56533 35.3802 7.53073C36.4218 6.49854 37.6472 5.67038 39.0245 5.06792C40.403 4.46546 41.9192 4.16091 43.5309 4.16091C46.9933 4.16091 49.7037 5.22681 51.5851 7.3255C53.4588 9.41817 54.4816 12.0838 54.6241 15.2514ZM55.0969 5.33695C53.8127 3.87443 52.1845 2.69538 50.2555 1.83472C48.3247 0.972857 46.0623 0.537109 43.5309 0.537109C41.2303 0.537109 39.0622 0.974662 37.0843 1.83472C35.1063 2.69839 33.3575 3.91415 31.8872 5.4507C30.4168 6.98725 29.2497 8.83136 28.4212 10.9306C27.5927 13.0293 27.1723 15.3489 27.1723 17.8232C27.1723 20.298 27.6039 22.6164 28.4542 24.7121C29.3051 26.8113 30.4845 28.6555 31.9566 30.1932C33.427 31.7316 35.2106 32.9473 37.2568 33.808C39.3042 34.6698 41.5559 35.1074 43.9496 35.1074C46.6205 35.1074 49.1532 34.5627 51.4791 33.4908C53.7496 32.443 55.8624 30.703 57.7626 28.3142L54.534 25.7473C53.5883 27.2056 52.2287 28.511 50.4881 29.6341C48.6597 30.8131 46.4604 31.4108 43.9496 31.4108C42.2419 31.4108 40.6309 31.0828 39.1605 30.4321C37.6902 29.7833 36.3936 28.8956 35.3042 27.79C34.2131 26.6844 33.3463 25.3693 32.7316 23.8791C32.115 22.3907 31.7794 20.7855 31.7323 19.1081L31.7258 18.8866H58.9927C59.0263 18.5346 59.0416 18.1993 59.0416 17.8918V16.8247C59.0416 14.5851 58.7036 12.454 58.0364 10.4931C57.3722 8.53825 56.3824 6.80308 55.0969 5.33695ZM23.4106 1.33643L14.0185 16.1904L4.90151 1.33643H0L12.0942 20.0435V34.2022H15.9429V20.0435L28.0371 1.33643H23.4106ZM63.2871 1.33643H67.1358V30.5809H84.2028V34.2016H63.2871V1.33643ZM99.4467 30.5811H92.1162V4.95747H99.4467C106.868 4.95747 112.502 8.76424 112.502 17.7699C112.502 26.7761 106.867 30.5811 99.4467 30.5811ZM100.729 1.33667H88.2675V34.2019H100.729C107.096 34.2019 116.626 29.8841 116.626 17.7687C116.626 5.65261 107.096 1.33667 100.729 1.33667Z" fill="#8334CD"/>
</g>
<defs>
<clipPath id="clip0_1194_9061">
<rect width="153" height="35" fill="white" transform="translate(0 0.5)"/>
</clipPath>
</defs>
</svg>
